<?xml version="1.0" standalone="no"?>
<!DOCTYPE svg PUBLIC "-//W3C//DTD SVG 1.1//EN" "http://www.w3.org/Graphics/SVG/1.1/DTD/svg11.dtd" >
<svg>
<metadata>
Created by FontForge 20090914 at Tue Jan 22 05:50:08 2019
 By www-data
Copyright &#194;&#169; 2009, 2013 Cadson Demak Co. Ltd., Thailand. All Rights Reserved.
</metadata>
<defs>
<font id="SukhumvitSet-SemiBold" horiz-adv-x="0" >
  <font-face 
    font-family="Sukhumvit Set"
    font-weight="600"
    font-stretch="normal"
    units-per-em="1000"
    panose-1="2 0 5 6 0 0 0 2 0 4"
    ascent="800"
    descent="-200"
    x-height="483"
    cap-height="674"
    bbox="-616.004 -452 1133 1064"
    underline-thickness="50"
    underline-position="-75"
    unicode-range="U+000D-U+FB02"
  />
<missing-glyph horiz-adv-x="515" 
d="M60 0v673h395v-673h-395zM122 63h270v548h-270v-548z" />
    <glyph glyph-name="uni0E5A" unicode="&#xe2f;&#xe2f;" horiz-adv-x="778" 
d="M373 0v400.001c-13.333 -26 -35 -47.333 -65 -64s-63 -25 -99 -25c-30 0 -55.833 5 -77.5 15s-39.667 24 -54 42s-25 39.167 -32 63.5s-10.5 50.833 -10.5 79.5v49h106v-49c0 -76.667 29 -115 87 -115c18 0 35.833 3.66699 53.5 11s33.5 17.333 47.5 30
s25.333 27.5 34 44.5s13 35.167 13 54.5v24h105v-168c16 3.33301 31.167 9.5 45.5 18.5s27 20 38 33s19.833 27.333 26.5 43s10 32.167 10 49.5v24h105v-560h-108v400c-10.667 -20.667 -26.167 -39.334 -46.5 -56.001s-43.833 -28.667 -70.5 -36v-308h-108z" />
    <glyph glyph-name="uni0E4F.liga" unicode="&#xe4f;&#x22;" horiz-adv-x="546" 
d="M273 26c-29.333 0 -57 5.66699 -83 17s-48.667 26.666 -68 45.999s-34.5 42 -45.5 68s-16.5 53.667 -16.5 83s5.5 57 16.5 83s26.167 48.667 45.5 68s42 34.5 68 45.5s53.667 16.5 83 16.5s57 -5.5 83 -16.5s48.667 -26.167 68 -45.5s34.5 -42 45.5 -68
s16.5 -53.667 16.5 -83s-5.5 -57 -16.5 -83s-26.167 -48.667 -45.5 -68s-42 -34.666 -68 -45.999s-53.667 -17 -83 -17zM273 65c24 0 46.667 4.5 68 13.5s39.833 21.5 55.5 37.5s28 34.667 37 56s13.5 44 13.5 68s-4.5 46.5 -13.5 67.5s-21.333 39.5 -37 55.5
s-34.167 28.5 -55.5 37.5s-44 13.5 -68 13.5s-46.667 -4.5 -68 -13.5s-39.833 -21.5 -55.5 -37.5s-28.167 -34.5 -37.5 -55.5s-14 -43.5 -14 -67.5s4.66699 -46.667 14 -68s21.833 -40 37.5 -56s34.167 -28.5 55.5 -37.5s44 -13.5 68 -13.5zM273 117
c-17.333 0 -33.5 3.16699 -48.5 9.5s-28.167 15 -39.5 26s-20.166 24 -26.499 39s-9.5 30.833 -9.5 47.5c0 17.333 3.33301 33.666 10 48.999s15.5 28.5 26.5 39.5s24 19.667 39 26s30.833 9.5 47.5 9.5c17.333 0 33.5 -3.16699 48.5 -9.5s28.167 -15.166 39.5 -26.499
s20.166 -24.5 26.499 -39.5s9.5 -30.833 9.5 -47.5c0 -17.333 -3.33301 -33.5 -10 -48.5s-15.5 -28 -26.5 -39s-24 -19.667 -39 -26s-30.833 -9.5 -47.5 -9.5zM273 179c16 0 29.834 5.83398 41.501 17.501s17.5 26.167 17.5 43.5c0 16 -5.83301 29.833 -17.5 41.5
s-25.834 17.5 -42.501 17.5c-16 0 -30 -5.83301 -42 -17.5s-18 -25.834 -18 -42.501c0 -16 5.83301 -30 17.5 -42s26.167 -18 43.5 -18zM176.001 489.001l-13 198h80l-13 -198h-54zM315.001 489.001l-12 198h79l-12 -198h-55z" />
    <glyph glyph-name="uni0E24.liga" unicode="&#xe24;&#xe32;" horiz-adv-x="963" 
d="M179 108c0 -6.66699 1.33398 -11.8311 4.00098 -15.498s7.66699 -5.5 15 -5.5h56v-87h-83c-32.667 0 -57.5 9.16699 -74.5 27.5s-25.5 42.5 -25.5 72.5v136c0 20 4.83301 38.5 14.5 55.5s22.5 30.167 38.5 39.5l-81 68c6 22 16.833 43.333 32.5 64s34.834 39 57.501 55
s48.667 28.833 78 38.5s60.666 14.5 93.999 14.5c39.333 0 73.833 -5.66699 103.5 -17s54.834 -27 75.501 -47c22 17.333 48 32.333 78 45s65 19 105 19c35.333 0 67 -5.5 95 -16.5s51.667 -26.167 71 -45.5s34.166 -42.5 44.499 -69.5s15.5 -56.833 15.5 -89.5v-550h-108
v550c0 44 -11.333 77 -34 99s-52.667 33 -90 33c-28 0 -53 -4.66699 -75 -14s-40.667 -21 -56 -35c5.33301 -12.667 9 -25.834 11 -39.501s3 -28.167 3 -43.5v-550h-108v550c0 44 -11.667 77 -35 99s-56 33 -98 33c-16.667 0 -32.667 -2 -48 -6s-29.5 -9.66699 -42.5 -17
s-24.333 -15.833 -34 -25.5s-16.834 -19.834 -21.501 -30.501l80 -70c-19.333 -8 -33.833 -19.333 -43.5 -34s-14.5 -33.667 -14.5 -57v-134z" />
    <glyph glyph-name="uni0E26.liga" unicode="&#xe26;&#xe32;" horiz-adv-x="970" 
d="M199 100c0 -30 -8.5 -54.334 -25.5 -73.001s-42.167 -27.667 -75.5 -27h-71v87h45c12.667 0 19 7 19 21v124c0 20 4.5 38.333 13.5 55s21.5 29.334 37.5 38.001l-91 74c6 22 16.833 43.333 32.5 64s34.834 39 57.501 55s48.5 28.833 77.5 38.5s60.5 14.5 94.5 14.5
c39.333 0 73.833 -5.66699 103.5 -17s54.5 -27 74.5 -47c22 17.333 48 32.333 78 45s65 19 105 19c36 0 68 -5.5 96 -16.5s51.667 -26.167 71 -45.5s34 -42.5 44 -69.5s15 -56.833 15 -89.5v-550h-108v550c0 44 -11.333 77 -34 99s-52.334 33 -89.001 33
c-28 0 -53.167 -4.66699 -75.5 -14s-40.833 -21 -55.5 -35c9.33301 -26 14 -53.667 14 -83v-550h-108v550c0 44 -11.667 77 -35 99s-56 33 -98 33c-34 0 -64.333 -7.66699 -91 -23s-45 -34 -55 -56l90 -76c-19.333 -8 -33.5 -18.833 -42.5 -32.5s-13.5 -32.167 -13.5 -55.5
v-139z" />
    <glyph glyph-name="fi" unicode="fi" horiz-adv-x="567" 
d="M493 0h-106v404h-198v-404h-103v404h-74v79h74c0 62.667 17.333 112 52 148s82.667 54 144 54c25.333 0 49.5 -3.16699 72.5 -9.5s42.167 -13.833 57.5 -22.5l-22 -69c-12 6 -25.667 11 -41 15s-33 6 -53 6c-38 0 -65.333 -9.66699 -82 -29s-25 -50.333 -25 -93h304v-483
z" />
    <glyph glyph-name="fl" unicode="fl" horiz-adv-x="597" 
d="M523 0l-106 -0.000976562v590c-14 4.66699 -29.833 8.33398 -47.5 11.001s-35.5 4 -53.5 4c-42.667 0 -74.5 -9.66699 -95.5 -29s-31.5 -50.333 -31.5 -93h136v-79h-136v-404h-103v404h-74v79h74c0 29.333 5 56.333 15 81s24.667 46 44 64s43.5 32 72.5 42
s62.167 15 99.5 15c48.667 0 90.5 -4.5 125.5 -13.5s61.833 -17.833 80.5 -26.5v-645z" />
    <glyph glyph-name=".notdef" horiz-adv-x="515" 
d="M60 0v673h395v-673h-395zM122 63h270v548h-270v-548z" />
    <glyph glyph-name=".null" 
 />
    <glyph glyph-name=".null" 
 />
    <glyph glyph-name="nonmarkingreturn" unicode="&#xd;" horiz-adv-x="195" 
 />
    <glyph glyph-name="space" unicode=" " horiz-adv-x="240" 
 />
    <glyph glyph-name="exclam" unicode="!" horiz-adv-x="262" 
d="M169 191h-76l-17 323v160h110v-160zM131 -11c-22.667 0 -40.167 6.66699 -52.5 20s-18.5 29.333 -18.5 48s6.16699 34.834 18.5 48.501s29.833 20.5 52.5 20.5s40.167 -6.83301 52.5 -20.5s18.5 -29.834 18.5 -48.501s-6.16699 -34.667 -18.5 -48s-29.833 -20 -52.5 -20z
" />
    <glyph glyph-name="quotedbl" unicode="&#x22;" horiz-adv-x="358" 
d="M225 452l-15 236h98l-15 -236h-68zM66 452l-16 236h99l-16 -236h-67z" />
    <glyph glyph-name="numbersign" unicode="#" horiz-adv-x="580" 
d="M65 456h104l42 194h88l-41 -194h121l42 194h89l-42 -194h87v-77h-104l-23 -108h88v-77h-104l-42 -194h-89l42 194h-122l-41 -194h-89l42 194h-88v77h104l24 108h-88v77zM216 270h124l24 110h-124z" />
    <glyph glyph-name="dollar" unicode="$" horiz-adv-x="580" 
d="M261 -11c-42 0.666992 -78.5049 4.66406 -109.505 11.9971s-58.167 17.666 -81.5 30.999l26 86c20.667 -11.333 45.334 -20.666 74.001 -27.999s59 -11 91 -11v211c-20 6.66699 -41 14.5 -63 23.5s-42.333 20.833 -61 35.5s-34.167 32.834 -46.5 54.501
s-18.5 48.5 -18.5 80.5c0 22.667 3.66699 44 11 64s18.833 37.667 34.5 53s35.334 28 59.001 38s51.834 16.667 84.501 20v91h60v-90c30 -1.33301 57.833 -5.16602 83.5 -11.499s49.834 -15.166 72.501 -26.499l-26 -83c-19.333 8.66699 -40.333 15.667 -63 21
s-45 8.66602 -67 9.99902v-198c22 -7.33301 44.167 -16 66.5 -26s42.5 -22.5 60.5 -37.5s32.667 -33.333 44 -55s17 -47.5 17 -77.5c0 -28 -4.66699 -52.5 -14 -73.5s-22.166 -39 -38.499 -54s-36 -27.167 -59 -36.5s-48.5 -15.666 -76.5 -18.999v-93h-60v89z
M170.995 485.997c0 -25.333 8.66895 -44.833 26.002 -58.5s38.666 -25.167 63.999 -34.5v174c-30.667 -4.66699 -53.334 -14.167 -68.001 -28.5s-22 -31.833 -22 -52.5zM409.997 177.997c0 24.667 -8.5 43.834 -25.5 57.501s-38.167 25.167 -63.5 34.5v-185
c26 6 47.333 16.667 64 32s25 35.666 25 60.999z" />
    <glyph glyph-name="percent" unicode="%" horiz-adv-x="784" 
d="M528 660h94l-366 -660h-95zM121 484c0 -14.667 1.16699 -28.667 3.5 -42s6 -25 11 -35s11.333 -18 19 -24s16.834 -9 27.501 -9s19.834 3 27.501 9s14 14 19 24s8.66699 21.667 11 35s3.5 27.333 3.5 42s-1.16699 28.667 -3.5 42s-6 25 -11 35s-11.333 18 -19 24
s-16.834 9 -27.501 9s-19.834 -3 -27.501 -9s-14 -14 -19 -24s-8.66699 -21.667 -11 -35s-3.5 -27.333 -3.5 -42zM36 484c0 24 3.16699 46.667 9.5 68s15.833 40.166 28.5 56.499s28 29.166 46 38.499s38.667 14 62 14c22.667 0 43.167 -4.66699 61.5 -14
s33.666 -22.166 45.999 -38.499s21.833 -35.166 28.5 -56.499s10 -44 10 -68s-3.33301 -46.667 -10 -68s-16.167 -40 -28.5 -56s-27.666 -28.667 -45.999 -38s-38.833 -14 -61.5 -14c-23.333 0 -44 4.66699 -62 14s-33.333 22 -46 38s-22.167 34.667 -28.5 56
s-9.5 44 -9.5 68zM541 165c0 -14.667 1.16699 -28.667 3.5 -42s6 -25 11 -35s11.333 -18 19 -24s16.834 -9 27.501 -9s19.834 3 27.501 9s14 14 19 24s8.66699 21.667 11 35s3.5 27.333 3.5 42s-1.16699 28.667 -3.5 42s-6 25 -11 35s-11.333 18 -19 24s-16.834 9 -27.501 9
s-19.834 -3 -27.501 -9s-14 -14 -19 -24s-8.66699 -21.667 -11 -35s-3.5 -27.333 -3.5 -42zM456 165c0 24 3.16699 46.667 9.5 68s15.833 40.166 28.5 56.499s28 29.166 46 38.499s38.667 14 62 14c22.667 0 43.167 -4.66699 61.5 -14s33.666 -22.166 45.999 -38.499
s21.833 -35.166 28.5 -56.499s10 -44 10 -68s-3.33301 -46.667 -10 -68s-16.167 -40 -28.5 -56s-27.666 -28.667 -45.999 -38s-38.833 -14 -61.5 -14c-23.333 0 -44 4.66699 -62 14s-33.333 22 -46 38s-22.167 34.667 -28.5 56s-9.5 44 -9.5 68z" />
    <glyph glyph-name="ampersand" unicode="&#x26;" horiz-adv-x="640" 
d="M460 43c-22 -16.667 -47.5039 -29.832 -76.5039 -39.499s-60.5 -14.5 -94.5 -14.5c-41.333 0 -76.833 5.16699 -106.5 15.5s-54.167 24.5 -73.5 42.5s-33.666 39.167 -42.999 63.5s-14 50.166 -14 77.499c0 22 3.33301 42.167 10 60.5s15.667 35.166 27 50.499
s24.5 29.333 39.5 42s30.833 24.667 47.5 36l-8 9c-20.667 23.333 -36.667 46 -48 68s-17 45.667 -17 71c0 48.667 14.833 87.5 44.5 116.5s72.834 43.5 129.501 43.5c31.333 0 58 -4 80 -12s40 -18.833 54 -32.5s24.167 -29.667 30.5 -48s9.5 -37.5 9.5 -57.5
c0 -20.667 -3.83301 -39.334 -11.5 -56.001s-17.667 -32 -30 -46s-26.666 -27.167 -42.999 -39.5s-33.5 -24.166 -51.5 -35.499l150 -176c8.66699 14.667 15.334 31.834 20.001 51.501s7 41.167 7 64.5v52h106v-52c0 -41.333 -6 -78 -18 -110s-27.667 -60.333 -47 -85
l87 -103h-123zM290.996 83.002c21.333 0 41 2.99805 59 8.99805s34 13.667 48 23l-161 190c-20 -16 -37 -33.167 -51 -51.5s-21 -39.166 -21 -62.499c0 -33.333 11 -59.666 33 -78.999s53 -29 93 -29zM207.996 530c0 -30 13.668 -61.333 41.001 -94l9 -11
c23.333 14 43.666 29.667 60.999 47s26 37.333 26 60c0 19.333 -5.33301 36 -16 50s-27.667 21 -51 21c-22 0 -39.167 -6.5 -51.5 -19.5s-18.5 -30.833 -18.5 -53.5z" />
    <glyph glyph-name="quotesingle" unicode="'" horiz-adv-x="199" 
d="M66 452l-16 236h99l-16 -236h-67z" />
    <glyph glyph-name="parenleft" unicode="(" horiz-adv-x="306" 
d="M60 284c0 56 5.5 105.831 16.5 149.498s26 82.5 45 116.5s41.167 63.167 66.5 87.5s52.333 44.833 81 61.5l27 -49c-23.333 -16 -43.666 -36.667 -60.999 -62s-31.666 -54 -42.999 -86s-19.833 -66.5 -25.5 -103.5s-8.5 -75.167 -8.5 -114.5s2.83301 -77.5 8.5 -114.5
s14.167 -71.5 25.5 -103.5s25.666 -60.667 42.999 -86s37.666 -46 60.999 -62l-27 -49c-28.667 16.667 -55.667 37.334 -81 62.001s-47.5 53.834 -66.5 87.501s-34 72.5 -45 116.5s-16.5 93.667 -16.5 149z" />
    <glyph glyph-name="parenright" unicode=")" horiz-adv-x="306" 
d="M246 284c0 -55.333 -5.5 -104.998 -16.5 -148.998s-26 -82.833 -45 -116.5s-41.167 -62.834 -66.5 -87.501s-52.333 -45.334 -81 -62.001l-27 49c23.333 16 43.666 36.667 60.999 62s31.666 54 42.999 86s19.833 66.5 25.5 103.5s8.5 75.167 8.5 114.5
s-2.83301 77.5 -8.5 114.5s-14.167 71.5 -25.5 103.5s-25.666 60.667 -42.999 86s-37.666 46 -60.999 62l27 49c28.667 -16.667 55.667 -37.167 81 -61.5s47.5 -53.5 66.5 -87.5s34 -72.833 45 -116.5s16.5 -93.5 16.5 -149.5z" />
    <glyph glyph-name="asterisk" unicode="*" horiz-adv-x="490" 
d="M444 557l-143 -94l144 -92l-66 -63l-104 106l20 -155h-100l22 156l-106 -107l-66 63l144 96l-143 90l66 64l104 -102l-21 155h100l-20 -155l104 102z" />
    <glyph glyph-name="plus" unicode="+" horiz-adv-x="580" 
d="M506 241h-166v-169h-99v169h-167v85h167v170h99v-170h166v-85z" />
    <glyph glyph-name="comma" unicode="," horiz-adv-x="252" 
d="M197 119l-81 -244h-69l28 244h122z" />
    <glyph glyph-name="hyphen" unicode="-" horiz-adv-x="327" 
d="M302 306v-85h-277v85h277z" />
    <glyph glyph-name="period" unicode="." horiz-adv-x="252" 
d="M55 57c0 18.667 6 34.834 18 48.501s29.667 20.5 53 20.5c22.667 0 40.167 -6.83301 52.5 -20.5s18.5 -29.834 18.5 -48.501s-6.16699 -34.834 -18.5 -48.501s-29.833 -20.5 -52.5 -20.5c-23.333 0 -41 6.83301 -53 20.5s-18 29.834 -18 48.501z" />
    <glyph glyph-name="slash" unicode="/" horiz-adv-x="384" 
d="M95 -40h-90l283 714h91z" />
    <glyph glyph-name="zero" unicode="0" horiz-adv-x="580" 
d="M290 74c44 0 78.167 21 102.5 63s36.5 104.667 36.5 188s-12.167 146 -36.5 188s-58.5 63 -102.5 63s-78.167 -21 -102.5 -63s-36.5 -104.667 -36.5 -188s12.167 -146 36.5 -188s58.5 -63 102.5 -63zM290 -11c-38 0 -72.333 7.66699 -103 23s-56.667 37.333 -78 66
s-37.666 63.834 -48.999 105.501s-17 88.834 -17 141.501s5.66699 99.834 17 141.501s27.666 76.834 48.999 105.501s47.333 50.667 78 66s65 23 103 23s72.333 -7.66699 103 -23s56.667 -37.333 78 -66s37.666 -63.834 48.999 -105.501s17 -88.834 17 -141.501
s-5.66699 -99.834 -17 -141.501s-27.666 -76.834 -48.999 -105.501s-47.333 -50.667 -78 -66s-65 -23 -103 -23z" />
    <glyph glyph-name="one" unicode="1" horiz-adv-x="580" 
d="M246 549l-134 -38v83l158 56h84v-557l149 1v-94h-411v94l154 -1v456z" />
    <glyph glyph-name="two" unicode="2" horiz-adv-x="580" 
d="M269 571c-29.333 0 -57.832 -3.83203 -85.499 -11.499s-52.834 -17.167 -75.501 -28.5l-25 82c22 11.333 50 22.166 84 32.499s70.667 15.5 110 15.5c72 0 125.167 -16.5 159.5 -49.5s51.5 -76.833 51.5 -131.5c0 -26.667 -5.33301 -52.834 -16 -78.501s-25 -51 -43 -76
s-38.667 -49.833 -62 -74.5l-73 -74l-84 -81h298v-96h-449v75l160 163l69 72c20 21.333 37 41.333 51 60s24.5 36.834 31.5 54.501s10.5 36.167 10.5 55.5c0 29.333 -9.66699 51.833 -29 67.5s-47 23.5 -83 23.5z" />
    <glyph glyph-name="three" unicode="3" horiz-adv-x="580" 
d="M254 80c46 0 81.499 10.167 106.499 30.5s37.5 46.5 37.5 78.5c0 34 -12.167 59.333 -36.5 76s-55.5 25 -93.5 25h-100v87h100c30.667 0 56.834 8.83301 78.501 26.5s32.5 42.5 32.5 74.5c0 28 -10.667 50.333 -32 67s-55 25 -101 25c-30 0 -58.167 -3.16699 -84.5 -9.5
s-50.5 -15.166 -72.5 -26.499l-25 83c21.333 11.333 48.333 21.5 81 30.5s69 13.5 109 13.5c39.333 0 73.5 -4.66699 102.5 -14s53 -22 72 -38s33.167 -34.833 42.5 -56.5s14 -44.834 14 -69.501c0 -38 -9.16699 -68.167 -27.5 -90.5s-41.833 -40.166 -70.5 -53.499
c16.667 -4 32.167 -10.5 46.5 -19.5s26.833 -20 37.5 -33s19 -28 25 -45s9 -35.5 9 -55.5c0 -30 -5.83301 -57.167 -17.5 -81.5s-28.167 -45 -49.5 -62s-47 -30.167 -77 -39.5s-63.333 -14 -100 -14c-42.667 0 -81.167 4.33301 -115.5 13s-62.5 19 -84.5 31l25 83
c22 -10.667 47.5 -19.334 76.5 -26.001s59.5 -10 91.5 -10z" />
    <glyph glyph-name="four" unicode="4" horiz-adv-x="580" 
d="M358 208v279l-199 -279h199zM372 650h90v-442h74v-88h-74v-120h-106v120h-315v71z" />
    <glyph glyph-name="five" unicode="5" horiz-adv-x="580" 
d="M253 80c24.667 0 46.165 3.33203 64.498 9.99902s33.666 15.5 45.999 26.5s21.5 24 27.5 39s9 31.167 9 48.5c0 38 -11 67.333 -33 88s-58.667 31 -110 31h-172v68l26 259h358v-96h-268l-11 -136h68c82 0 144.167 -18.833 186.5 -56.5s63.5 -89.834 63.5 -156.501
c0 -33.333 -5.83301 -63.166 -17.5 -89.499s-28.5 -49 -50.5 -68s-48.667 -33.5 -80 -43.5s-66.666 -15 -105.999 -15c-43.333 0 -81.666 4 -114.999 12s-61.666 18.667 -84.999 32l27 86c21.333 -11.333 46.333 -20.666 75 -27.999s61 -11 97 -11z" />
    <glyph glyph-name="six" unicode="6" horiz-adv-x="580" 
d="M314 344c-32.667 0 -61.668 -6.00098 -87.001 -18.001s-46.666 -26.333 -63.999 -43c0 -33.333 4 -62.666 12 -87.999s18.5 -46.833 31.5 -64.5s28 -31 45 -40s35.167 -13.5 54.5 -13.5c35.333 0 64.333 12.5 87 37.5s34 60.5 34 106.5c0 17.333 -2.16699 33.5 -6.5 48.5
s-11 28 -20 39s-20.667 19.667 -35 26s-31.5 9.5 -51.5 9.5zM330.999 572.999c-52 0 -91.998 -18.332 -119.998 -54.999s-43.667 -87 -47 -151c15.333 15.333 37.166 29.833 65.499 43.5s62.833 20.5 103.5 20.5c28 0 54.167 -4.5 78.5 -13.5s45.5 -22.333 63.5 -40
s32.167 -39.667 42.5 -66s15.5 -56.5 15.5 -90.5c0 -32.667 -5.33301 -63 -16 -91s-25.834 -52.5 -45.501 -73.5s-43.5 -37.5 -71.5 -49.5s-59 -18 -93 -18c-78.667 0 -140.167 27.667 -184.5 83s-66.5 137.333 -66.5 246c0 55.333 6.5 104.333 19.5 147
s31.333 78.5 55 107.5s52 51 85 66s69.5 22.5 109.5 22.5c32 0 60.5 -3.83301 85.5 -11.5s48.167 -17.834 69.5 -30.501l-26 -82c-37.333 24 -78.333 36 -123 36z" />
    <glyph glyph-name="seven" unicode="7" horiz-adv-x="580" 
d="M72 650h446v-69l-258 -581h-111l247 556h-324v94z" />
    <glyph glyph-name="eight" unicode="8" horiz-adv-x="580" 
d="M290 75c40 0 71.833 9.5 95.5 28.5s35.5 45.167 35.5 78.5c0 71.333 -43.667 107 -131 107c-86.667 0 -130 -35.667 -130 -107c0 -33.333 11.667 -59.5 35 -78.5s55 -28.5 95 -28.5zM290 661c69.333 0 122.833 -15.667 160.5 -47s56.5 -74.333 56.5 -129
c0 -36 -9 -66.333 -27 -91s-41.333 -43 -70 -55c15.333 -4 30 -10.667 44 -20s26.333 -21 37 -35s19.167 -29.833 25.5 -47.5s9.5 -36.5 9.5 -56.5c0 -60 -21 -106.833 -63 -140.5s-99.667 -50.5 -173 -50.5c-72.667 0 -130 16.833 -172 50.5s-63 80.5 -63 140.5
c0 20 3.16699 38.833 9.5 56.5s14.833 33.5 25.5 47.5s23 25.667 37 35s28.667 16 44 20c-28.667 12 -52.167 30.333 -70.5 55s-27.5 55 -27.5 91c0 54.667 19 97.667 57 129s91.333 47 160 47zM290 374c34.667 0 62.167 9 82.5 27s30.5 43.667 30.5 77
c0 31.333 -10.333 55.5 -31 72.5s-48 25.5 -82 25.5s-61.333 -8.5 -82 -25.5s-31 -41.167 -31 -72.5c0 -33.333 10.333 -59 31 -77s48 -27 82 -27z" />
    <glyph glyph-name="nine" unicode="9" horiz-adv-x="580" 
d="M266 305c32.667 0 61.5 5.99902 86.5 17.999s46.167 26.333 63.5 43c0 32.667 -4 62 -12 88s-18.5 47.667 -31.5 65s-28 30.666 -45 39.999s-35.167 14 -54.5 14c-35.333 0 -64.333 -12.667 -87 -38s-34 -60.666 -34 -105.999c0 -17.333 2.16699 -33.666 6.5 -48.999
s11 -28.5 20 -39.5s20.833 -19.667 35.5 -26s32 -9.5 52 -9.5zM245 76.999c56.667 0 98.8291 18.0029 126.496 54.0029s42.167 86.333 43.5 151c-15.333 -14.667 -37.166 -28.834 -65.499 -42.501s-62.833 -20.5 -103.5 -20.5c-27.333 0 -53.166 4.5 -77.499 13.5
s-45.5 22.333 -63.5 40s-32.167 39.5 -42.5 65.5s-15.5 56 -15.5 90c0 32.667 5.33301 63.167 16 91.5s25.667 53 45 74s43 37.5 71 49.5s59 18 93 18c78.667 0 140.334 -27.833 185.001 -83.5s67 -137.834 67 -246.501c0 -112 -24.5 -197 -73.5 -255s-115.5 -87 -199.5 -87
c-32 0 -61.833 3.16699 -89.5 9.5s-52.834 15.166 -75.501 26.499l26 82c18.667 -10 39.334 -17.5 62.001 -22.5s46.334 -7.5 71.001 -7.5z" />
    <glyph glyph-name="colon" unicode=":" horiz-adv-x="272" 
d="M65 411c0 18.667 6 34.834 18 48.501s29.667 20.5 53 20.5c22.667 0 40.167 -6.83301 52.5 -20.5s18.5 -29.834 18.5 -48.501s-6.16699 -34.834 -18.5 -48.501s-29.833 -20.5 -52.5 -20.5c-23.333 0 -41 6.83301 -53 20.5s-18 29.834 -18 48.501zM65 57
c0 18.667 6 34.834 18 48.501s29.667 20.5 53 20.5c22.667 0 40.167 -6.83301 52.5 -20.5s18.5 -29.834 18.5 -48.501s-6.16699 -34.834 -18.5 -48.501s-29.833 -20.5 -52.5 -20.5c-23.333 0 -41 6.83301 -53 20.5s-18 29.834 -18 48.501z" />
    <glyph glyph-name="semicolon" unicode=";" horiz-adv-x="272" 
d="M65 411c0 18.667 6 34.834 18 48.501s29.667 20.5 53 20.5c22.667 0 40.167 -6.83301 52.5 -20.5s18.5 -29.834 18.5 -48.501s-6.16699 -34.834 -18.5 -48.501s-29.833 -20.5 -52.5 -20.5c-23.333 0 -41 6.83301 -53 20.5s-18 29.834 -18 48.501zM200 119l-81 -244h-69
l28 244h122z" />
    <glyph glyph-name="less" unicode="&#x3c;" horiz-adv-x="580" 
d="M62 327l438 239v-102l-326 -169l326 -169v-101l-438 238v64z" />
    <glyph glyph-name="equal" unicode="=" horiz-adv-x="580" 
d="M498 331h-416v80h416v-80zM498 149h-416v80h416v-80z" />
    <glyph glyph-name="greater" unicode="&#x3e;" horiz-adv-x="580" 
d="M518 263l-438 -238v101l326 169l-326 169v102l438 -239v-64z" />
    <glyph glyph-name="question" unicode="?" horiz-adv-x="497" 
d="M226 593c-28.667 0 -56.6689 -4 -84.002 -12s-51.666 -17.667 -72.999 -29l-27 86c22.667 12 50 22.833 82 32.5s67 14.5 105 14.5c36 0 67.333 -4.16699 94 -12.5s48.834 -20 66.501 -35s30.834 -33.167 39.501 -54.5s13 -44.666 13 -69.999s-4.16699 -47.5 -12.5 -66.5
s-18.833 -36.5 -31.5 -52.5s-26.5 -30.833 -41.5 -44.5s-28.833 -27.167 -41.5 -40.5s-23.167 -27.5 -31.5 -42.5s-12.5 -31.833 -12.5 -50.5s2.33301 -34.667 7 -48h-90c-4 6.66699 -7.33301 14.5 -10 23.5s-4 18.833 -4 29.5c0 21.333 4 40.333 12 57
s17.833 32.167 29.5 46.5s24.5 28.166 38.5 41.499s26.833 27 38.5 41s21.5 28.833 29.5 44.5s12 33.5 12 53.5c0 11.333 -2 22.333 -6 33s-10.333 20 -19 28s-19.834 14.5 -33.501 19.5s-30.167 7.5 -49.5 7.5zM161.998 57c0 18.667 6.16699 34.834 18.5 48.501
s29.833 20.5 52.5 20.5c23.333 0 41 -6.83301 53 -20.5s18 -29.834 18 -48.501s-6 -34.834 -18 -48.501s-29.667 -20.5 -53 -20.5c-22.667 0 -40.167 6.83301 -52.5 20.5s-18.5 29.834 -18.5 48.501z" />
    <glyph glyph-name="at" unicode="@" horiz-adv-x="829" 
d="M504 450c-19.333 8.66699 -44.001 13 -74.001 13c-42 0 -72.333 -11.333 -91 -34s-28 -55 -28 -97c0 -46 8.83301 -79 26.5 -99s38.834 -30 63.501 -30c30 0 54.667 12.333 74 37s29 58 29 100v110zM121.999 326c0 -46.667 7.66797 -87.3311 23.001 -121.998
s36 -63.667 62 -87s56 -40.833 90 -52.5s69.333 -17.5 106 -17.5c29.333 0 57.5 4.16699 84.5 12.5s51.833 19.166 74.5 32.499l26 -54c-22.667 -14 -49.5 -25.667 -80.5 -35s-67.5 -14 -109.5 -14c-46 0 -89.5 7.16699 -130.5 21.5s-76.833 35.5 -107.5 63.5
s-55 62.833 -73 104.5s-27 89.834 -27 144.501c0 48.667 8.33301 95 25 139s40.667 82.5 72 115.5s69.666 59.167 114.999 78.5s96.666 29 153.999 29c52 0 99.167 -8.16699 141.5 -24.5s78.5 -39.333 108.5 -69s53 -65 69 -106s24 -86.167 24 -135.5
c0 -38 -3.83301 -71 -11.5 -99s-18 -51.167 -31 -69.5s-27.833 -31.833 -44.5 -40.5s-34.334 -13 -53.001 -13c-28 0 -51 9.5 -69 28.5s-28.667 41.167 -32 66.5c-11.333 -26 -29.166 -48 -53.499 -66s-52.5 -27 -84.5 -27c-49.333 0 -88.666 17.5 -117.999 52.5
s-44 83.833 -44 146.5c0 26.667 3.33301 52.667 10 78s17.667 47.5 33 66.5s36 34.333 62 46s58.667 17.5 98 17.5c30 0 58.333 -3.5 85 -10.5s51.667 -16.833 75 -29.5v-238c0 -18.667 3.16699 -34.834 9.5 -48.501s17.5 -20.5 33.5 -20.5c16.667 0 32.334 13 47.001 39
s22 68 22 126c0 37.333 -5.66699 72.5 -17 105.5s-28.5 61.667 -51.5 86s-51.833 43.666 -86.5 57.999s-75.334 21.5 -122.001 21.5c-48 0 -90.833 -7.83301 -128.5 -23.5s-69.5 -37 -95.5 -64s-45.833 -58.833 -59.5 -95.5s-20.5 -75.667 -20.5 -117z" />
    <glyph glyph-name="A" unicode="A" horiz-adv-x="626" 
d="M614 0h-112l-59 166h-261l-58 -166h-112l246 674h110zM360 402l-46 160h-2l-46 -160l-50 -143h194z" />
    <glyph glyph-name="B" unicode="B" horiz-adv-x="624" 
d="M554 493c0 -18 -2.99805 -34.666 -8.99805 -49.999s-13.833 -28.833 -23.5 -40.5s-20.334 -21.5 -32.001 -29.5s-22.834 -14 -33.501 -18c16 -4 31.667 -10.167 47 -18.5s28.833 -19 40.5 -32s21 -28.667 28 -47s10.5 -38.833 10.5 -61.5c0 -28 -4.83301 -54 -14.5 -78
s-24.667 -44.833 -45 -62.5s-46 -31.334 -77 -41.001s-67.833 -14.5 -110.5 -14.5h-260v674h262c36.667 0 68.5 -4.33301 95.5 -13s49.5 -21 67.5 -37s31.5 -35.167 40.5 -57.5s13.5 -46.833 13.5 -73.5zM334.002 92.001c44.667 0 79.5 9.5 104.5 28.5s37.5 45.5 37.5 79.5
c0 36 -13 62 -39 78s-61 24 -105 24h-151v-210h153zM338.002 394.001c30.667 0 57 8.16699 79 24.5s33 40.5 33 72.5c0 29.333 -10.167 51.833 -30.5 67.5s-47.833 23.5 -82.5 23.5h-156v-188h157z" />
    <glyph glyph-name="C" unicode="C" horiz-adv-x="575" 
d="M361 -11c-53.333 0 -100.167 8.66211 -140.5 25.9951s-73.833 41.333 -100.5 72s-46.667 67.334 -60 110.001s-20 89.334 -20 140.001c0 50 7 96.167 21 138.5s34.667 79 62 110s60.833 55.333 100.5 73s85.5 26.5 137.5 26.5c36 0 68 -3.16699 96 -9.5
s55 -16.166 81 -29.499l-27 -85c-44 21.333 -92 32 -144 32c-70.667 0 -124.834 -22.333 -162.501 -67s-56.5 -107.667 -56.5 -189c0 -80.667 18.667 -143.5 56 -188.5s91.666 -67.5 162.999 -67.5c23.333 0 48 2.83301 74 8.5s51.333 14.834 76 27.501l26 -86
c-25.333 -13.333 -53.166 -23.666 -83.499 -30.999s-63.166 -11 -98.499 -11z" />
    <glyph glyph-name="D" unicode="D" horiz-adv-x="658" 
d="M616 339c0 -111.333 -28.5 -195.667 -85.5 -253s-141.167 -86 -252.5 -86h-203v674h203c111.333 0 195.5 -28.333 252.5 -85s85.5 -140 85.5 -250zM508 338.999c0 42.667 -5.16699 79.1689 -15.5 109.502s-25.333 55.166 -45 74.499s-43.667 33.333 -72 42
s-60.833 13 -97.5 13h-95v-482h95c36.667 0 69.167 4.66699 97.5 14s52.333 23.666 72 42.999s34.667 44.333 45 75s15.5 67.667 15.5 111z" />
    <glyph glyph-name="E" unicode="E" horiz-adv-x="550" 
d="M75 674h425v-95h-319v-186h299v-94h-299v-205h325v-94h-431v674z" />
    <glyph glyph-name="F" unicode="F" horiz-adv-x="528" 
d="M75 674h417v-95h-311v-194h291v-96h-291v-289h-106v674z" />
    <glyph glyph-name="G" unicode="G" horiz-adv-x="650" 
d="M382 593c-72 0 -129.002 -21.4971 -171.002 -64.4971s-63 -107.833 -63 -194.5c0 -38 4.66699 -72.5 14 -103.5s22.166 -57.5 38.499 -79.5s35.833 -39.167 58.5 -51.5s47.667 -18.5 75 -18.5c20.667 0 40 3.16699 58 9.5s33.5 15.666 46.5 27.999
s23.167 28.166 30.5 47.499s11 42 11 68v54h-132v93h237v-381h-91l-14 79c-13.333 -24.667 -33 -45.834 -59 -63.501s-59.667 -26.5 -101 -26.5c-43.333 0 -82.166 8.33301 -116.499 25s-63.666 40 -87.999 70s-43 66.167 -56 108.5s-19.5 89.5 -19.5 141.5
c0 54.667 7.66699 103.667 23 147s37.5 80.166 66.5 110.499s64.333 53.5 106 69.5s88.834 24 141.501 24c36 0 68.5 -3.66699 97.5 -11s56.5 -17.666 82.5 -30.999l-27 -85c-21.333 10.667 -44.833 19.167 -70.5 25.5s-51.5 9.5 -77.5 9.5z" />
    <glyph glyph-name="H" unicode="H" horiz-adv-x="667" 
d="M484 298h-301v-298h-108v674h108v-280h301v280h108v-674h-108v298z" />
    <glyph glyph-name="I" unicode="I" horiz-adv-x="262" 
d="M185 0h-108v674h108v-674z" />
    <glyph glyph-name="J" unicode="J" horiz-adv-x="392" 
d="M320 197c0 -72 -15.498 -124.5 -46.498 -157.5s-76.5 -49.5 -136.5 -49.5c-26 0 -50.333 3 -73 9s-41.334 13.667 -56.001 23l26 89c12.667 -7.33301 27.167 -13.5 43.5 -18.5s34.166 -7.5 53.499 -7.5c26 0 46 8.33301 60 25s21 45.667 21 87v477h108v-477z" />
    <glyph glyph-name="K" unicode="K" horiz-adv-x="612" 
d="M320 358l292 -358h-128l-263 325v62l258 287h124zM183 0h-108v674h108v-674z" />
    <glyph glyph-name="L" unicode="L" horiz-adv-x="517" 
d="M75 674h108v-578h308v-96h-416v674z" />
    <glyph glyph-name="M" unicode="M" horiz-adv-x="801" 
d="M347 106l-124.999 285c-11.333 25.333 -21 50.833 -29 76.5s-15.667 52.5 -23 80.5h-3l6 -48c2 -16.667 3.5 -33 4.5 -49s1.83301 -31 2.5 -45s1 -26 1 -36v-370h-106v674h125l147 -335c13.333 -29.333 24.333 -57.166 33 -83.499s15 -49.166 19 -68.499h2
c4.66699 19.333 11.167 42.166 19.5 68.499s19.166 54.166 32.499 83.499l148 335h125v-674h-106v370c0 10 0.333008 22 1 36s1.5 29 2.5 45s2.33301 32.333 4 49s3.5 32.667 5.5 48h-2c-7.33301 -28 -15 -54.833 -23 -80.5s-17.667 -51.167 -29 -76.5l-125 -285h-107z" />
    <glyph glyph-name="N" unicode="N" horiz-adv-x="674" 
d="M491 674l107.999 0.000976562v-674h-111l-249 408c-14 22.667 -26.667 46.667 -38 72s-20.666 48.333 -27.999 69h-3c4.66699 -25.333 8 -52.166 10 -80.499s3 -54.833 3 -79.5v-389h-108v674h116l244 -409c13.333 -22.667 25.833 -46.5 37.5 -71.5
s21.167 -48.167 28.5 -69.5h2c-4 25.333 -7 52.166 -9 80.499s-3 55.166 -3 80.499v389z" />
    <glyph glyph-name="O" unicode="O" horiz-adv-x="696" 
d="M348 685c52 0 97.333 -8.83301 136 -26.5s70.834 -42 96.501 -73s44.667 -67.833 57 -110.5s18.5 -88.667 18.5 -138s-6.16699 -95.333 -18.5 -138s-31.333 -79.5 -57 -110.5s-57.834 -55.333 -96.501 -73s-84 -26.5 -136 -26.5s-97.333 8.83301 -136 26.5
s-70.834 42 -96.501 73s-44.667 67.833 -57 110.5s-18.5 88.667 -18.5 138s6.16699 95.333 18.5 138s31.333 79.5 57 110.5s57.834 55.333 96.501 73s84 26.5 136 26.5zM348 76c66.667 0 116.667 22.833 150 68.5s50 109.834 50 192.501s-16.667 146.834 -50 192.501
s-83.333 68.5 -150 68.5s-116.667 -22.833 -150 -68.5s-50 -109.834 -50 -192.501s16.667 -146.834 50 -192.501s83.333 -68.5 150 -68.5z" />
    <glyph glyph-name="P" unicode="P" horiz-adv-x="574" 
d="M536 460c0 -30.667 -5.5 -59.167 -16.5 -85.5s-26.667 -49.333 -47 -69s-45 -35.167 -74 -46.5s-61.5 -17 -97.5 -17h-118v-242h-108v674h232c36 0 68.167 -5.5 96.5 -16.5s52.333 -26.167 72 -45.5s34.667 -42 45 -68s15.5 -54 15.5 -84zM428 460
c0 36 -10.333 64.667 -31 86s-50.667 32 -90 32h-124v-240h118c40 0 71.167 10.833 93.5 32.5s33.5 51.5 33.5 89.5z" />
    <glyph glyph-name="Q" unicode="Q" horiz-adv-x="696" 
d="M348 685c52 0 97.332 -8.83398 135.999 -26.501s70.834 -42 96.501 -73s44.667 -67.833 57 -110.5s18.5 -88.667 18.5 -138c0 -43.333 -4.83301 -84 -14.5 -122s-24.167 -72 -43.5 -102s-43.833 -55 -73.5 -75s-64.5 -34 -104.5 -42
c-5.33301 -13.333 -13.333 -26.333 -24 -39s-22.334 -22 -35.001 -28h192v-85h-352v85h17c28.667 0 50.834 6 66.501 18s26.5 26.333 32.5 43c-47.333 3.33301 -88.333 14.5 -123 33.5s-63.334 43.833 -86.001 74.5s-39.667 66.334 -51 107.001s-17 84.667 -17 132
c0 49.333 6.16699 95.333 18.5 138s31.333 79.5 57 110.5s57.834 55.333 96.501 73s84 26.5 136 26.5zM347.999 75.999c66.667 0 116.667 22.833 150 68.5s50 109.834 50 192.501s-16.667 146.834 -50 192.501s-83.333 68.5 -150 68.5s-116.667 -22.833 -150 -68.5
s-50 -109.834 -50 -192.501s16.667 -146.834 50 -192.501s83.333 -68.5 150 -68.5z" />
    <glyph glyph-name="R" unicode="R" horiz-adv-x="595" 
d="M554 468c0 -46.667 -13.332 -87.166 -39.999 -121.499s-62.334 -58.5 -107.001 -72.5l159 -274h-116l-150 258h-117v-258h-108v674h247c36.667 0 69.5 -5.33301 98.5 -16s53.333 -25.334 73 -44.001s34.667 -40.5 45 -65.5s15.5 -51.833 15.5 -80.5zM446.001 468.001
c0 33.333 -10.333 59.999 -31 79.999s-51.667 30 -93 30h-139v-224h136c40 0 71.167 10.333 93.5 31s33.5 48.334 33.5 83.001z" />
    <glyph glyph-name="S" unicode="S" horiz-adv-x="534" 
d="M241 -11c-44 0 -81.999 4.00488 -113.999 12.0049s-60.333 18.667 -85 32l27 87c21.333 -11.333 46.5 -20.5 75.5 -27.5s59.5 -10.5 91.5 -10.5c42.667 0 78.167 8.16699 106.5 24.5s42.5 42.166 42.5 77.499c0 17.333 -4.16699 32.166 -12.5 44.499
s-19.166 22.833 -32.499 31.5s-29 16.334 -47 23.001s-36.333 13 -55 19c-20.667 6.66699 -42.334 14.667 -65.001 24s-43.5 21.5 -62.5 36.5s-34.833 33.667 -47.5 56s-19 50.166 -19 83.499c0 26 4.5 50 13.5 72s22.833 41.333 41.5 58s42.667 29.667 72 39
s64.666 14 105.999 14c36 0 68.667 -3.33301 98 -10s56.666 -16.667 81.999 -30l-27 -84c-22.667 10.667 -46.834 18.5 -72.501 23.5s-51.167 7.5 -76.5 7.5c-46 0 -79.5 -8.33301 -100.5 -25s-31.5 -37.667 -31.5 -63c0 -17.333 3.83301 -31.833 11.5 -43.5
s17.834 -21.834 30.501 -30.501s27.334 -16.167 44.001 -22.5s34 -12.5 52 -18.5c23.333 -8 47 -17.167 71 -27.5s45.833 -23.333 65.5 -39s35.667 -34.834 48 -57.501s18.5 -50.334 18.5 -83.001c0 -33.333 -6.16699 -62 -18.5 -86s-29.5 -44 -51.5 -60
s-48.333 -27.833 -79 -35.5s-64 -11.5 -100 -11.5z" />
    <glyph glyph-name="T" unicode="T" horiz-adv-x="517" 
d="M312 0h-108v579l-198 -1v96h505v-96l-199 1v-579z" />
    <glyph glyph-name="U" unicode="U" horiz-adv-x="672" 
d="M336 -11c-40.667 0 -77.3281 5.66699 -109.995 17s-60.334 28.666 -83.001 51.999s-40.167 52.833 -52.5 88.5s-18.5 77.5 -18.5 125.5v402h108v-403c0 -63.333 13.667 -110.666 41 -141.999s65.666 -47 114.999 -47s87.666 15.667 114.999 47s41 78.666 41 141.999v403
h108v-402c0 -48 -6.16699 -89.833 -18.5 -125.5s-29.833 -65.167 -52.5 -88.5s-50.334 -40.666 -83.001 -51.999s-69.334 -17 -110.001 -17z" />
    <glyph glyph-name="V" unicode="V" horiz-adv-x="616" 
d="M252 0l-240 674h113l131 -384l51 -186h2l51 186l131 384h113l-240 -674h-112z" />
    <glyph glyph-name="W" unicode="W" horiz-adv-x="892" 
d="M501 674l107.002 -350c10 -32.667 18.5 -67.167 25.5 -103.5s13.167 -75.833 18.5 -118.5h2c1.33301 21.333 2.83301 41.666 4.5 60.999s3.66699 38.333 6 57s5.16602 37.5 8.49902 56.5s7.33301 38.833 12 59.5l74 338h109l-156 -674h-109l-117 393
c-8.66699 28 -16.167 57.667 -22.5 89s-11.833 63.333 -16.5 96h-2c-4.66699 -32.667 -10.167 -64.667 -16.5 -96s-13.833 -61 -22.5 -89l-117 -393h-109l-156 674h109l74 -338c4.66699 -20.667 8.66699 -40.5 12 -59.5s6.16602 -37.833 8.49902 -56.5
s4.33301 -37.667 6 -57s3.16699 -39.666 4.5 -60.999h2c5.33301 42.667 11.5 82.167 18.5 118.5s15.5 70.833 25.5 103.5l107 350h110z" />
    <glyph glyph-name="X" unicode="X" horiz-adv-x="619" 
d="M370 350l235 -350h-119l-176 274h-2l-175 -274h-119l235 350l-218 324h121l156 -248h2l157 248h121z" />
    <glyph glyph-name="Y" unicode="Y" horiz-adv-x="582" 
d="M291 379l163 295h116l-225 -387v-287h-108v287l-225 387h116l163 -295v0z" />
    <glyph glyph-name="Z" unicode="Z" horiz-adv-x="553" 
d="M38 70l334 510l-309 -1v95h443v-70l-333 -510l338 1v-95h-473v70z" />
    <glyph glyph-name="bracketleft" unicode="[" horiz-adv-x="290" 
d="M75 684h200v-75h-103v-652h103v-75h-200v802z" />
    <glyph glyph-name="backslash" unicode="\" horiz-adv-x="384" 
d="M5 674h90l284 -714h-91z" />
    <glyph glyph-name="bracketright" unicode="]" horiz-adv-x="290" 
d="M215 -118h-200v75h103v652h-103v75h200v-802z" />
    <glyph glyph-name="asciicircum" unicode="^" horiz-adv-x="545" 
d="M510 276h-112l-126 287l-125 -287h-112l193 398h89z" />
    <glyph glyph-name="underscore" unicode="_" horiz-adv-x="441" 
d="M441 -61v-85h-441v85h441z" />
    <glyph glyph-name="grave" unicode="`" horiz-adv-x="316" 
d="M191 584l-30 -45l-187 102l57 79z" />
    <glyph glyph-name="a" unicode="a" horiz-adv-x="508" 
d="M338 229h-84.998c-36.667 0 -64.834 -8 -84.501 -24s-29.5 -38.333 -29.5 -67c0 -21.333 6.5 -38.333 19.5 -51s29.5 -19 49.5 -19c19.333 0 37 3.66699 53 11s29.667 17 41 29s20.166 25.833 26.499 41.5s9.5 31.5 9.5 47.5v32zM38.002 136
c0 58 19.335 100.169 58.002 126.502s91.334 39.5 158.001 39.5h84v16c0 32 -8.66699 55.5 -26 70.5s-41.666 22.5 -72.999 22.5c-28 0 -54 -3.33301 -78 -10s-46.667 -15.667 -68 -27l-24 74c19.333 12 44.666 22.667 75.999 32s65.666 14 102.999 14
c65.333 0 113.666 -16 144.999 -48s47 -76 47 -132v-314h-87l-15 72c-6.66699 -10.667 -14.167 -21 -22.5 -31s-18.333 -18.833 -30 -26.5s-25.5 -13.834 -41.5 -18.501s-35 -7 -57 -7c-20.667 0 -40 3.16699 -58 9.5s-33.833 15.833 -47.5 28.5
s-24.334 28.167 -32.001 46.5s-11.5 39.166 -11.5 62.499z" />
    <glyph glyph-name="b" unicode="b" horiz-adv-x="565" 
d="M178 232c0 -23.333 3.16504 -44.501 9.49805 -63.501s15 -35.167 26 -48.5s24 -23.666 39 -30.999s30.833 -11 47.5 -11c16 0 31.333 3 46 9s27.334 15.667 38.001 29s19.167 31 25.5 53s9.5 48.667 9.5 80c0 50 -10 88.5 -30 115.5s-47 40.5 -81 40.5
c-26.667 0 -51.167 -7 -73.5 -21s-41.166 -31 -56.499 -51v-101zM71.998 673.999l106.003 0.00195312v-259c6.66699 8.66699 15.167 17.667 25.5 27s22.166 17.833 35.499 25.5s28.166 14 44.499 19s33.833 7.5 52.5 7.5c32.667 0 60.834 -7 84.501 -21
s43.167 -32.333 58.5 -55s26.833 -48.834 34.5 -78.501s11.5 -59.834 11.5 -90.501c0 -42 -5 -79.167 -15 -111.5s-24 -59.5 -42 -81.5s-39.167 -38.667 -63.5 -50s-50.5 -17 -78.5 -17c-36.667 0 -67.334 8.5 -92.001 25.5s-43.334 36.167 -56.001 57.5l-15 -72h-91v674z
" />
    <glyph glyph-name="c" unicode="c" horiz-adv-x="463" 
d="M284 72c21.333 0 42.668 2.49902 64.001 7.49902s41.666 12.833 60.999 23.5l24 -76c-44.667 -25.333 -96.334 -38 -155.001 -38c-40 0 -75 6.5 -105 19.5s-55 31 -75 54s-35 49.833 -45 80.5s-15 63.667 -15 99c0 34.667 5 67.334 15 98.001s25 57.5 45 80.5
s45.167 41 75.5 54s66.166 19.5 107.499 19.5c26.667 0 52.334 -2.83301 77.001 -8.5s47.667 -14.5 69 -26.5l-23 -76c-36 18.667 -75.667 28 -119 28c-49.333 0 -85.166 -15.667 -107.499 -47s-33.5 -72 -33.5 -122c0 -50.667 11.333 -91.667 34 -123s58 -47 106 -47z" />
    <glyph glyph-name="d" unicode="d" horiz-adv-x="565" 
d="M387 335c-14 21.333 -30.832 38.334 -50.499 51.001s-41.834 19 -66.501 19c-36 0 -65.667 -13.667 -89 -41s-35 -68 -35 -122c0 -30 3.16699 -55.333 9.5 -76s15 -37.5 26 -50.5s23.667 -22.5 38 -28.5s29.5 -9 45.5 -9c16.667 0 32.5 3.66699 47.5 11
s28 17.666 39 30.999s19.667 29.5 26 48.5s9.5 40.167 9.5 63.5v103zM493.001 0.000976562h-90.999l-15 72c-12.667 -21.333 -31.167 -40.5 -55.5 -57.5s-53.833 -25.5 -88.5 -25.5c-29.333 0 -56.333 5.66699 -81 17s-46 27.833 -64 49.5s-32.167 48.167 -42.5 79.5
s-15.5 67 -15.5 107c0 34 4.5 66.167 13.5 96.5s22.167 57 39.5 80s38.666 41.333 63.999 55s54.666 20.5 87.999 20.5c18 0 34.333 -2.33301 49 -7s27.834 -10.667 39.501 -18s22 -15.5 31 -24.5s16.5 -18.167 22.5 -27.5v257h106v-674z" />
    <glyph glyph-name="e" unicode="e" horiz-adv-x="505" 
d="M145 201c6 -44 21.833 -76.501 47.5 -97.501s58.5 -31.5 98.5 -31.5c21.333 0 42.666 2.33301 63.999 7s41.666 11.667 60.999 21l24 -76c-43.333 -23.333 -96.666 -35 -159.999 -35c-40 0 -75 5.83301 -105 17.5s-55 28.5 -75 50.5s-35 48.667 -45 80
s-15 66.333 -15 105c0 34.667 4.33301 67.334 13 98.001s22.167 57.5 40.5 80.5s41.833 41 70.5 54s63 19.5 103 19.5c32.667 0 61.5 -5 86.5 -15s46 -24 63 -42s29.667 -39.667 38 -65s12.5 -53 12.5 -83c0 -16 -1.16699 -31.667 -3.5 -47s-5.16602 -29 -8.49902 -41h-310z
M268 414.999c-40 0 -70.168 -13.333 -90.501 -40s-32.166 -62 -35.499 -106h226v18c0 40.667 -7.83301 72.167 -23.5 94.5s-41.167 33.5 -76.5 33.5z" />
    <glyph glyph-name="f" unicode="f" horiz-adv-x="346" 
d="M266 605c-30.667 0 -51.167 -8.33301 -61.5 -25s-15.5 -40 -15.5 -70v-27h136v-79h-136v-404h-103v404h-74v79h74v28c0 54 12.5 96.5 37.5 127.5s66.5 46.5 124.5 46.5c23.333 0 43.5 -2.33301 60.5 -7s32.833 -11 47.5 -19l-22 -69c-22 10 -44.667 15 -68 15z" />
    <glyph glyph-name="g" unicode="g" horiz-adv-x="563" 
d="M387 332c-12.667 20.667 -29.167 38.001 -49.5 52.001s-42.833 21 -67.5 21c-36 0 -65.667 -13.167 -89 -39.5s-35 -65.5 -35 -117.5c0 -29.333 3.16699 -54 9.5 -74s15 -36.333 26 -49s23.667 -21.834 38 -27.501s29.5 -8.5 45.5 -8.5c36 0 65.333 13.333 88 40
s34 63.667 34 111v92zM388 83.001c-12.667 -21.333 -31.3291 -40.5 -55.9961 -57.5s-54.334 -25.5 -89.001 -25.5c-29.333 0 -56.333 5.66699 -81 17s-46 27.5 -64 48.5s-32.167 46.833 -42.5 77.5s-15.5 65.334 -15.5 104.001c0 32.667 4.5 64 13.5 94
s22.167 56.333 39.5 79s38.666 40.667 63.999 54s54.666 20 87.999 20c18 0 34.333 -2.33301 49 -7s27.834 -10.834 39.501 -18.501s22 -16.167 31 -25.5s16.5 -18.666 22.5 -27.999l14 68h92v-443c0 -44 -5.83301 -81.333 -17.5 -112s-28 -55.667 -49 -75
s-45.833 -33.333 -74.5 -42s-59.667 -13 -93 -13c-36.667 0 -71.5 4.66699 -104.5 14s-59.833 20.666 -80.5 33.999l27 83c21.333 -13.333 44.666 -23.333 69.999 -30s50.666 -10 75.999 -10c20.667 0 39.5 2.33301 56.5 7s31.833 12.5 44.5 23.5s22.5 26 29.5 45
s10.5 43.167 10.5 72.5v46z" />
    <glyph glyph-name="h" unicode="h" horiz-adv-x="571" 
d="M178 0l-106.001 0.00292969v674h106v-257c6.66699 8 15.334 16.667 26.001 26s23 17.666 37 24.999s29.5 13.5 46.5 18.5s35.5 7.5 55.5 7.5c48 0 86.667 -16.833 116 -50.5s44 -80.834 44 -141.501v-302h-106v300c0 33.333 -7 59.166 -21 77.499s-35.333 27.5 -64 27.5
c-28 0 -53.5 -6.83301 -76.5 -20.5s-42.167 -30.167 -57.5 -49.5v-335z" />
    <glyph glyph-name="i" unicode="i" horiz-adv-x="254" 
d="M180 0h-106v483h106v-483zM127 558c-21.333 0 -37.833 6.33301 -49.5 19s-17.5 27.667 -17.5 45s5.83301 32.166 17.5 44.499s28.167 18.5 49.5 18.5s37.833 -6.16699 49.5 -18.5s17.5 -27.166 17.5 -44.499s-5.83301 -32.333 -17.5 -45s-28.167 -19 -49.5 -19z" />
    <glyph glyph-name="j" unicode="j" horiz-adv-x="254" 
d="M180 -26c0 -57.333 -10.833 -101.167 -32.5 -131.5s-58.5 -45.5 -110.5 -45.5c-20.667 0 -39 2.33301 -55 7s-29.667 10.667 -41 18l24 78c18 -8.66699 37 -13 57 -13c19.333 0 32.833 6.16699 40.5 18.5s11.5 33.5 11.5 63.5v514h106v-509zM127 557.999
c-21.333 0 -37.833 6.33301 -49.5 19s-17.5 27.667 -17.5 45s5.83301 32.166 17.5 44.499s28.167 18.5 49.5 18.5s37.833 -6.16699 49.5 -18.5s17.5 -27.166 17.5 -44.499s-5.83301 -32.333 -17.5 -45s-28.167 -19 -49.5 -19z" />
    <glyph glyph-name="k" unicode="k" horiz-adv-x="514" 
d="M512 0h-118l-186 243v50l175 190h122l-199 -215zM178 0h-106v676h106v-676z" />
    <glyph glyph-name="l" unicode="l" horiz-adv-x="254" 
d="M180 0h-106v674h106v-674z" />
    <glyph glyph-name="m" unicode="m" horiz-adv-x="808" 
d="M173 0h-102.998v483h89l14 -68c6.66699 8.66699 14.667 17.667 24 27s20.166 17.833 32.499 25.5s26.166 14 41.499 19s32.333 7.5 51 7.5c32 0 58.333 -8 79 -24s35.334 -38.333 44.001 -67c8.66699 12 18.5 23.333 29.5 34s23.167 20.334 36.5 29.001
s27.666 15.5 42.999 20.5s31.666 7.5 48.999 7.5c46 0 80.333 -15.667 103 -47s34 -74 34 -128v-319h-103v313c0 27.333 -4.33301 48.833 -13 64.5s-25.334 23.5 -50.001 23.5c-26 0 -49 -6.83301 -69 -20.5s-36 -30.834 -48 -51.501v-329h-103v313
c0 27.333 -4.16699 48.833 -12.5 64.5s-24.833 23.5 -49.5 23.5c-25.333 0 -48.666 -6.33301 -69.999 -19s-37.666 -29 -48.999 -49v-333z" />
    <glyph glyph-name="n" unicode="n" horiz-adv-x="568" 
d="M176 0l-106.002 0.00195312v483h92l14 -68c6.66699 8.66699 15.334 17.667 26.001 27s23 17.833 37 25.5s29.333 14 46 19s34.667 7.5 54 7.5c50 0 89.333 -16.833 118 -50.5s43 -80.834 43 -141.501v-302h-106v300c0 33.333 -6.83301 59.166 -20.5 77.499
s-34.5 27.5 -62.5 27.5s-53.667 -7 -77 -21s-42.666 -31 -57.999 -51v-333z" />
    <glyph glyph-name="o" unicode="o" horiz-adv-x="550" 
d="M146 242c0 -50.667 10.333 -91.667 31 -123s53.334 -47 98.001 -47s77.5 15.667 98.5 47s31.5 72.333 31.5 123c0 50 -10.5 90.667 -31.5 122s-53.833 47 -98.5 47s-77.334 -15.667 -98.001 -47s-31 -72 -31 -122zM40 242c0 34.667 4.83301 67.334 14.5 98.001
s24.167 57.5 43.5 80.5s43.666 41 72.999 54s64 19.5 104 19.5s74.667 -6.5 104 -19.5s53.833 -31 73.5 -54s34.167 -49.833 43.5 -80.5s14 -63.334 14 -98.001c0 -35.333 -4.66699 -68.333 -14 -99s-23.833 -57.5 -43.5 -80.5s-44.167 -41 -73.5 -54s-64 -19.5 -104 -19.5
s-74.667 6.5 -104 19.5s-53.666 31 -72.999 54s-33.833 49.833 -43.5 80.5s-14.5 63.667 -14.5 99z" />
    <glyph glyph-name="p" unicode="p" horiz-adv-x="566" 
d="M178 232c0 -23.333 3.33105 -44.501 9.99805 -63.501s15.5 -35.167 26.5 -48.5s24 -23.666 39 -30.999s30.833 -11 47.5 -11c16 0 31.167 3 45.5 9s27 15.667 38 29s19.667 31 26 53s9.5 48.667 9.5 80c0 50 -10 88.5 -30 115.5s-47 40.5 -81 40.5
c-27.333 0 -52.166 -7 -74.499 -21s-41.166 -31 -56.499 -51v-101zM71.998 482.999l92 0.00195312l14 -68c6.66699 8.66699 15.167 17.667 25.5 27s22.333 17.833 36 25.5s28.667 14 45 19s33.833 7.5 52.5 7.5c32 0 60 -7 84 -21s43.667 -32.333 59 -55
s26.833 -48.834 34.5 -78.501s11.5 -59.834 11.5 -90.501c0 -42 -5 -79.167 -15 -111.5s-24 -59.5 -42 -81.5s-39.167 -38.667 -63.5 -50s-50.833 -17 -79.5 -17c-36 0 -66.333 8.5 -91 25.5s-43.667 36.167 -57 57.5v-263h-106v674z" />
    <glyph glyph-name="q" unicode="q" horiz-adv-x="565" 
d="M387 332c-13.333 21.333 -29.667 38.834 -49 52.501s-42 20.5 -68 20.5c-36 0 -65.667 -13.667 -89 -41s-35 -68 -35 -122c0 -30 3.16699 -55.333 9.5 -76s15 -37.5 26 -50.5s23.667 -22.5 38 -28.5s29.5 -9 45.5 -9c16.667 0 32.5 3.66699 47.5 11s28 17.666 39 30.999
s19.667 29.5 26 48.5s9.5 40.167 9.5 63.5v100zM492.999 -190.999h-105.999v263c-12.667 -21.333 -31.167 -40.5 -55.5 -57.5s-53.833 -25.5 -88.5 -25.5c-29.333 0 -56.333 5.66699 -81 17s-46 27.833 -64 49.5s-32.167 48.167 -42.5 79.5s-15.5 67 -15.5 107
c0 34 4.5 66.167 13.5 96.5s22.167 57 39.5 80s38.666 41.333 63.999 55s54.666 20.5 87.999 20.5c18 0 34.333 -2.33301 49 -7s27.834 -10.834 39.501 -18.501s22 -16.167 31 -25.5s16.5 -18.666 22.5 -27.999l14 68h92v-674z" />
    <glyph glyph-name="r" unicode="r" horiz-adv-x="379" 
d="M176 406c6 10 12.8311 20.333 20.498 31s16.5 20.167 26.5 28.5s21.5 15.166 34.5 20.499s27.5 8 43.5 8c18 0 32.667 -2.66699 44 -8s19.333 -9.66602 24 -12.999l-26 -100c-15.333 13.333 -35.666 20 -60.999 20c-23.333 0 -44.166 -5.5 -62.499 -16.5
s-32.833 -27.5 -43.5 -49.5v-327h-106v483h90z" />
    <glyph glyph-name="s" unicode="s" horiz-adv-x="439" 
d="M200 71c34 0 58.168 5.66797 72.501 17.001s21.5 25.666 21.5 42.999c0 22 -9.83301 38.667 -29.5 50s-44.167 21.333 -73.5 30c-21.333 6 -41.166 13 -59.499 21s-34 17.833 -47 29.5s-23.167 25.334 -30.5 41.001s-11 34.5 -11 56.5c0 42 16.333 75 49 99
s77.334 36 134.001 36c28 0 55.167 -2.66699 81.5 -8s50.833 -13.666 73.5 -24.999l-24 -79c-37.333 19.333 -78.666 29 -123.999 29c-30.667 0 -52.834 -4.66699 -66.501 -14s-20.5 -22 -20.5 -38c0 -18 7.33301 -31.667 22 -41s34.667 -18 60 -26
c27.333 -9.33301 51.5 -18.833 72.5 -28.5s38.667 -20.834 53 -33.501s25.166 -27.334 32.499 -44.001s11 -36 11 -58c0 -40.667 -15.833 -74 -47.5 -100s-79.834 -39 -144.501 -39c-32 0 -62.333 2.83301 -91 8.5s-53.334 14.167 -74.001 25.5l24 79
c18 -9.33301 38.833 -16.833 62.5 -22.5s48.167 -8.5 73.5 -8.5z" />
    <glyph glyph-name="t" unicode="t" horiz-adv-x="361" 
d="M189 141c0 -22 3.83203 -38.667 11.499 -50s21.834 -17 42.501 -17c26 0 49.667 6.66699 71 20l23 -77c-15.333 -9.33301 -31.833 -16.333 -49.5 -21s-38.5 -7 -62.5 -7c-48 0 -83.167 12.167 -105.5 36.5s-33.5 62.833 -33.5 115.5v263h-74v79h75l25 138h77v-138h143
v-79h-143v-263z" />
    <glyph glyph-name="u" unicode="u" horiz-adv-x="561" 
d="M385 483l106.002 -0.000976562v-483h-91l-15 72c-6.66699 -9.33301 -14.834 -18.833 -24.501 -28.5s-21 -18.5 -34 -26.5s-27.5 -14.667 -43.5 -20s-33.667 -8 -53 -8c-50 0 -89.5 15 -118.5 45s-43.5 77.333 -43.5 142v307h105v-305c0 -34 7.16699 -59.333 21.5 -76
s34.5 -25 60.5 -25c28.667 0 53.667 7.83301 75 23.5s39.666 33.834 54.999 54.501v328z" />
    <glyph glyph-name="v" unicode="v" horiz-adv-x="480" 
d="M185 0l-173 483h107l76 -222l44 -168h2l43 168l77 222h107l-173 -483h-110z" />
    <glyph glyph-name="w" unicode="w" horiz-adv-x="697" 
d="M470 250c6.66699 -22 12.3311 -45.167 16.998 -69.5s9.66699 -52.833 15 -85.5h3c2 34 4.66699 66.167 8 96.5s7 54.166 11 71.499l47 220h106l-115 -483h-106l-74 235c-8.66699 26 -15.5 52 -20.5 78s-9.16699 52.667 -12.5 80h-2c-3.33301 -27.333 -7.5 -54 -12.5 -80
s-11.5 -52 -19.5 -78l-75 -235h-106l-114 483h105l48 -220c3.33301 -17.333 6.83301 -41.166 10.5 -71.499s6.5 -62.5 8.5 -96.5h3c4.66699 32.667 9.33398 61.167 14.001 85.5s10.334 47.5 17.001 69.5l72 233h101z" />
    <glyph glyph-name="x" unicode="x" horiz-adv-x="499" 
d="M249 183h-2l-117 -183h-112l174 250l-163 233h112l106 -166h2l105 166h112l-162 -233l177 -250h-112z" />
    <glyph glyph-name="y" unicode="y" horiz-adv-x="560" 
d="M385 83c-6 -9.33301 -13.833 -19 -23.5 -29s-21 -19 -34 -27s-27.5 -14.5 -43.5 -19.5s-33.667 -7.5 -53 -7.5c-50 0 -89.667 15 -119 45s-44 77.333 -44 142v296h105v-294c0 -34 7.33301 -59.333 22 -76s35 -25 61 -25c28.667 0 53.5 7.83301 74.5 23.5
s38.833 33.834 53.5 54.501v317h106v-443c0 -42 -5.66699 -78.333 -17 -109s-27.166 -55.834 -47.499 -75.501s-44.666 -34.167 -72.999 -43.5s-59.833 -14 -94.5 -14s-67.834 4.33301 -99.501 13s-57.5 19.667 -77.5 33l26 83c43.333 -26.667 90 -40 140 -40
c43.333 0 77.166 11 101.499 33s36.5 61 36.5 117v46z" />
    <glyph glyph-name="z" unicode="z" horiz-adv-x="455" 
d="M38 57l242 347h-224v79h349v-57l-242 -347h251v-79h-376v57z" />
    <glyph glyph-name="braceleft" unicode="{" horiz-adv-x="322" 
d="M45 319c30 0 51.667 5.66797 65 17.001s20 29 20 53c0 11.333 -1.16699 23.666 -3.5 36.999s-4.83301 26.833 -7.5 40.5s-5.16699 27.334 -7.5 41.001s-3.5 27.167 -3.5 40.5c0 46 14 80.167 42 102.5s68 33.5 120 33.5h27v-69h-24c-25.333 0 -43 -7 -53 -21
s-15 -34.333 -15 -61c0 -23.333 2.5 -47.333 7.5 -72s7.5 -48.667 7.5 -72c0 -57.333 -25 -92.333 -75 -105v-2c50 -14 75 -49.333 75 -106c0 -23.333 -2.5 -47.333 -7.5 -72s-7.5 -48.667 -7.5 -72c0 -26.667 5 -47 15 -61s27.667 -21 53 -21h24v-68h-27
c-52 0 -92 11.167 -120 33.5s-42 56.166 -42 101.499c0 13.333 1.16699 27 3.5 41s4.83301 27.833 7.5 41.5l7.5 40c2.33301 13 3.5 25.167 3.5 36.5c0 24 -6.66699 41.667 -20 53s-35 17 -65 17v73z" />
    <glyph glyph-name="bar" unicode="|" horiz-adv-x="268" 
d="M85 774h98v-974h-98v974z" />
    <glyph glyph-name="braceright" unicode="}" horiz-adv-x="322" 
d="M277 246c-30 0 -51.667 -5.66895 -65 -17.002s-20 -29 -20 -53c0 -11.333 1.16699 -23.5 3.5 -36.5l7 -40l7 -41.5c2.33301 -14 3.5 -27.667 3.5 -41c0 -45.333 -13.833 -79.166 -41.5 -101.499s-67.834 -33.5 -120.501 -33.5h-26v68h24c25.333 0 43 7 53 21
s15 34.333 15 61c0 23.333 -2.66699 47.333 -8 72s-8 48.667 -8 72c0 56.667 25 92 75 106v2c-50 12.667 -75 47.667 -75 105c0 23.333 2.66699 47.333 8 72s8 48.667 8 72c0 26.667 -5 47 -15 61s-27.667 21 -53 21h-24v69h26c52.667 0 92.834 -11.167 120.501 -33.5
s41.5 -56.5 41.5 -102.5c0 -13.333 -1.16699 -26.833 -3.5 -40.5l-7 -41l-7 -40.5c-2.33301 -13.333 -3.5 -25.666 -3.5 -36.999c0 -24 6.66699 -41.667 20 -53s35 -17 65 -17v-73z" />
    <glyph glyph-name="asciitilde" unicode="~" horiz-adv-x="557" 
d="M372 240c-21.333 0 -40.334 3.99707 -57.001 11.9971s-32.167 16.833 -46.5 26.5s-28.333 18.5 -42 26.5s-28.5 12 -44.5 12c-21.333 0 -39.333 -6.83301 -54 -20.5s-28 -30.167 -40 -49.5l-50 52c6 12.667 13.333 25.334 22 38.001s19 24.334 31 35.001
s25.833 19.334 41.5 26.001s33.167 10 52.5 10c22 0 41.167 -4 57.5 -12s31.5 -16.667 45.5 -26s27.833 -18 41.5 -26s28.834 -12 45.501 -12c20.667 0 38.5 6.66699 53.5 20s28.5 29.666 40.5 48.999l50 -52c-6 -13.333 -13.667 -26.5 -23 -39.5s-20 -24.667 -32 -35
s-25.667 -18.666 -41 -24.999s-32.333 -9.5 -51 -9.5z" />
    <glyph glyph-name="uni007F" horiz-adv-x="500" 
 />
    <glyph glyph-name="nonbreakingspace" unicode="&#xa0;" 
 />
    <glyph glyph-name="exclamdown" unicode="&#xa1;" horiz-adv-x="262" 
d="M131 491c22.667 0 40.167 -6.66699 52.5 -20s18.5 -29.333 18.5 -48s-6.16699 -34.834 -18.5 -48.501s-29.833 -20.5 -52.5 -20.5s-40.167 6.83301 -52.5 20.5s-18.5 29.834 -18.5 48.501s6.16699 34.667 18.5 48s29.833 20 52.5 20zM186 -34v-160h-110v160l17 323h76z
" />
    <glyph glyph-name="cent" unicode="&#xa2;" horiz-adv-x="580" 
d="M307 -9c-35.333 2.66699 -66.501 11.001 -93.501 25.001s-49.667 32.167 -68 54.5s-32.166 48.166 -41.499 77.499s-14 60.666 -14 93.999c0 32.667 4.5 63.5 13.5 92.5s22.667 54.667 41 77s41 40.5 68 54.5s58.5 22.667 94.5 26v91h60v-91
c45.333 -3.33301 86 -14.666 122 -33.999l-23 -76c-14 7.33301 -29.5 13.333 -46.5 18s-34.5 7.66699 -52.5 9v-337c18 2 36 5.5 54 10.5s35 11.5 51 19.5l23 -76c-18 -10 -38 -18 -60 -24s-44.667 -10 -68 -12v-90h-60v91zM194.999 242.001
c0 -44.667 9.33301 -81.834 28 -111.501s46.667 -48.167 84 -55.5v332c-38 -7.33301 -66.167 -25.666 -84.5 -54.999s-27.5 -66 -27.5 -110z" />
    <glyph glyph-name="sterling" unicode="&#xa3;" horiz-adv-x="580" 
d="M71 358l70.9951 -0.00292969c-9.33301 18.667 -17.833 37.5 -25.5 56.5s-11.5 39.833 -11.5 62.5c0 28 5.83301 53.167 17.5 75.5s27.5 41.5 47.5 57.5s43.333 28.333 70 37s55 13 85 13c18.667 0 35.5 -0.833008 50.5 -2.5s28.667 -4.16699 41 -7.5
s24.333 -7.5 36 -12.5s24.167 -10.833 37.5 -17.5l-27 -85c-18.667 10.667 -37.667 18.334 -57 23.001s-41.666 7 -66.999 7c-20 0 -37.333 -2.83301 -52 -8.5s-26.5 -13.167 -35.5 -22.5s-15.667 -19.833 -20 -31.5s-6.5 -23.834 -6.5 -36.501
c0 -20 3.33301 -38.667 10 -56s14.334 -34.666 23.001 -51.999h156v-63h-126c4 -11.333 7.33301 -22.666 10 -33.999s4 -23 4 -35c0 -25.333 -7.66699 -49.166 -23 -71.499s-34.666 -40.833 -57.999 -55.5h314v-99h-476v99h42c12.667 6 24.667 13.5 36 22.5
s21.333 18.833 30 29.5s15.334 21.667 20.001 33s7 22 7 32c0 14 -1.66699 27.5 -5 40.5s-7.66602 25.833 -12.999 38.5h-105v63z" />
    <glyph glyph-name="currency" unicode="&#xa4;" horiz-adv-x="575" 
d="M168 328c0 -17.333 3.16699 -33.333 9.5 -48s14.833 -27.5 25.5 -38.5s23.167 -19.667 37.5 -26s29.833 -9.5 46.5 -9.5c16 0 31.333 3.16699 46 9.5s27.5 15 38.5 26s19.833 23.833 26.5 38.5s10 30.667 10 48s-3.33301 33.5 -10 48.5s-15.5 28 -26.5 39
s-23.833 19.5 -38.5 25.5s-30 9 -46 9c-16.667 0 -32.167 -3 -46.5 -9s-26.833 -14.5 -37.5 -25.5s-19.167 -24 -25.5 -39s-9.5 -31.167 -9.5 -48.5zM102 328c0 19.333 2.66797 37.5 8.00098 54.5s13.666 34.167 24.999 51.5l-55 57l46 47l57 -58
c30 23.333 64.667 35 104 35c37.333 0 72.333 -11.667 105 -35l57 57l45 -46l-54 -57c11.333 -17.333 19.666 -34.333 24.999 -51s8 -35 8 -55c0 -38 -11 -73 -33 -105l55 -57l-46 -48l-57 58c-16.667 -11.333 -33.334 -19.833 -50.001 -25.5s-34.667 -8.5 -54 -8.5
c-20 0 -38.667 2.83301 -56 8.5s-33.666 14.167 -48.999 25.5l-57 -58l-46 48l55 57c-11.333 16 -19.666 32.5 -24.999 49.5s-8 35.5 -8 55.5z" />
    <glyph glyph-name="yen" unicode="&#xa5;" horiz-adv-x="580" 
d="M84 348h119l-167 302h116l139 -281h1l136 281h116l-166 -302h119v-57h-149l-3 -20v-46h152v-57h-152v-168h-108v168h-153v57h153v46l-3 20h-150v57z" />
    <glyph glyph-name="brokenbar" unicode="&#xa6;" horiz-adv-x="265" 
d="M85 674h95v-351h-95v351zM85 176h95v-351h-95v351z" />
    <glyph glyph-name="section" unicode="&#xa7;" horiz-adv-x="580" 
d="M398 278c0 10.667 -3.5 20.3359 -10.5 29.0029s-16.333 16.5 -28 23.5s-25 13.333 -40 19s-30.833 10.834 -47.5 15.501c-13.333 3.33301 -25.166 6.66602 -35.499 9.99902s-19.833 7.33301 -28.5 12c-1.33301 -1.33301 -5 -5.5 -11 -12.5s-9 -16.5 -9 -28.5
c0 -18.667 8 -33.834 24 -45.501s34.667 -21.334 56 -29.001s42.666 -14 63.999 -19s37 -9.83301 47 -14.5c1.33301 1.33301 4.83301 5.16602 10.5 11.499s8.5 15.833 8.5 28.5zM248 21.002c18.667 0 35.9951 1.83594 51.9951 5.50293s30 8.5 42 14.5s21.333 13.167 28 21.5
s10 17.5 10 27.5c0 12 -3 22.167 -9 30.5s-13.833 15.666 -23.5 21.999s-20.667 11.833 -33 16.5s-25.166 9 -38.499 13c-17.333 5.33301 -37.166 11.833 -59.499 19.5s-43.5 17.667 -63.5 30s-36.833 27.666 -50.5 45.999s-20.5 41.166 -20.5 68.499c0 24 5 43.833 15 59.5
s24 27.834 42 36.501c-13.333 14 -22.833 29.5 -28.5 46.5s-8.5 34.167 -8.5 51.5c0 22.667 4.66699 43.667 14 63s22.833 35.666 40.5 48.999s39.167 23.833 64.5 31.5s54 11.5 86 11.5c28.667 0 56.834 -3.83301 84.501 -11.5s53.167 -17.167 76.5 -28.5l-24 -76
c-42 22 -85.333 33 -130 33c-36 0 -62.5 -7 -79.5 -21s-25.5 -31 -25.5 -51c0 -17.333 7.33301 -31.166 22 -41.499s33 -19.666 55 -27.999s45.667 -16.5 71 -24.5s49 -18.167 71 -30.5s40.333 -27.833 55 -46.5s22 -42.667 22 -72c0 -23.333 -5.16699 -43 -15.5 -59
s-24.166 -28 -41.499 -36c13.333 -15.333 23 -31.5 29 -48.5s9 -34.167 9 -51.5c0 -23.333 -5.33301 -44.333 -16 -63s-26 -34.834 -46 -48.501s-44.333 -24.167 -73 -31.5s-60.667 -11 -96 -11c-30 0 -60.167 3.66699 -90.5 11s-57.166 16.666 -80.499 27.999l24 76
c20.667 -9.33301 43 -17 67 -23s48.333 -9 73 -9z" />
    <glyph glyph-name="dieresis" unicode="&#xa8;" horiz-adv-x="316" 
d="M57 669c19.333 0 34 -5.66699 44 -17s15 -24.666 15 -39.999s-5 -28.5 -15 -39.5s-24.667 -16.5 -44 -16.5s-34 5.5 -44 16.5s-15 24.167 -15 39.5s5 28.666 15 39.999s24.667 17 44 17zM259 669c19.333 0 34 -5.66699 44 -17s15 -24.666 15 -39.999s-5 -28.5 -15 -39.5
s-24.667 -16.5 -44 -16.5s-34 5.5 -44 16.5s-15 24.167 -15 39.5s5 28.666 15 39.999s24.667 17 44 17z" />
    <glyph glyph-name="copyright" unicode="&#xa9;" horiz-adv-x="699" 
d="M349 599c-36 0 -69.167 -6.83301 -99.5 -20.5s-56.833 -32.334 -79.5 -56.001s-40.334 -51.5 -53.001 -83.5s-19 -66 -19 -102c0 -36.667 6.33301 -71 19 -103s30.334 -59.833 53.001 -83.5s49.167 -42.334 79.5 -56.001s63.5 -20.5 99.5 -20.5s69.333 6.83301 100 20.5
s57.167 32.334 79.5 56.001s39.833 51.5 52.5 83.5s19 66.333 19 103c0 36 -6.33301 70 -19 102s-30.167 59.833 -52.5 83.5s-48.833 42.334 -79.5 56.001s-64 20.5 -100 20.5zM364 461c-36 0 -62.501 -11.666 -79.501 -34.999s-25.5 -53.333 -25.5 -90
s8.5 -66.834 25.5 -90.501s44.167 -35.5 81.5 -35.5c30.667 0 60.334 7.66699 89.001 23l15 -50c-15.333 -8.66699 -32 -15.167 -50 -19.5s-38 -6.5 -60 -6.5c-28 0 -52.667 4.66699 -74 14s-39.166 22 -53.499 38s-25 34.833 -32 56.5s-10.5 45.167 -10.5 70.5
s3.66699 48.833 11 70.5s18.166 40.5 32.499 56.5s32.333 28.667 54 38s47.167 14 76.5 14c39.333 0 73.666 -8.33301 102.999 -25l-7.5 -25c-2.33301 -8 -5.16602 -16 -8.49902 -24c-13.333 6.66699 -26.833 11.667 -40.5 15s-29.167 5 -46.5 5zM348.999 23.001
c-43.333 0 -83.666 8.16699 -120.999 24.5s-70 38.833 -98 67.5s-50 62 -66 100s-24 78.667 -24 122s8 84 24 122s38 71.167 66 99.5s60.667 50.666 98 66.999s77.666 24.5 120.999 24.5s83.833 -8.16699 121.5 -24.5s70.5 -38.666 98.5 -66.999s50 -61.5 66 -99.5
s24 -78.667 24 -122s-8 -84 -24 -122s-38 -71.333 -66 -100s-60.833 -51.167 -98.5 -67.5s-78.167 -24.5 -121.5 -24.5z" />
    <glyph glyph-name="ordfeminine" unicode="&#xaa;" horiz-adv-x="356" 
d="M237 465h-59c-26 0 -45.833 -5.5 -59.5 -16.5s-20.5 -26.167 -20.5 -45.5c0 -14.667 4.33301 -26.334 13 -35.001s20.667 -13 36 -13c12.667 0 24.5 2.5 35.5 7.5s20.5 11.833 28.5 20.5s14.333 18.334 19 29.001s7 22 7 34v19zM237 527c0 23.333 -6.33301 40.667 -19 52
s-28.667 17 -48 17c-18.667 0 -37.667 -2.5 -57 -7.5s-38 -12.167 -56 -21.5l-20 58c15.333 8 34.833 15.833 58.5 23.5s49.5 11.5 77.5 11.5c48 0 83.667 -12.167 107 -36.5s35 -56.833 35 -97.5v-226h-64l-9 48c-10 -14.667 -23 -27.5 -39 -38.5s-39.333 -16.5 -70 -16.5
c-32 0 -59.333 9 -82 27s-34 45 -34 81c0 42 14.333 72.833 43 92.5s68 29.5 118 29.5h59v4z" />
    <glyph glyph-name="guillemotleft" unicode="&#xab;" horiz-adv-x="484" 
d="M321 242l128 -180h-95l-129 180l129 180h95zM126 242l128 -180h-96l-128 180l128 180h96z" />
    <glyph glyph-name="logicalnot" unicode="&#xac;" horiz-adv-x="509" 
d="M361 116v171h-326v83h424v-254h-98z" />
    <glyph glyph-name="uni00AD" unicode="&#xad;" horiz-adv-x="312" 
d="M10 290h292v-81h-292v81z" />
    <glyph glyph-name="registered" unicode="&#xae;" horiz-adv-x="534" 
d="M372 505c0 -17.333 -5.5 -32.832 -16.5 -46.499s-24.5 -22.834 -40.5 -27.501l60 -101h-52l-55 95h-37v-95h-48v252h97c33.333 0 57 -7.33301 71 -22s21 -33 21 -55zM324 505.001c0 12 -3.5 20.833 -10.5 26.5s-18.5 8.5 -34.5 8.5h-48v-74h47c30.667 0 46 13 46 39z
M267 234.001c-34 0 -64.833 5.83301 -92.5 17.5s-51.5 27.667 -71.5 48s-35.5 44.166 -46.5 71.499s-16.5 56.666 -16.5 87.999s5.5 60.666 16.5 87.999s26.5 51.166 46.5 71.499s43.833 36.333 71.5 48s58.5 17.5 92.5 17.5c33.333 0 64 -5.83301 92 -17.5
s52 -27.667 72 -48s35.5 -44.166 46.5 -71.499s16.5 -56.666 16.5 -87.999s-5.5 -60.666 -16.5 -87.999s-26.5 -51.166 -46.5 -71.499s-44 -36.333 -72 -48s-58.667 -17.5 -92 -17.5zM267 275.001c26.667 0 51.167 4.83301 73.5 14.5s41.166 22.834 56.499 39.501
s27.333 36.167 36 58.5s13 46.166 13 71.499s-4.33301 49.166 -13 71.499s-20.667 41.833 -36 58.5s-34.166 29.834 -56.499 39.501s-46.833 14.5 -73.5 14.5c-27.333 0 -52 -4.83301 -74 -14.5s-40.833 -22.834 -56.5 -39.501s-27.667 -36.167 -36 -58.5
s-12.5 -46.166 -12.5 -71.499s4.16699 -49.166 12.5 -71.499s20.333 -41.833 36 -58.5s34.5 -29.834 56.5 -39.501s46.667 -14.5 74 -14.5z" />
    <glyph glyph-name="macron" unicode="&#xaf;" horiz-adv-x="316" 
d="M9 571v71h298v-71h-298z" />
    <glyph glyph-name="degree" unicode="&#xb0;" horiz-adv-x="357" 
d="M105 551c0 -21.333 7 -39.333 21 -54s31.333 -22 52 -22c21.333 0 39.166 7.33301 53.499 22s21.5 32.667 21.5 54c0 20.667 -7.16699 38.334 -21.5 53.001s-32.166 22 -53.499 22c-20.667 0 -38 -7.33301 -52 -22s-21 -32.334 -21 -53.001zM38 551
c0 18 3.5 35.167 10.5 51.5s16.667 30.666 29 42.999s27.166 22 44.499 29s36 10.5 56 10.5s38.667 -3.5 56 -10.5s32.333 -16.667 45 -29s22.5 -26.666 29.5 -42.999s10.5 -33.5 10.5 -51.5c0 -18.667 -3.5 -36.167 -10.5 -52.5s-16.833 -30.5 -29.5 -42.5
s-27.667 -21.5 -45 -28.5s-36 -10.5 -56 -10.5s-38.667 3.5 -56 10.5s-32.166 16.5 -44.499 28.5s-22 26.167 -29 42.5s-10.5 33.833 -10.5 52.5z" />
    <glyph glyph-name="plusminus" unicode="&#xb1;" horiz-adv-x="580" 
d="M506 261h-166v-159h-99v159h-167v85h167v160h99v-160h166v-85zM506 0h-432v65h432v-65z" />
    <glyph glyph-name="twosuperior" unicode="&#xb2;" horiz-adv-x="312" 
d="M138 591c-12.667 0 -26.668 -1.83301 -42.001 -5.5s-29.666 -8.83398 -42.999 -15.501l-21 62c16 7.33301 33.333 14 52 20s39.667 9 63 9c42.667 0 74.167 -9.16699 94.5 -27.5s30.5 -42.166 30.5 -71.499c0 -15.333 -3.33301 -30.333 -10 -45s-15 -28.5 -25 -41.5
s-21.167 -25.5 -33.5 -37.5l-34.5 -34l-35 -33h150v-71h-261v54l88 88c22.667 22.667 41 43 55 61s21 35.667 21 53c0 23.333 -16.333 35 -49 35z" />
    <glyph glyph-name="threesuperior" unicode="&#xb3;" horiz-adv-x="309" 
d="M137 363c19.333 0 33.832 4.17188 43.499 12.5049s14.5 19.166 14.5 32.499c0 28.667 -17.333 43 -52 43h-61v64h59c13.333 0 24.166 3.33301 32.499 10s12.5 17 12.5 31c0 11.333 -4.5 20.166 -13.5 26.499s-23.5 9.5 -43.5 9.5c-25.333 0 -54 -8 -86 -24l-23 63
c17.333 9.33301 35.833 16.666 55.5 21.999s39.167 8 58.5 8c46.667 0 80.834 -9.66699 102.501 -29s32.5 -42.666 32.5 -69.999c0 -18.667 -5 -34.334 -15 -47.001s-22.333 -21.667 -37 -27c19.333 -5.33301 34.5 -15.833 45.5 -31.5s16.5 -32.834 16.5 -51.501
c0 -34 -11.833 -61 -35.5 -81s-56.5 -30 -98.5 -30c-27.333 0 -51.166 2.66699 -71.499 8s-38.833 12.666 -55.5 21.999l23 65c14 -8 29.5 -14.333 46.5 -19s33.5 -7 49.5 -7z" />
    <glyph glyph-name="acute" unicode="&#xb4;" horiz-adv-x="316" 
d="M284 720l56 -79l-186 -102l-31 45z" />
    <glyph glyph-name="mu" unicode="&#xb5;" horiz-adv-x="563" 
d="M70 483h105.998v-297c0 -34 7.83301 -61 23.5 -81s37.834 -30 66.501 -30c24 0 46.333 8.16699 67 24.5s38.667 34.833 54 55.5v328h106v-483h-91l-15 72c-6 -10 -13.167 -20 -21.5 -30s-17.833 -18.833 -28.5 -26.5s-22.334 -14 -35.001 -19s-26 -7.5 -40 -7.5
c-23.333 0 -41.666 3.33301 -54.999 10s-23.666 13.667 -30.999 21v-220h-106v683z" />
    <glyph glyph-name="paragraph" unicode="&#xb6;" horiz-adv-x="453" 
d="M35 492c0 28.667 5 54.3359 15 77.0029s23.5 41.667 40.5 57s36.667 27.166 59 35.499s45.833 12.5 70.5 12.5h205v-65h-55c-20.667 0 -34.5 -4.66699 -41.5 -14s-10.5 -23 -10.5 -41v-602h-91v363c-23.333 0 -46.5 3.33301 -69.5 10s-43.5 17.167 -61.5 31.5
s-32.667 32.666 -44 54.999s-17 49.166 -17 80.499z" />
    <glyph glyph-name="periodcentered" unicode="&#xb7;" horiz-adv-x="252" 
d="M55 267c0 18.667 6 34.834 18 48.501s29.667 20.5 53 20.5c22.667 0 40.167 -6.83301 52.5 -20.5s18.5 -29.834 18.5 -48.501s-6.16699 -34.834 -18.5 -48.501s-29.833 -20.5 -52.5 -20.5c-23.333 0 -41 6.83301 -53 20.5s-18 29.834 -18 48.501z" />
    <glyph glyph-name="cedilla" unicode="&#xb8;" horiz-adv-x="316" 
d="M149 -175h-112l94 135h67z" />
    <glyph glyph-name="onesuperior" unicode="&#xb9;" horiz-adv-x="297" 
d="M113 578l-68 -22v66l92 33h62v-285h75v-70h-241v70h80v208z" />
    <glyph glyph-name="ordmasculine" unicode="&#xba;" horiz-adv-x="400" 
d="M109 477c0 -34.667 7.16699 -63.5 21.5 -86.5s37.5 -34.5 69.5 -34.5s55.333 11.5 70 34.5s22 51.833 22 86.5s-7.33301 63.167 -22 85.5s-38 33.5 -70 33.5s-55.167 -11.167 -69.5 -33.5s-21.5 -50.833 -21.5 -85.5zM28 477c0 26 3.5 50 10.5 72s17.5 41.333 31.5 58
s31.833 29.667 53.5 39s47.167 14 76.5 14s54.833 -4.66699 76.5 -14s39.5 -22.333 53.5 -39s24.5 -36 31.5 -58s10.5 -46 10.5 -72s-3.5 -50.167 -10.5 -72.5s-17.5 -41.833 -31.5 -58.5s-31.833 -29.667 -53.5 -39s-47.167 -14 -76.5 -14s-54.833 4.66699 -76.5 14
s-39.5 22.333 -53.5 39s-24.5 36.167 -31.5 58.5s-10.5 46.5 -10.5 72.5z" />
    <glyph glyph-name="guillemotright" unicode="&#xbb;" horiz-adv-x="484" 
d="M230 422h95l129 -180l-129 -180h-95l128 180zM35 422h95l128 -180l-128 -180h-95l128 180z" />
    <glyph glyph-name="onequarter" unicode="&#xbc;" horiz-adv-x="776" 
d="M603 130v115l-83 -115h83zM612 355h71v-225h43v-67h-43v-63h-81v63h-159v56zM530 660h95l-367 -660h-94zM126 578l-68 -22v66l92 33h62v-285h74v-70h-241v70h81v208z" />
    <glyph glyph-name="onehalf" unicode="&#xbd;" horiz-adv-x="776" 
d="M530 660h95l-367 -660h-94zM126 578l-68 -22v66l92 33h62v-285h74v-70h-241v70h81v208zM586 291c-12.667 0 -26.168 -2.16699 -40.501 -6.5s-28.166 -9.83301 -41.499 -16.5l-21 63c16 7.33301 32.833 14.166 50.5 20.499s38.167 9.5 61.5 9.5
c42.667 0 74.167 -9.16699 94.5 -27.5s30.5 -42.166 30.5 -71.499c0 -15.333 -3.33301 -30.333 -10 -45s-15 -28.5 -25 -41.5s-21.167 -25.5 -33.5 -37.5l-34.5 -34l-35 -33h150v-71h-261v54l88 88c22.667 22.667 41 43 55 61s21 35.667 21 53c0 23.333 -16.333 35 -49 35z
" />
    <glyph glyph-name="threequarters" unicode="&#xbe;" horiz-adv-x="776" 
d="M530 660h95l-367 -660h-94zM152 363c19.333 0 33.835 4.17188 43.502 12.5049s14.5 19.166 14.5 32.499c0 28.667 -17.333 43 -52 43h-61v64h59c13.333 0 24.166 3.33301 32.499 10s12.5 17 12.5 31c0 24 -17 36 -51 36c-29.333 0 -60 -8 -92 -24l-23 63
c17.333 9.33301 36.166 16.666 56.499 21.999s42.166 8 65.499 8c43.333 0 75.333 -9.5 96 -28.5s31 -42.5 31 -70.5c0 -18.667 -5 -34.334 -15 -47.001s-22.333 -21.667 -37 -27c19.333 -5.33301 34.5 -15.833 45.5 -31.5s16.5 -32.834 16.5 -51.501
c0 -34 -11.833 -61 -35.5 -81s-56.5 -30 -98.5 -30c-27.333 0 -51.166 2.66699 -71.499 8s-38.833 12.666 -55.5 21.999l23 65c14 -8 29.5 -14.333 46.5 -19s33.5 -7 49.5 -7zM603.002 130.005v115l-83 -115h83zM612.002 355.005h71v-225h43v-67h-43v-63h-81v63h-159v56z
" />
    <glyph glyph-name="questiondown" unicode="&#xbf;" horiz-adv-x="497" 
d="M271 -115c28.667 0 56.667 3.99805 84 11.998s51.666 17.667 72.999 29l27 -86c-22.667 -12 -50 -22.833 -82 -32.5s-67 -14.5 -105 -14.5c-72 0 -125.5 15.833 -160.5 47.5s-52.5 73.167 -52.5 124.5c0 25.333 4.16699 47.5 12.5 66.5s18.833 36.5 31.5 52.5
s26.5 30.667 41.5 44s28.833 27 41.5 41s23.167 28.333 31.5 43s12.5 31.334 12.5 50.001s-2.33301 34.667 -7 48h90c4 -6.66699 7.33301 -14.5 10 -23.5s4 -18.833 4 -29.5c0 -21.333 -4 -40.333 -12 -57s-17.833 -32.167 -29.5 -46.5s-24.5 -28.166 -38.5 -41.499
s-26.833 -27 -38.5 -41s-21.5 -28.833 -29.5 -44.5s-12 -33.5 -12 -53.5c0 -11.333 2 -22.333 6 -33s10.333 -20 19 -28s19.834 -14.5 33.501 -19.5s30.167 -7.5 49.5 -7.5zM335 420.998c0 -18.667 -6.16699 -34.834 -18.5 -48.501s-29.833 -20.5 -52.5 -20.5
c-23.333 0 -41 6.83301 -53 20.5s-18 29.834 -18 48.501s6 34.834 18 48.501s29.667 20.5 53 20.5c22.667 0 40.167 -6.83301 52.5 -20.5s18.5 -29.834 18.5 -48.501z" />
    <glyph glyph-name="Agrave" unicode="&#xc0;" horiz-adv-x="626" 
d="M614 0h-112l-59 166h-261l-58 -166h-112l246 674h110zM360 402l-46 160h-2l-46 -160l-50 -143h194zM422 780l-30 -45l-187 102l57 79z" />
    <glyph glyph-name="Aacute" unicode="&#xc1;" horiz-adv-x="626" 
d="M614 0h-112l-59 166h-261l-58 -166h-112l246 674h110zM360 402l-46 160h-2l-46 -160l-50 -143h194zM366 916l56 -79l-186 -102l-31 45z" />
    <glyph glyph-name="Acircumflex" unicode="&#xc2;" horiz-adv-x="626" 
d="M614 0h-112l-59 166h-261l-58 -166h-112l246 674h110zM360 402l-46 160h-2l-46 -160l-50 -143h194zM471 738h-104l-54 81l-53 -81h-105l125 144h66z" />
    <glyph glyph-name="Atilde" unicode="&#xc3;" horiz-adv-x="626" 
d="M614 0h-112l-59 166h-261l-58 -166h-112l246 674h110zM360 402l-46 160h-2l-46 -160l-50 -143h194zM471 863c0 -36 -7.83301 -63.834 -23.5 -83.501s-37.5 -29.5 -65.5 -29.5c-16 0 -29.833 2.5 -41.5 7.5s-22.334 10.667 -32.001 17l-27 17
c-8.33301 5 -17.166 7.5 -26.499 7.5c-13.333 0 -22.166 -4.66699 -26.499 -14s-6.5 -19.666 -6.5 -30.999h-67c0 34.667 7.5 62.167 22.5 82.5s37.5 30.5 67.5 30.5c15.333 0 29 -2.66699 41 -8s23 -11 33 -17s19 -11.667 27 -17s16 -8 24 -8
c13.333 0 22.166 4.33301 26.499 13s6.5 19.667 6.5 33h68z" />
    <glyph glyph-name="Adieresis" unicode="&#xc4;" horiz-adv-x="626" 
d="M614 0h-112l-59 166h-261l-58 -166h-112l246 674h110zM360 402l-46 160h-2l-46 -160l-50 -143h194zM212 865c19.333 0 34 -5.66699 44 -17s15 -24.666 15 -39.999s-5 -28.5 -15 -39.5s-24.667 -16.5 -44 -16.5s-34 5.5 -44 16.5s-15 24.167 -15 39.5s5 28.666 15 39.999
s24.667 17 44 17zM414 865c19.333 0 34 -5.66699 44 -17s15 -24.666 15 -39.999s-5 -28.5 -15 -39.5s-24.667 -16.5 -44 -16.5s-34 5.5 -44 16.5s-15 24.167 -15 39.5s5 28.666 15 39.999s24.667 17 44 17z" />
    <glyph glyph-name="Aring" unicode="&#xc5;" horiz-adv-x="626" 
d="M614 0h-112l-59 166h-261l-58 -166h-112l246 674h110zM360 402l-46 160h-2l-46 -160l-50 -143h194zM313 926c28 0 51.502 -9.33301 70.502 -28s28.5 -41.667 28.5 -69c0 -26.667 -9.33301 -49.334 -28 -68.001s-42.334 -28 -71.001 -28s-52.334 9.33301 -71.001 28
s-28 41.334 -28 68.001c0 27.333 9.5 50.333 28.5 69s42.5 28 70.5 28zM313.002 787c11.333 0 20.5 3.83301 27.5 11.5s10.5 18.167 10.5 31.5c0 12.667 -3.5 22.834 -10.5 30.501s-16.167 11.5 -27.5 11.5s-20.5 -3.83301 -27.5 -11.5s-10.5 -17.834 -10.5 -30.501
c0 -13.333 3.5 -23.833 10.5 -31.5s16.167 -11.5 27.5 -11.5z" />
    <glyph glyph-name="AE" unicode="&#xc6;" horiz-adv-x="831" 
d="M455 166h-260l-71 -166h-112l298 674h471v-95h-334l54 -186h260v-94h-234l59 -205h201v-94h-286zM236 259h194l-40 143l-31 162h-2l-60 -162z" />
    <glyph glyph-name="Ccedilla" unicode="&#xc7;" horiz-adv-x="575" 
d="M361 -11c-53.333 0 -100.167 8.66211 -140.5 25.9951s-73.833 41.333 -100.5 72s-46.667 67.334 -60 110.001s-20 89.334 -20 140.001c0 50 7 96.167 21 138.5s34.667 79 62 110s60.833 55.333 100.5 73s85.5 26.5 137.5 26.5c36 0 68 -3.16699 96 -9.5
s55 -16.166 81 -29.499l-27 -85c-44 21.333 -92 32 -144 32c-70.667 0 -124.834 -22.333 -162.501 -67s-56.5 -107.667 -56.5 -189c0 -80.667 18.667 -143.5 56 -188.5s91.666 -67.5 162.999 -67.5c23.333 0 48 2.83301 74 8.5s51.333 14.834 76 27.501l26 -86
c-25.333 -13.333 -53.166 -23.666 -83.499 -30.999s-63.166 -11 -98.499 -11zM343.999 -175.005h-112l94 135h67z" />
    <glyph glyph-name="Egrave" unicode="&#xc8;" horiz-adv-x="550" 
d="M75 674h425v-95h-319v-186h299v-94h-299v-205h325v-94h-431v674zM394 780l-30 -45l-187 102l57 79z" />
    <glyph glyph-name="Eacute" unicode="&#xc9;" horiz-adv-x="550" 
d="M75 674h425v-95h-319v-186h299v-94h-299v-205h325v-94h-431v674zM338 916l56 -79l-186 -102l-31 45z" />
    <glyph glyph-name="Ecircumflex" unicode="&#xca;" horiz-adv-x="550" 
d="M75 674h425v-95h-319v-186h299v-94h-299v-205h325v-94h-431v674zM443 738h-104l-54 81l-53 -81h-105l125 144h66z" />
    <glyph glyph-name="Edieresis" unicode="&#xcb;" horiz-adv-x="550" 
d="M75 674h425v-95h-319v-186h299v-94h-299v-205h325v-94h-431v674zM184 865c19.333 0 34 -5.66699 44 -17s15 -24.666 15 -39.999s-5 -28.5 -15 -39.5s-24.667 -16.5 -44 -16.5s-34 5.5 -44 16.5s-15 24.167 -15 39.5s5 28.666 15 39.999s24.667 17 44 17zM386 865
c19.333 0 34 -5.66699 44 -17s15 -24.666 15 -39.999s-5 -28.5 -15 -39.5s-24.667 -16.5 -44 -16.5s-34 5.5 -44 16.5s-15 24.167 -15 39.5s5 28.666 15 39.999s24.667 17 44 17z" />
    <glyph glyph-name="Igrave" unicode="&#xcc;" horiz-adv-x="262" 
d="M185 0h-108v674h108v-674zM240 780l-30 -45l-187 102l57 79z" />
    <glyph glyph-name="Iacute" unicode="&#xcd;" horiz-adv-x="262" 
d="M185 0h-108v674h108v-674zM185 916l56 -79l-186 -102l-31 45z" />
    <glyph glyph-name="Icircumflex" unicode="&#xce;" horiz-adv-x="262" 
d="M185 0h-108v674h108v-674zM290 738h-104l-54 81l-53 -81h-105l125 144h66z" />
    <glyph glyph-name="Idieresis" unicode="&#xcf;" horiz-adv-x="262" 
d="M185 0h-108v674h108v-674zM31 865c19.333 0 34 -5.66699 44 -17s15 -24.666 15 -39.999s-5 -28.5 -15 -39.5s-24.667 -16.5 -44 -16.5s-34 5.5 -44 16.5s-15 24.167 -15 39.5s5 28.666 15 39.999s24.667 17 44 17zM233 865c19.333 0 34 -5.66699 44 -17
s15 -24.666 15 -39.999s-5 -28.5 -15 -39.5s-24.667 -16.5 -44 -16.5s-34 5.5 -44 16.5s-15 24.167 -15 39.5s5 28.666 15 39.999s24.667 17 44 17z" />
    <glyph glyph-name="Eth" unicode="&#xd0;" horiz-adv-x="658" 
d="M75 370v303.999h203c111.333 0 195.5 -28.333 252.5 -85s85.5 -140 85.5 -250c0 -111.333 -28.5 -195.666 -85.5 -252.999s-141.167 -86 -252.5 -86h-203v290h-67v80h67zM508 338.999c0 42.667 -5.16699 79.1689 -15.5 109.502s-25.333 55.166 -45 74.499
s-43.667 33.333 -72 42s-60.833 13 -97.5 13h-95v-208h157v-80h-157v-194h95c36.667 0 69.167 4.66699 97.5 14s52.333 23.666 72 42.999s34.667 44.333 45 75s15.5 67.667 15.5 111z" />
    <glyph glyph-name="Ntilde" unicode="&#xd1;" horiz-adv-x="674" 
d="M491 674l107.999 0.000976562v-674h-111l-249 408c-14 22.667 -26.667 46.667 -38 72s-20.666 48.333 -27.999 69h-3c4.66699 -25.333 8 -52.166 10 -80.499s3 -54.833 3 -79.5v-389h-108v674h116l244 -409c13.333 -22.667 25.833 -46.5 37.5 -71.5
s21.167 -48.167 28.5 -69.5h2c-4 25.333 -7 52.166 -9 80.499s-3 55.166 -3 80.499v389zM494.999 863.001c0 -36 -7.83301 -63.834 -23.5 -83.501s-37.5 -29.5 -65.5 -29.5c-16 0 -29.833 2.5 -41.5 7.5s-22.334 10.667 -32.001 17l-27 17
c-8.33301 5 -17.166 7.5 -26.499 7.5c-13.333 0 -22.166 -4.66699 -26.499 -14s-6.5 -19.666 -6.5 -30.999h-67c0 34.667 7.5 62.167 22.5 82.5s37.5 30.5 67.5 30.5c15.333 0 29 -2.66699 41 -8s23 -11 33 -17s19 -11.667 27 -17s16 -8 24 -8
c13.333 0 22.166 4.33301 26.499 13s6.5 19.667 6.5 33h68z" />
    <glyph glyph-name="Ograve" unicode="&#xd2;" horiz-adv-x="696" 
d="M348 685c52 0 97.333 -8.83301 136 -26.5s70.834 -42 96.501 -73s44.667 -67.833 57 -110.5s18.5 -88.667 18.5 -138s-6.16699 -95.333 -18.5 -138s-31.333 -79.5 -57 -110.5s-57.834 -55.333 -96.501 -73s-84 -26.5 -136 -26.5s-97.333 8.83301 -136 26.5
s-70.834 42 -96.501 73s-44.667 67.833 -57 110.5s-18.5 88.667 -18.5 138s6.16699 95.333 18.5 138s31.333 79.5 57 110.5s57.834 55.333 96.501 73s84 26.5 136 26.5zM348 76c66.667 0 116.667 22.833 150 68.5s50 109.834 50 192.501s-16.667 146.834 -50 192.501
s-83.333 68.5 -150 68.5s-116.667 -22.833 -150 -68.5s-50 -109.834 -50 -192.501s16.667 -146.834 50 -192.501s83.333 -68.5 150 -68.5zM457 780l-30 -45l-187 102l57 79z" />
    <glyph glyph-name="Oacute" unicode="&#xd3;" horiz-adv-x="696" 
d="M348 685c52 0 97.333 -8.83301 136 -26.5s70.834 -42 96.501 -73s44.667 -67.833 57 -110.5s18.5 -88.667 18.5 -138s-6.16699 -95.333 -18.5 -138s-31.333 -79.5 -57 -110.5s-57.834 -55.333 -96.501 -73s-84 -26.5 -136 -26.5s-97.333 8.83301 -136 26.5
s-70.834 42 -96.501 73s-44.667 67.833 -57 110.5s-18.5 88.667 -18.5 138s6.16699 95.333 18.5 138s31.333 79.5 57 110.5s57.834 55.333 96.501 73s84 26.5 136 26.5zM348 76c66.667 0 116.667 22.833 150 68.5s50 109.834 50 192.501s-16.667 146.834 -50 192.501
s-83.333 68.5 -150 68.5s-116.667 -22.833 -150 -68.5s-50 -109.834 -50 -192.501s16.667 -146.834 50 -192.501s83.333 -68.5 150 -68.5zM401 916l56 -79l-186 -102l-31 45z" />
    <glyph glyph-name="Ocircumflex" unicode="&#xd4;" horiz-adv-x="696" 
d="M348 685c52 0 97.333 -8.83301 136 -26.5s70.834 -42 96.501 -73s44.667 -67.833 57 -110.5s18.5 -88.667 18.5 -138s-6.16699 -95.333 -18.5 -138s-31.333 -79.5 -57 -110.5s-57.834 -55.333 -96.501 -73s-84 -26.5 -136 -26.5s-97.333 8.83301 -136 26.5
s-70.834 42 -96.501 73s-44.667 67.833 -57 110.5s-18.5 88.667 -18.5 138s6.16699 95.333 18.5 138s31.333 79.5 57 110.5s57.834 55.333 96.501 73s84 26.5 136 26.5zM348 76c66.667 0 116.667 22.833 150 68.5s50 109.834 50 192.501s-16.667 146.834 -50 192.501
s-83.333 68.5 -150 68.5s-116.667 -22.833 -150 -68.5s-50 -109.834 -50 -192.501s16.667 -146.834 50 -192.501s83.333 -68.5 150 -68.5zM506 738h-104l-54 81l-53 -81h-105l125 144h66z" />
    <glyph glyph-name="Otilde" unicode="&#xd5;" horiz-adv-x="696" 
d="M348 685c52 0 97.333 -8.83301 136 -26.5s70.834 -42 96.501 -73s44.667 -67.833 57 -110.5s18.5 -88.667 18.5 -138s-6.16699 -95.333 -18.5 -138s-31.333 -79.5 -57 -110.5s-57.834 -55.333 -96.501 -73s-84 -26.5 -136 -26.5s-97.333 8.83301 -136 26.5
s-70.834 42 -96.501 73s-44.667 67.833 -57 110.5s-18.5 88.667 -18.5 138s6.16699 95.333 18.5 138s31.333 79.5 57 110.5s57.834 55.333 96.501 73s84 26.5 136 26.5zM348 76c66.667 0 116.667 22.833 150 68.5s50 109.834 50 192.501s-16.667 146.834 -50 192.501
s-83.333 68.5 -150 68.5s-116.667 -22.833 -150 -68.5s-50 -109.834 -50 -192.501s16.667 -146.834 50 -192.501s83.333 -68.5 150 -68.5zM506 863c0 -36 -7.83301 -63.834 -23.5 -83.501s-37.5 -29.5 -65.5 -29.5c-16 0 -29.833 2.5 -41.5 7.5s-22.334 10.667 -32.001 17
l-27 17c-8.33301 5 -17.166 7.5 -26.499 7.5c-13.333 0 -22.166 -4.66699 -26.499 -14s-6.5 -19.666 -6.5 -30.999h-67c0 34.667 7.5 62.167 22.5 82.5s37.5 30.5 67.5 30.5c15.333 0 29 -2.66699 41 -8s23 -11 33 -17s19 -11.667 27 -17s16 -8 24 -8
c13.333 0 22.166 4.33301 26.499 13s6.5 19.667 6.5 33h68z" />
    <glyph glyph-name="Odieresis" unicode="&#xd6;" horiz-adv-x="696" 
d="M348 685c52 0 97.333 -8.83301 136 -26.5s70.834 -42 96.501 -73s44.667 -67.833 57 -110.5s18.5 -88.667 18.5 -138s-6.16699 -95.333 -18.5 -138s-31.333 -79.5 -57 -110.5s-57.834 -55.333 -96.501 -73s-84 -26.5 -136 -26.5s-97.333 8.83301 -136 26.5
s-70.834 42 -96.501 73s-44.667 67.833 -57 110.5s-18.5 88.667 -18.5 138s6.16699 95.333 18.5 138s31.333 79.5 57 110.5s57.834 55.333 96.501 73s84 26.5 136 26.5zM348 76c66.667 0 116.667 22.833 150 68.5s50 109.834 50 192.501s-16.667 146.834 -50 192.501
s-83.333 68.5 -150 68.5s-116.667 -22.833 -150 -68.5s-50 -109.834 -50 -192.501s16.667 -146.834 50 -192.501s83.333 -68.5 150 -68.5zM247 865c19.333 0 34 -5.66699 44 -17s15 -24.666 15 -39.999s-5 -28.5 -15 -39.5s-24.667 -16.5 -44 -16.5s-34 5.5 -44 16.5
s-15 24.167 -15 39.5s5 28.666 15 39.999s24.667 17 44 17zM449 865c19.333 0 34 -5.66699 44 -17s15 -24.666 15 -39.999s-5 -28.5 -15 -39.5s-24.667 -16.5 -44 -16.5s-34 5.5 -44 16.5s-15 24.167 -15 39.5s5 28.666 15 39.999s24.667 17 44 17z" />
    <glyph glyph-name="multiply" unicode="&#xd7;" horiz-adv-x="580" 
d="M290 208l-136 -137l-68 68l137 136l-137 137l68 67l136 -136l137 136l67 -67l-136 -137l136 -136l-67 -68z" />
    <glyph glyph-name="Oslash" unicode="&#xd8;" horiz-adv-x="696" 
d="M348 685c30.667 0 58.6689 -3.16895 84.002 -9.50195s48.666 -15.166 69.999 -26.499l40 65h74l-62 -101c34 -32 59.5 -71.667 76.5 -119s25.5 -99.666 25.5 -156.999c0 -49.333 -6.16699 -95.333 -18.5 -138s-31.333 -79.5 -57 -110.5s-57.834 -55.333 -96.501 -73
s-84 -26.5 -136 -26.5c-60 0 -111.333 11.667 -154 35l-39 -64h-74l61 100c-34.667 32 -60.334 71.667 -77.001 119s-25 100 -25 158c0 49.333 6.16699 95.333 18.5 138s31.333 79.5 57 110.5s57.834 55.333 96.501 73s84 26.5 136 26.5zM148.002 336.998
c0 -82 16 -144.999 48 -188.999l258 422c-30 18.667 -65.333 28 -106 28c-66.667 0 -116.667 -22.833 -150 -68.5s-50 -109.834 -50 -192.501zM348.002 75.999c66.667 0 116.667 22.832 150 68.499s50 109.834 50 192.501c0 81.333 -16 144 -48 188l-258 -422
c28.667 -18 64 -27 106 -27z" />
    <glyph glyph-name="Ugrave" unicode="&#xd9;" horiz-adv-x="672" 
d="M336 -11c-40.667 0 -77.3281 5.66699 -109.995 17s-60.334 28.666 -83.001 51.999s-40.167 52.833 -52.5 88.5s-18.5 77.5 -18.5 125.5v402h108v-403c0 -63.333 13.667 -110.666 41 -141.999s65.666 -47 114.999 -47s87.666 15.667 114.999 47s41 78.666 41 141.999v403
h108v-402c0 -48 -6.16699 -89.833 -18.5 -125.5s-29.833 -65.167 -52.5 -88.5s-50.334 -40.666 -83.001 -51.999s-69.334 -17 -110.001 -17zM445.006 780l-30 -45l-187 102l57 79z" />
    <glyph glyph-name="Uacute" unicode="&#xda;" horiz-adv-x="672" 
d="M336 -11c-40.667 0 -77.3281 5.66699 -109.995 17s-60.334 28.666 -83.001 51.999s-40.167 52.833 -52.5 88.5s-18.5 77.5 -18.5 125.5v402h108v-403c0 -63.333 13.667 -110.666 41 -141.999s65.666 -47 114.999 -47s87.666 15.667 114.999 47s41 78.666 41 141.999v403
h108v-402c0 -48 -6.16699 -89.833 -18.5 -125.5s-29.833 -65.167 -52.5 -88.5s-50.334 -40.666 -83.001 -51.999s-69.334 -17 -110.001 -17zM389.006 916l56 -79l-186 -102l-31 45z" />
    <glyph glyph-name="Ucircumflex" unicode="&#xdb;" horiz-adv-x="672" 
d="M336 -11c-40.667 0 -77.3281 5.66699 -109.995 17s-60.334 28.666 -83.001 51.999s-40.167 52.833 -52.5 88.5s-18.5 77.5 -18.5 125.5v402h108v-403c0 -63.333 13.667 -110.666 41 -141.999s65.666 -47 114.999 -47s87.666 15.667 114.999 47s41 78.666 41 141.999v403
h108v-402c0 -48 -6.16699 -89.833 -18.5 -125.5s-29.833 -65.167 -52.5 -88.5s-50.334 -40.666 -83.001 -51.999s-69.334 -17 -110.001 -17zM494.006 738h-104l-54 81l-53 -81h-105l125 144h66z" />
    <glyph glyph-name="Udieresis" unicode="&#xdc;" horiz-adv-x="672" 
d="M336 -11c-40.667 0 -77.3281 5.66699 -109.995 17s-60.334 28.666 -83.001 51.999s-40.167 52.833 -52.5 88.5s-18.5 77.5 -18.5 125.5v402h108v-403c0 -63.333 13.667 -110.666 41 -141.999s65.666 -47 114.999 -47s87.666 15.667 114.999 47s41 78.666 41 141.999v403
h108v-402c0 -48 -6.16699 -89.833 -18.5 -125.5s-29.833 -65.167 -52.5 -88.5s-50.334 -40.666 -83.001 -51.999s-69.334 -17 -110.001 -17zM235.006 865c19.333 0 34 -5.66699 44 -17s15 -24.666 15 -39.999s-5 -28.5 -15 -39.5s-24.667 -16.5 -44 -16.5s-34 5.5 -44 16.5
s-15 24.167 -15 39.5s5 28.666 15 39.999s24.667 17 44 17zM437.006 865c19.333 0 34 -5.66699 44 -17s15 -24.666 15 -39.999s-5 -28.5 -15 -39.5s-24.667 -16.5 -44 -16.5s-34 5.5 -44 16.5s-15 24.167 -15 39.5s5 28.666 15 39.999s24.667 17 44 17z" />
    <glyph glyph-name="Yacute" unicode="&#xdd;" horiz-adv-x="582" 
d="M291 379l163 295h116l-225 -387v-287h-108v287l-225 387h116l163 -295v0zM344 916l56 -79l-186 -102l-31 45z" />
    <glyph glyph-name="Thorn" unicode="&#xde;" horiz-adv-x="576" 
d="M536 339c0 -30 -5.5 -57.833 -16.5 -83.5s-26.667 -48 -47 -67s-45 -34 -74 -45s-61.5 -16.5 -97.5 -16.5h-118v-127h-108v674h108v-127h124c36 0 68.167 -5.33301 96.5 -16s52.333 -25.334 72 -44.001s34.667 -40.667 45 -66s15.5 -52.666 15.5 -81.999zM428 339
c0 35.333 -10.333 62.833 -31 82.5s-50.667 29.5 -90 29.5h-124v-228h118c40 0 71.167 10.167 93.5 30.5s33.5 48.833 33.5 85.5z" />
    <glyph glyph-name="germandbls" unicode="&#xdf;" horiz-adv-x="609" 
d="M175 0l-105.001 -0.00195312v420c0 36.667 5.16699 71 15.5 103s25.833 60 46.5 84s46.834 43 78.501 57s68.5 21 110.5 21c30 0 58.333 -4.33301 85 -13s49.667 -20.834 69 -36.501s34.666 -34.167 45.999 -55.5s17 -44.333 17 -69c0 -20 -3.33301 -37.667 -10 -53
s-15.167 -28.5 -25.5 -39.5s-22 -20 -35 -27s-25.833 -11.833 -38.5 -14.5c18.667 -4.66699 36.334 -12 53.001 -22s31.5 -22.667 44.5 -38s23.333 -33.666 31 -54.999s11.5 -45.666 11.5 -72.999c0 -34 -5.16699 -63.5 -15.5 -88.5s-24.666 -45.5 -42.999 -61.5
s-40 -28 -65 -36s-51.833 -12 -80.5 -12c-28 0 -54.833 2.5 -80.5 7.5s-48.167 13.167 -67.5 24.5l19 74c16.667 -8 35.167 -14.667 55.5 -20s41.166 -8 62.499 -8c34 0 61 10.667 81 32s30 54 30 98s-14.167 78.333 -42.5 103s-69.833 37 -124.5 37h-32v79h68
c31.333 0 56.333 6.83301 75 20.5s28 35.834 28 66.501c0 28.667 -10.667 52 -32 70s-49 27 -83 27c-52 0 -89.5 -16.167 -112.5 -48.5s-34.5 -76.833 -34.5 -133.5v-420z" />
    <glyph glyph-name="agrave" unicode="&#xe0;" horiz-adv-x="508" 
d="M338 229h-84.998c-36.667 0 -64.834 -8 -84.501 -24s-29.5 -38.333 -29.5 -67c0 -21.333 6.5 -38.333 19.5 -51s29.5 -19 49.5 -19c19.333 0 37 3.66699 53 11s29.667 17 41 29s20.166 25.833 26.499 41.5s9.5 31.5 9.5 47.5v32zM38.002 136
c0 58 19.335 100.169 58.002 126.502s91.334 39.5 158.001 39.5h84v16c0 32 -8.66699 55.5 -26 70.5s-41.666 22.5 -72.999 22.5c-28 0 -54 -3.33301 -78 -10s-46.667 -15.667 -68 -27l-24 74c19.333 12 44.666 22.667 75.999 32s65.666 14 102.999 14
c65.333 0 113.666 -16 144.999 -48s47 -76 47 -132v-314h-87l-15 72c-6.66699 -10.667 -14.167 -21 -22.5 -31s-18.333 -18.833 -30 -26.5s-25.5 -13.834 -41.5 -18.501s-35 -7 -57 -7c-20.667 0 -40 3.16699 -58 9.5s-33.833 15.833 -47.5 28.5
s-24.334 28.167 -32.001 46.5s-11.5 39.166 -11.5 62.499zM363.004 584.002l-30 -45l-187 102l57 79z" />
    <glyph glyph-name="aacute" unicode="&#xe1;" horiz-adv-x="508" 
d="M338 229h-84.998c-36.667 0 -64.834 -8 -84.501 -24s-29.5 -38.333 -29.5 -67c0 -21.333 6.5 -38.333 19.5 -51s29.5 -19 49.5 -19c19.333 0 37 3.66699 53 11s29.667 17 41 29s20.166 25.833 26.499 41.5s9.5 31.5 9.5 47.5v32zM38.002 136
c0 58 19.335 100.169 58.002 126.502s91.334 39.5 158.001 39.5h84v16c0 32 -8.66699 55.5 -26 70.5s-41.666 22.5 -72.999 22.5c-28 0 -54 -3.33301 -78 -10s-46.667 -15.667 -68 -27l-24 74c19.333 12 44.666 22.667 75.999 32s65.666 14 102.999 14
c65.333 0 113.666 -16 144.999 -48s47 -76 47 -132v-314h-87l-15 72c-6.66699 -10.667 -14.167 -21 -22.5 -31s-18.333 -18.833 -30 -26.5s-25.5 -13.834 -41.5 -18.501s-35 -7 -57 -7c-20.667 0 -40 3.16699 -58 9.5s-33.833 15.833 -47.5 28.5
s-24.334 28.167 -32.001 46.5s-11.5 39.166 -11.5 62.499zM307.004 720.002l56 -79l-186 -102l-31 45z" />
    <glyph glyph-name="acircumflex" unicode="&#xe2;" horiz-adv-x="508" 
d="M338 229h-84.998c-36.667 0 -64.834 -8 -84.501 -24s-29.5 -38.333 -29.5 -67c0 -21.333 6.5 -38.333 19.5 -51s29.5 -19 49.5 -19c19.333 0 37 3.66699 53 11s29.667 17 41 29s20.166 25.833 26.499 41.5s9.5 31.5 9.5 47.5v32zM38.002 136
c0 58 19.335 100.169 58.002 126.502s91.334 39.5 158.001 39.5h84v16c0 32 -8.66699 55.5 -26 70.5s-41.666 22.5 -72.999 22.5c-28 0 -54 -3.33301 -78 -10s-46.667 -15.667 -68 -27l-24 74c19.333 12 44.666 22.667 75.999 32s65.666 14 102.999 14
c65.333 0 113.666 -16 144.999 -48s47 -76 47 -132v-314h-87l-15 72c-6.66699 -10.667 -14.167 -21 -22.5 -31s-18.333 -18.833 -30 -26.5s-25.5 -13.834 -41.5 -18.501s-35 -7 -57 -7c-20.667 0 -40 3.16699 -58 9.5s-33.833 15.833 -47.5 28.5
s-24.334 28.167 -32.001 46.5s-11.5 39.166 -11.5 62.499zM412.004 542.002h-104l-54 81l-53 -81h-105l125 144h66z" />
    <glyph glyph-name="atilde" unicode="&#xe3;" horiz-adv-x="508" 
d="M338 229h-84.998c-36.667 0 -64.834 -8 -84.501 -24s-29.5 -38.333 -29.5 -67c0 -21.333 6.5 -38.333 19.5 -51s29.5 -19 49.5 -19c19.333 0 37 3.66699 53 11s29.667 17 41 29s20.166 25.833 26.499 41.5s9.5 31.5 9.5 47.5v32zM38.002 136
c0 58 19.335 100.169 58.002 126.502s91.334 39.5 158.001 39.5h84v16c0 32 -8.66699 55.5 -26 70.5s-41.666 22.5 -72.999 22.5c-28 0 -54 -3.33301 -78 -10s-46.667 -15.667 -68 -27l-24 74c19.333 12 44.666 22.667 75.999 32s65.666 14 102.999 14
c65.333 0 113.666 -16 144.999 -48s47 -76 47 -132v-314h-87l-15 72c-6.66699 -10.667 -14.167 -21 -22.5 -31s-18.333 -18.833 -30 -26.5s-25.5 -13.834 -41.5 -18.501s-35 -7 -57 -7c-20.667 0 -40 3.16699 -58 9.5s-33.833 15.833 -47.5 28.5
s-24.334 28.167 -32.001 46.5s-11.5 39.166 -11.5 62.499zM412.004 667.002c0 -36 -7.83301 -63.834 -23.5 -83.501s-37.5 -29.5 -65.5 -29.5c-16 0 -29.833 2.5 -41.5 7.5s-22.334 10.667 -32.001 17l-27 17c-8.33301 5 -17.166 7.5 -26.499 7.5
c-13.333 0 -22.166 -4.66699 -26.499 -14s-6.5 -19.666 -6.5 -30.999h-67c0 34.667 7.5 62.167 22.5 82.5s37.5 30.5 67.5 30.5c15.333 0 29 -2.66699 41 -8s23 -11 33 -17s19 -11.667 27 -17s16 -8 24 -8c13.333 0 22.166 4.33301 26.499 13s6.5 19.667 6.5 33h68z" />
    <glyph glyph-name="adieresis" unicode="&#xe4;" horiz-adv-x="508" 
d="M338 229h-84.998c-36.667 0 -64.834 -8 -84.501 -24s-29.5 -38.333 -29.5 -67c0 -21.333 6.5 -38.333 19.5 -51s29.5 -19 49.5 -19c19.333 0 37 3.66699 53 11s29.667 17 41 29s20.166 25.833 26.499 41.5s9.5 31.5 9.5 47.5v32zM38.002 136
c0 58 19.335 100.169 58.002 126.502s91.334 39.5 158.001 39.5h84v16c0 32 -8.66699 55.5 -26 70.5s-41.666 22.5 -72.999 22.5c-28 0 -54 -3.33301 -78 -10s-46.667 -15.667 -68 -27l-24 74c19.333 12 44.666 22.667 75.999 32s65.666 14 102.999 14
c65.333 0 113.666 -16 144.999 -48s47 -76 47 -132v-314h-87l-15 72c-6.66699 -10.667 -14.167 -21 -22.5 -31s-18.333 -18.833 -30 -26.5s-25.5 -13.834 -41.5 -18.501s-35 -7 -57 -7c-20.667 0 -40 3.16699 -58 9.5s-33.833 15.833 -47.5 28.5
s-24.334 28.167 -32.001 46.5s-11.5 39.166 -11.5 62.499zM153.004 669.002c19.333 0 34 -5.66699 44 -17s15 -24.666 15 -39.999s-5 -28.5 -15 -39.5s-24.667 -16.5 -44 -16.5s-34 5.5 -44 16.5s-15 24.167 -15 39.5s5 28.666 15 39.999s24.667 17 44 17zM355.004 669.002
c19.333 0 34 -5.66699 44 -17s15 -24.666 15 -39.999s-5 -28.5 -15 -39.5s-24.667 -16.5 -44 -16.5s-34 5.5 -44 16.5s-15 24.167 -15 39.5s5 28.666 15 39.999s24.667 17 44 17z" />
    <glyph glyph-name="aring" unicode="&#xe5;" horiz-adv-x="508" 
d="M338 229h-84.998c-36.667 0 -64.834 -8 -84.501 -24s-29.5 -38.333 -29.5 -67c0 -21.333 6.5 -38.333 19.5 -51s29.5 -19 49.5 -19c19.333 0 37 3.66699 53 11s29.667 17 41 29s20.166 25.833 26.499 41.5s9.5 31.5 9.5 47.5v32zM38.002 136
c0 58 19.335 100.169 58.002 126.502s91.334 39.5 158.001 39.5h84v16c0 32 -8.66699 55.5 -26 70.5s-41.666 22.5 -72.999 22.5c-28 0 -54 -3.33301 -78 -10s-46.667 -15.667 -68 -27l-24 74c19.333 12 44.666 22.667 75.999 32s65.666 14 102.999 14
c65.333 0 113.666 -16 144.999 -48s47 -76 47 -132v-314h-87l-15 72c-6.66699 -10.667 -14.167 -21 -22.5 -31s-18.333 -18.833 -30 -26.5s-25.5 -13.834 -41.5 -18.501s-35 -7 -57 -7c-20.667 0 -40 3.16699 -58 9.5s-33.833 15.833 -47.5 28.5
s-24.334 28.167 -32.001 46.5s-11.5 39.166 -11.5 62.499zM254.004 730.002c28 0 51.502 -9.33301 70.502 -28s28.5 -41.667 28.5 -69c0 -26.667 -9.33301 -49.334 -28 -68.001s-42.334 -28 -71.001 -28s-52.334 9.33301 -71.001 28s-28 41.334 -28 68.001
c0 27.333 9.5 50.333 28.5 69s42.5 28 70.5 28zM254.006 591.002c11.333 0 20.5 3.83301 27.5 11.5s10.5 18.167 10.5 31.5c0 12.667 -3.5 22.834 -10.5 30.501s-16.167 11.5 -27.5 11.5s-20.5 -3.83301 -27.5 -11.5s-10.5 -17.834 -10.5 -30.501
c0 -13.333 3.5 -23.833 10.5 -31.5s16.167 -11.5 27.5 -11.5z" />
    <glyph glyph-name="ae" unicode="&#xe6;" horiz-adv-x="790" 
d="M443 201c12 -86 58.6611 -129 139.994 -129c42 0 81.667 9.33301 119 28l23 -76c-21.333 -11.333 -44.166 -20 -68.499 -26s-52.5 -9 -84.5 -9c-25.333 0 -47.666 2.66699 -66.999 8s-36.333 12.833 -51 22.5s-27.167 21.334 -37.5 35.001s-19.166 28.834 -26.499 45.501
c-16 -30.667 -40.333 -56.834 -73 -78.501s-72.667 -32.5 -120 -32.5c-22.667 0 -43.667 3.16699 -63 9.5s-36.166 15.833 -50.499 28.5s-25.5 28.167 -33.5 46.5s-12 39.166 -12 62.499c0 58 19.5 100.167 58.5 126.5s92.167 39.5 159.5 39.5h85v16
c0 32 -8.83301 55.5 -26.5 70.5s-42.5 22.5 -74.5 22.5c-28 0 -54.167 -3.33301 -78.5 -10s-47.166 -15.667 -68.499 -27l-24 74c19.333 12 45 22.667 77 32s66.333 14 103 14c39.333 0 71.333 -6.5 96 -19.5s43.667 -31.167 57 -54.5c15.333 21.333 36.333 39 63 53
s58 21 94 21c32 0 60.167 -5 84.5 -15s44.5 -24 60.5 -42s28 -39.667 36 -65s12 -53 12 -83c0 -16 -1.16699 -31.667 -3.5 -47s-5.16602 -29 -8.49902 -41h-297zM340.994 229l-86.001 -0.000976562c-37.333 0 -66 -8 -86 -24s-30 -38.333 -30 -67
c0 -21.333 6.66699 -38.333 20 -51s30 -19 50 -19c19.333 0 37 3.5 53 10.5s29.833 16.333 41.5 28s20.834 25.334 27.501 41.001s10 32.167 10 49.5v32zM559.993 414.999c-39.333 0 -68 -13.5 -86 -40.5s-28.333 -62.167 -31 -105.5h211v18
c0 40.667 -6.83301 72.167 -20.5 94.5s-38.167 33.5 -73.5 33.5z" />
    <glyph glyph-name="ccedilla" unicode="&#xe7;" horiz-adv-x="463" 
d="M284 72c21.333 0 42.668 2.49902 64.001 7.49902s41.666 12.833 60.999 23.5l24 -76c-44.667 -25.333 -96.334 -38 -155.001 -38c-40 0 -75 6.5 -105 19.5s-55 31 -75 54s-35 49.833 -45 80.5s-15 63.667 -15 99c0 34.667 5 67.334 15 98.001s25 57.5 45 80.5
s45.167 41 75.5 54s66.166 19.5 107.499 19.5c26.667 0 52.334 -2.83301 77.001 -8.5s47.667 -14.5 69 -26.5l-23 -76c-36 18.667 -75.667 28 -119 28c-49.333 0 -85.166 -15.667 -107.499 -47s-33.5 -72 -33.5 -122c0 -50.667 11.333 -91.667 34 -123s58 -47 106 -47z
M262.002 -175.001h-112l94 135h67z" />
    <glyph glyph-name="egrave" unicode="&#xe8;" horiz-adv-x="505" 
d="M145 201c6 -44 21.833 -76.501 47.5 -97.501s58.5 -31.5 98.5 -31.5c21.333 0 42.666 2.33301 63.999 7s41.666 11.667 60.999 21l24 -76c-43.333 -23.333 -96.666 -35 -159.999 -35c-40 0 -75 5.83301 -105 17.5s-55 28.5 -75 50.5s-35 48.667 -45 80
s-15 66.333 -15 105c0 34.667 4.33301 67.334 13 98.001s22.167 57.5 40.5 80.5s41.833 41 70.5 54s63 19.5 103 19.5c32.667 0 61.5 -5 86.5 -15s46 -24 63 -42s29.667 -39.667 38 -65s12.5 -53 12.5 -83c0 -16 -1.16699 -31.667 -3.5 -47s-5.16602 -29 -8.49902 -41h-310z
M268 414.999c-40 0 -70.168 -13.333 -90.501 -40s-32.166 -62 -35.499 -106h226v18c0 40.667 -7.83301 72.167 -23.5 94.5s-41.167 33.5 -76.5 33.5zM360.999 583.999l-30 -45l-187 102l57 79z" />
    <glyph glyph-name="eacute" unicode="&#xe9;" horiz-adv-x="505" 
d="M145 201c6 -44 21.833 -76.501 47.5 -97.501s58.5 -31.5 98.5 -31.5c21.333 0 42.666 2.33301 63.999 7s41.666 11.667 60.999 21l24 -76c-43.333 -23.333 -96.666 -35 -159.999 -35c-40 0 -75 5.83301 -105 17.5s-55 28.5 -75 50.5s-35 48.667 -45 80
s-15 66.333 -15 105c0 34.667 4.33301 67.334 13 98.001s22.167 57.5 40.5 80.5s41.833 41 70.5 54s63 19.5 103 19.5c32.667 0 61.5 -5 86.5 -15s46 -24 63 -42s29.667 -39.667 38 -65s12.5 -53 12.5 -83c0 -16 -1.16699 -31.667 -3.5 -47s-5.16602 -29 -8.49902 -41h-310z
M268 414.999c-40 0 -70.168 -13.333 -90.501 -40s-32.166 -62 -35.499 -106h226v18c0 40.667 -7.83301 72.167 -23.5 94.5s-41.167 33.5 -76.5 33.5zM304.999 719.999l56 -79l-186 -102l-31 45z" />
    <glyph glyph-name="ecircumflex" unicode="&#xea;" horiz-adv-x="505" 
d="M145 201c6 -44 21.833 -76.501 47.5 -97.501s58.5 -31.5 98.5 -31.5c21.333 0 42.666 2.33301 63.999 7s41.666 11.667 60.999 21l24 -76c-43.333 -23.333 -96.666 -35 -159.999 -35c-40 0 -75 5.83301 -105 17.5s-55 28.5 -75 50.5s-35 48.667 -45 80
s-15 66.333 -15 105c0 34.667 4.33301 67.334 13 98.001s22.167 57.5 40.5 80.5s41.833 41 70.5 54s63 19.5 103 19.5c32.667 0 61.5 -5 86.5 -15s46 -24 63 -42s29.667 -39.667 38 -65s12.5 -53 12.5 -83c0 -16 -1.16699 -31.667 -3.5 -47s-5.16602 -29 -8.49902 -41h-310z
M268 414.999c-40 0 -70.168 -13.333 -90.501 -40s-32.166 -62 -35.499 -106h226v18c0 40.667 -7.83301 72.167 -23.5 94.5s-41.167 33.5 -76.5 33.5zM409.999 541.999h-104l-54 81l-53 -81h-105l125 144h66z" />
    <glyph glyph-name="edieresis" unicode="&#xeb;" horiz-adv-x="505" 
d="M145 201c6 -44 21.833 -76.501 47.5 -97.501s58.5 -31.5 98.5 -31.5c21.333 0 42.666 2.33301 63.999 7s41.666 11.667 60.999 21l24 -76c-43.333 -23.333 -96.666 -35 -159.999 -35c-40 0 -75 5.83301 -105 17.5s-55 28.5 -75 50.5s-35 48.667 -45 80
s-15 66.333 -15 105c0 34.667 4.33301 67.334 13 98.001s22.167 57.5 40.5 80.5s41.833 41 70.5 54s63 19.5 103 19.5c32.667 0 61.5 -5 86.5 -15s46 -24 63 -42s29.667 -39.667 38 -65s12.5 -53 12.5 -83c0 -16 -1.16699 -31.667 -3.5 -47s-5.16602 -29 -8.49902 -41h-310z
M268 414.999c-40 0 -70.168 -13.333 -90.501 -40s-32.166 -62 -35.499 -106h226v18c0 40.667 -7.83301 72.167 -23.5 94.5s-41.167 33.5 -76.5 33.5zM150.999 668.999c19.333 0 34 -5.66699 44 -17s15 -24.666 15 -39.999s-5 -28.5 -15 -39.5s-24.667 -16.5 -44 -16.5
s-34 5.5 -44 16.5s-15 24.167 -15 39.5s5 28.666 15 39.999s24.667 17 44 17zM352.999 668.999c19.333 0 34 -5.66699 44 -17s15 -24.666 15 -39.999s-5 -28.5 -15 -39.5s-24.667 -16.5 -44 -16.5s-34 5.5 -44 16.5s-15 24.167 -15 39.5s5 28.666 15 39.999s24.667 17 44 17
z" />
    <glyph glyph-name="igrave" unicode="&#xec;" horiz-adv-x="254" 
d="M180 0h-106v483h106v-483zM236 584l-30 -45l-187 102l57 79z" />
    <glyph glyph-name="iacute" unicode="&#xed;" horiz-adv-x="254" 
d="M180 0h-106v483h106v-483zM181 720l56 -79l-186 -102l-31 45z" />
    <glyph glyph-name="icircumflex" unicode="&#xee;" horiz-adv-x="254" 
d="M180 0h-106v483h106v-483zM286 542h-104l-54 81l-53 -81h-105l125 144h66z" />
    <glyph glyph-name="idieresis" unicode="&#xef;" horiz-adv-x="254" 
d="M180 0h-106v483h106v-483zM27 669c19.333 0 34 -5.66699 44 -17s15 -24.666 15 -39.999s-5 -28.5 -15 -39.5s-24.667 -16.5 -44 -16.5s-34 5.5 -44 16.5s-15 24.167 -15 39.5s5 28.666 15 39.999s24.667 17 44 17zM229 669c19.333 0 34 -5.66699 44 -17
s15 -24.666 15 -39.999s-5 -28.5 -15 -39.5s-24.667 -16.5 -44 -16.5s-34 5.5 -44 16.5s-15 24.167 -15 39.5s5 28.666 15 39.999s24.667 17 44 17z" />
    <glyph glyph-name="eth" unicode="&#xf0;" horiz-adv-x="556" 
d="M185 506l-21.999 48.999l83 40c-32.667 21.333 -66.334 37.666 -101.001 48.999l36 64c52.667 -18 100.334 -43.333 143.001 -76l118 55l25 -49l-97 -45c46.667 -44 82.667 -95.5 108 -154.5s38 -122.833 38 -191.5c0 -37.333 -5.5 -71.666 -16.5 -102.999
s-27 -58.5 -48 -81.5s-46.333 -41 -76 -54s-62.834 -19.5 -99.501 -19.5c-36 0 -68.667 6.33301 -98 19s-54.333 29.834 -75 51.501s-36.667 47.334 -48 77.001s-17 61.5 -17 95.5s5.83301 66.167 17.5 96.5s27.667 57 48 80s44 41.333 71 55s56.167 20.5 87.5 20.5
s58.166 -5.33301 80.499 -16s40.5 -23.667 54.5 -39h2c-7.33301 21.333 -20.166 43.166 -38.499 65.499s-39.833 43.5 -64.5 63.5zM415.001 237.999c0 22 -2.83496 42.835 -8.50195 62.502s-14.167 37 -25.5 52s-25.666 27 -42.999 36s-37.333 13.5 -60 13.5
c-22 0 -41.5 -4.5 -58.5 -13.5s-31.333 -21 -43 -36s-20.5 -32.833 -26.5 -53.5s-9 -42.334 -9 -65.001c0 -22 3 -42.833 9 -62.5s14.833 -36.834 26.5 -51.501s25.834 -26.334 42.501 -35.001s35.667 -13 57 -13c22 0 41.5 5.16699 58.5 15.5s31.5 23.5 43.5 39.5
s21.167 33.833 27.5 53.5s9.5 38.834 9.5 57.501z" />
    <glyph glyph-name="ntilde" unicode="&#xf1;" horiz-adv-x="568" 
d="M176 0l-106.002 0.00195312v483h92l14 -68c6.66699 8.66699 15.334 17.667 26.001 27s23 17.833 37 25.5s29.333 14 46 19s34.667 7.5 54 7.5c50 0 89.333 -16.833 118 -50.5s43 -80.834 43 -141.501v-302h-106v300c0 33.333 -6.83301 59.166 -20.5 77.499
s-34.5 27.5 -62.5 27.5s-53.667 -7 -77 -21s-42.666 -31 -57.999 -51v-333zM441.998 667.002c0 -36 -7.83301 -63.834 -23.5 -83.501s-37.5 -29.5 -65.5 -29.5c-16 0 -29.833 2.5 -41.5 7.5s-22.334 10.667 -32.001 17l-27 17c-8.33301 5 -17.166 7.5 -26.499 7.5
c-13.333 0 -22.166 -4.66699 -26.499 -14s-6.5 -19.666 -6.5 -30.999h-67c0 34.667 7.5 62.167 22.5 82.5s37.5 30.5 67.5 30.5c15.333 0 29 -2.66699 41 -8s23 -11 33 -17s19 -11.667 27 -17s16 -8 24 -8c13.333 0 22.166 4.33301 26.499 13s6.5 19.667 6.5 33h68z" />
    <glyph glyph-name="ograve" unicode="&#xf2;" horiz-adv-x="550" 
d="M146 242c0 -50.667 10.333 -91.667 31 -123s53.334 -47 98.001 -47s77.5 15.667 98.5 47s31.5 72.333 31.5 123c0 50 -10.5 90.667 -31.5 122s-53.833 47 -98.5 47s-77.334 -15.667 -98.001 -47s-31 -72 -31 -122zM40 242c0 34.667 4.83301 67.334 14.5 98.001
s24.167 57.5 43.5 80.5s43.666 41 72.999 54s64 19.5 104 19.5s74.667 -6.5 104 -19.5s53.833 -31 73.5 -54s34.167 -49.833 43.5 -80.5s14 -63.334 14 -98.001c0 -35.333 -4.66699 -68.333 -14 -99s-23.833 -57.5 -43.5 -80.5s-44.167 -41 -73.5 -54s-64 -19.5 -104 -19.5
s-74.667 6.5 -104 19.5s-53.666 31 -72.999 54s-33.833 49.833 -43.5 80.5s-14.5 63.667 -14.5 99zM384 584l-30 -45l-187 102l57 79z" />
    <glyph glyph-name="oacute" unicode="&#xf3;" horiz-adv-x="550" 
d="M146 242c0 -50.667 10.333 -91.667 31 -123s53.334 -47 98.001 -47s77.5 15.667 98.5 47s31.5 72.333 31.5 123c0 50 -10.5 90.667 -31.5 122s-53.833 47 -98.5 47s-77.334 -15.667 -98.001 -47s-31 -72 -31 -122zM40 242c0 34.667 4.83301 67.334 14.5 98.001
s24.167 57.5 43.5 80.5s43.666 41 72.999 54s64 19.5 104 19.5s74.667 -6.5 104 -19.5s53.833 -31 73.5 -54s34.167 -49.833 43.5 -80.5s14 -63.334 14 -98.001c0 -35.333 -4.66699 -68.333 -14 -99s-23.833 -57.5 -43.5 -80.5s-44.167 -41 -73.5 -54s-64 -19.5 -104 -19.5
s-74.667 6.5 -104 19.5s-53.666 31 -72.999 54s-33.833 49.833 -43.5 80.5s-14.5 63.667 -14.5 99zM328 720l56 -79l-186 -102l-31 45z" />
    <glyph glyph-name="ocircumflex" unicode="&#xf4;" horiz-adv-x="550" 
d="M146 242c0 -50.667 10.333 -91.667 31 -123s53.334 -47 98.001 -47s77.5 15.667 98.5 47s31.5 72.333 31.5 123c0 50 -10.5 90.667 -31.5 122s-53.833 47 -98.5 47s-77.334 -15.667 -98.001 -47s-31 -72 -31 -122zM40 242c0 34.667 4.83301 67.334 14.5 98.001
s24.167 57.5 43.5 80.5s43.666 41 72.999 54s64 19.5 104 19.5s74.667 -6.5 104 -19.5s53.833 -31 73.5 -54s34.167 -49.833 43.5 -80.5s14 -63.334 14 -98.001c0 -35.333 -4.66699 -68.333 -14 -99s-23.833 -57.5 -43.5 -80.5s-44.167 -41 -73.5 -54s-64 -19.5 -104 -19.5
s-74.667 6.5 -104 19.5s-53.666 31 -72.999 54s-33.833 49.833 -43.5 80.5s-14.5 63.667 -14.5 99zM433 542h-104l-54 81l-53 -81h-105l125 144h66z" />
    <glyph glyph-name="otilde" unicode="&#xf5;" horiz-adv-x="550" 
d="M146 242c0 -50.667 10.333 -91.667 31 -123s53.334 -47 98.001 -47s77.5 15.667 98.5 47s31.5 72.333 31.5 123c0 50 -10.5 90.667 -31.5 122s-53.833 47 -98.5 47s-77.334 -15.667 -98.001 -47s-31 -72 -31 -122zM40 242c0 34.667 4.83301 67.334 14.5 98.001
s24.167 57.5 43.5 80.5s43.666 41 72.999 54s64 19.5 104 19.5s74.667 -6.5 104 -19.5s53.833 -31 73.5 -54s34.167 -49.833 43.5 -80.5s14 -63.334 14 -98.001c0 -35.333 -4.66699 -68.333 -14 -99s-23.833 -57.5 -43.5 -80.5s-44.167 -41 -73.5 -54s-64 -19.5 -104 -19.5
s-74.667 6.5 -104 19.5s-53.666 31 -72.999 54s-33.833 49.833 -43.5 80.5s-14.5 63.667 -14.5 99zM433 667c0 -36 -7.83301 -63.834 -23.5 -83.501s-37.5 -29.5 -65.5 -29.5c-16 0 -29.833 2.5 -41.5 7.5s-22.334 10.667 -32.001 17l-27 17
c-8.33301 5 -17.166 7.5 -26.499 7.5c-13.333 0 -22.166 -4.66699 -26.499 -14s-6.5 -19.666 -6.5 -30.999h-67c0 34.667 7.5 62.167 22.5 82.5s37.5 30.5 67.5 30.5c15.333 0 29 -2.66699 41 -8s23 -11 33 -17s19 -11.667 27 -17s16 -8 24 -8
c13.333 0 22.166 4.33301 26.499 13s6.5 19.667 6.5 33h68z" />
    <glyph glyph-name="odieresis" unicode="&#xf6;" horiz-adv-x="550" 
d="M146 242c0 -50.667 10.333 -91.667 31 -123s53.334 -47 98.001 -47s77.5 15.667 98.5 47s31.5 72.333 31.5 123c0 50 -10.5 90.667 -31.5 122s-53.833 47 -98.5 47s-77.334 -15.667 -98.001 -47s-31 -72 -31 -122zM40 242c0 34.667 4.83301 67.334 14.5 98.001
s24.167 57.5 43.5 80.5s43.666 41 72.999 54s64 19.5 104 19.5s74.667 -6.5 104 -19.5s53.833 -31 73.5 -54s34.167 -49.833 43.5 -80.5s14 -63.334 14 -98.001c0 -35.333 -4.66699 -68.333 -14 -99s-23.833 -57.5 -43.5 -80.5s-44.167 -41 -73.5 -54s-64 -19.5 -104 -19.5
s-74.667 6.5 -104 19.5s-53.666 31 -72.999 54s-33.833 49.833 -43.5 80.5s-14.5 63.667 -14.5 99zM174 669c19.333 0 34 -5.66699 44 -17s15 -24.666 15 -39.999s-5 -28.5 -15 -39.5s-24.667 -16.5 -44 -16.5s-34 5.5 -44 16.5s-15 24.167 -15 39.5s5 28.666 15 39.999
s24.667 17 44 17zM376 669c19.333 0 34 -5.66699 44 -17s15 -24.666 15 -39.999s-5 -28.5 -15 -39.5s-24.667 -16.5 -44 -16.5s-34 5.5 -44 16.5s-15 24.167 -15 39.5s5 28.666 15 39.999s24.667 17 44 17z" />
    <glyph glyph-name="divide" unicode="&#xf7;" horiz-adv-x="580" 
d="M501 241h-422v85h422v-85zM217 120c0 18.667 6.16699 34.834 18.5 48.501s29.833 20.5 52.5 20.5c23.333 0 41 -6.83301 53 -20.5s18 -29.834 18 -48.501s-6 -34.834 -18 -48.501s-29.667 -20.5 -53 -20.5c-22.667 0 -40.167 6.83301 -52.5 20.5
s-18.5 29.834 -18.5 48.501zM217 448c0 18.667 6.16699 34.834 18.5 48.501s29.833 20.5 52.5 20.5c23.333 0 41 -6.83301 53 -20.5s18 -29.834 18 -48.501s-6 -34.834 -18 -48.501s-29.667 -20.5 -53 -20.5c-22.667 0 -40.167 6.83301 -52.5 20.5
s-18.5 29.834 -18.5 48.501z" />
    <glyph glyph-name="oslash" unicode="&#xf8;" horiz-adv-x="550" 
d="M40 242c0 34.667 4.83496 67.3301 14.502 97.9971s24.167 57.5 43.5 80.5s43.666 41 72.999 54s64 19.5 104 19.5c19.333 0 37.166 -1.66699 53.499 -5s31.833 -7.66602 46.5 -12.999l34 57h69l-52 -87c28 -23.333 49 -52.666 63 -87.999s21 -74 21 -116
c0 -35.333 -4.66699 -68.333 -14 -99s-23.833 -57.5 -43.5 -80.5s-44.167 -41 -73.5 -54s-64 -19.5 -104 -19.5c-21.333 0 -40.833 1.83301 -58.5 5.5s-34.167 8.83398 -49.5 15.501l-30 -50h-69l49 83c-26 23.333 -45.333 52 -58 86s-19 71.667 -19 113zM405.002 241.996
c0 49.333 -10 89 -30 119l-163 -274c18 -10 39 -15 63 -15c44.667 0 77.5 15.667 98.5 47s31.5 72.333 31.5 123zM146.002 241.996c0 -45.333 8.00098 -82.333 24.001 -111l160 269c-16.667 7.33301 -35 11 -55 11c-44.667 0 -77.334 -15.667 -98.001 -47s-31 -72 -31 -122z
" />
    <glyph glyph-name="ugrave" unicode="&#xf9;" horiz-adv-x="561" 
d="M385 483l106.002 -0.000976562v-483h-91l-15 72c-6.66699 -9.33301 -14.834 -18.833 -24.501 -28.5s-21 -18.5 -34 -26.5s-27.5 -14.667 -43.5 -20s-33.667 -8 -53 -8c-50 0 -89.5 15 -118.5 45s-43.5 77.333 -43.5 142v307h105v-305c0 -34 7.16699 -59.333 21.5 -76
s34.5 -25 60.5 -25c28.667 0 53.667 7.83301 75 23.5s39.666 33.834 54.999 54.501v328zM389.002 583.999l-30 -45l-187 102l57 79z" />
    <glyph glyph-name="uacute" unicode="&#xfa;" horiz-adv-x="561" 
d="M385 483l106.002 -0.000976562v-483h-91l-15 72c-6.66699 -9.33301 -14.834 -18.833 -24.501 -28.5s-21 -18.5 -34 -26.5s-27.5 -14.667 -43.5 -20s-33.667 -8 -53 -8c-50 0 -89.5 15 -118.5 45s-43.5 77.333 -43.5 142v307h105v-305c0 -34 7.16699 -59.333 21.5 -76
s34.5 -25 60.5 -25c28.667 0 53.667 7.83301 75 23.5s39.666 33.834 54.999 54.501v328zM333.002 719.999l56 -79l-186 -102l-31 45z" />
    <glyph glyph-name="ucircumflex" unicode="&#xfb;" horiz-adv-x="561" 
d="M385 483l106.002 -0.000976562v-483h-91l-15 72c-6.66699 -9.33301 -14.834 -18.833 -24.501 -28.5s-21 -18.5 -34 -26.5s-27.5 -14.667 -43.5 -20s-33.667 -8 -53 -8c-50 0 -89.5 15 -118.5 45s-43.5 77.333 -43.5 142v307h105v-305c0 -34 7.16699 -59.333 21.5 -76
s34.5 -25 60.5 -25c28.667 0 53.667 7.83301 75 23.5s39.666 33.834 54.999 54.501v328zM438.002 541.999h-104l-54 81l-53 -81h-105l125 144h66z" />
    <glyph glyph-name="udieresis" unicode="&#xfc;" horiz-adv-x="561" 
d="M385 483l106.002 -0.000976562v-483h-91l-15 72c-6.66699 -9.33301 -14.834 -18.833 -24.501 -28.5s-21 -18.5 -34 -26.5s-27.5 -14.667 -43.5 -20s-33.667 -8 -53 -8c-50 0 -89.5 15 -118.5 45s-43.5 77.333 -43.5 142v307h105v-305c0 -34 7.16699 -59.333 21.5 -76
s34.5 -25 60.5 -25c28.667 0 53.667 7.83301 75 23.5s39.666 33.834 54.999 54.501v328zM179.002 668.999c19.333 0 34 -5.66699 44 -17s15 -24.666 15 -39.999s-5 -28.5 -15 -39.5s-24.667 -16.5 -44 -16.5s-34 5.5 -44 16.5s-15 24.167 -15 39.5s5 28.666 15 39.999
s24.667 17 44 17zM381.002 668.999c19.333 0 34 -5.66699 44 -17s15 -24.666 15 -39.999s-5 -28.5 -15 -39.5s-24.667 -16.5 -44 -16.5s-34 5.5 -44 16.5s-15 24.167 -15 39.5s5 28.666 15 39.999s24.667 17 44 17z" />
    <glyph glyph-name="yacute" unicode="&#xfd;" horiz-adv-x="560" 
d="M385 83c-6 -9.33301 -13.833 -19 -23.5 -29s-21 -19 -34 -27s-27.5 -14.5 -43.5 -19.5s-33.667 -7.5 -53 -7.5c-50 0 -89.667 15 -119 45s-44 77.333 -44 142v296h105v-294c0 -34 7.33301 -59.333 22 -76s35 -25 61 -25c28.667 0 53.5 7.83301 74.5 23.5
s38.833 33.834 53.5 54.501v317h106v-443c0 -42 -5.66699 -78.333 -17 -109s-27.166 -55.834 -47.499 -75.501s-44.666 -34.167 -72.999 -43.5s-59.833 -14 -94.5 -14s-67.834 4.33301 -99.501 13s-57.5 19.667 -77.5 33l26 83c43.333 -26.667 90 -40 140 -40
c43.333 0 77.166 11 101.499 33s36.5 61 36.5 117v46zM333 720l56 -79l-186 -102l-31 45z" />
    <glyph glyph-name="thorn" unicode="&#xfe;" horiz-adv-x="565" 
d="M178 232c0 -23.333 3.16602 -44.501 9.49902 -63.501s15 -35.167 26 -48.5s24 -23.666 39 -30.999s30.833 -11 47.5 -11c16 0 31.333 3 46 9s27.5 15.667 38.5 29s19.667 31 26 53s9.5 48.667 9.5 80c0 50 -10.167 88.5 -30.5 115.5s-47.5 40.5 -81.5 40.5
c-26.667 0 -51.167 -7 -73.5 -21s-41.166 -31 -56.499 -51v-101zM71.999 673.999l106.003 0.00195312v-259c6.66699 8.66699 15.167 17.667 25.5 27s22.166 17.833 35.499 25.5s28.166 14 44.499 19s33.833 7.5 52.5 7.5c32.667 0 60.834 -7 84.501 -21
s43.167 -32.333 58.5 -55s26.833 -48.834 34.5 -78.501s11.5 -59.834 11.5 -90.501c0 -42 -5 -79.167 -15 -111.5s-24 -59.5 -42 -81.5s-39.167 -38.667 -63.5 -50s-50.5 -17 -78.5 -17c-36.667 0 -67.334 8.5 -92.001 25.5s-43.334 36.167 -56.001 57.5v-263h-106v865z" />
    <glyph glyph-name="ydieresis" unicode="&#xff;" horiz-adv-x="560" 
d="M385 83c-6 -9.33301 -13.833 -19 -23.5 -29s-21 -19 -34 -27s-27.5 -14.5 -43.5 -19.5s-33.667 -7.5 -53 -7.5c-50 0 -89.667 15 -119 45s-44 77.333 -44 142v296h105v-294c0 -34 7.33301 -59.333 22 -76s35 -25 61 -25c28.667 0 53.5 7.83301 74.5 23.5
s38.833 33.834 53.5 54.501v317h106v-443c0 -42 -5.66699 -78.333 -17 -109s-27.166 -55.834 -47.499 -75.501s-44.666 -34.167 -72.999 -43.5s-59.833 -14 -94.5 -14s-67.834 4.33301 -99.501 13s-57.5 19.667 -77.5 33l26 83c43.333 -26.667 90 -40 140 -40
c43.333 0 77.166 11 101.499 33s36.5 61 36.5 117v46zM179 669c19.333 0 34 -5.66699 44 -17s15 -24.666 15 -39.999s-5 -28.5 -15 -39.5s-24.667 -16.5 -44 -16.5s-34 5.5 -44 16.5s-15 24.167 -15 39.5s5 28.666 15 39.999s24.667 17 44 17zM381 669
c19.333 0 34 -5.66699 44 -17s15 -24.666 15 -39.999s-5 -28.5 -15 -39.5s-24.667 -16.5 -44 -16.5s-34 5.5 -44 16.5s-15 24.167 -15 39.5s5 28.666 15 39.999s24.667 17 44 17z" />
    <glyph glyph-name="dotlessi" unicode="&#x131;" horiz-adv-x="254" 
d="M180 0h-106v483h106v-483z" />
    <glyph glyph-name="Lslash" unicode="&#x141;" horiz-adv-x="517" 
d="M75 360v314h108v-267l145 63v-87l-145 -63v-224h308v-96h-416v273l-61 -26v87z" />
    <glyph glyph-name="lslash" unicode="&#x142;" horiz-adv-x="252" 
d="M181 406l55 24v-87l-55 -24v-319h-107v272l-58 -25v87l58 25v315h107v-268z" />
    <glyph glyph-name="OE" unicode="&#x152;" horiz-adv-x="997" 
d="M523 71c-17.333 -21.333 -40.834 -40.333 -70.501 -57s-67.167 -25 -112.5 -25c-50 0 -93.833 8.83301 -131.5 26.5s-69 42 -94 73s-43.667 67.833 -56 110.5s-18.5 88.667 -18.5 138s6.16699 95.333 18.5 138s31 79.5 56 110.5s56.333 55.333 94 73
s81.5 26.5 131.5 26.5c46 0 83.833 -8 113.5 -24s52.834 -35.333 69.501 -58v71h424v-95h-319v-186h300v-94h-300v-205h325v-94h-430v71zM147.999 337c0 -82.667 16.667 -146.499 50 -191.499s83.333 -67.5 150 -67.5c50.667 0 90.5 14.333 119.5 43s47.167 69.667 54.5 123
v181c-7.33301 53.333 -25.5 95.166 -54.5 125.499s-68.833 45.5 -119.5 45.5c-66.667 0 -116.667 -22.5 -150 -67.5s-50 -108.833 -50 -191.5z" />
    <glyph glyph-name="oe" unicode="&#x153;" horiz-adv-x="841" 
d="M481 201c6 -44 21.834 -76.499 47.501 -97.499s58.5 -31.5 98.5 -31.5c21.333 0 42.666 2.33301 63.999 7s41.666 11.667 60.999 21l24 -76c-43.333 -23.333 -96.666 -35 -159.999 -35c-41.333 0 -77.5 6.66699 -108.5 20s-55.833 31.666 -74.5 54.999
c-15.333 -22.667 -35.5 -40.834 -60.5 -54.501s-57.5 -20.5 -97.5 -20.5s-74.667 6.5 -104 19.5s-53.666 31 -72.999 54s-33.833 49.833 -43.5 80.5s-14.5 63.667 -14.5 99c0 34.667 4.83301 67.334 14.5 98.001s24.167 57.5 43.5 80.5s43.666 41 72.999 54
s64 19.5 104 19.5c39.333 0 71.833 -7 97.5 -21s45.834 -31.667 60.501 -53c17.333 22 40.166 39.833 68.499 53.5s62.166 20.5 101.499 20.5c32.667 0 61.5 -5 86.5 -15s46 -24 63 -42s29.667 -39.667 38 -65s12.5 -53 12.5 -83c0 -16 -1.16699 -31.667 -3.5 -47
s-5.16602 -29 -8.49902 -41h-310zM146.001 242.001c0 -50.667 10.8311 -91.665 32.498 -122.998s54.834 -47 99.501 -47c27.333 0 50.333 5.66699 69 17s33.334 27.666 44.001 48.999c-10 30 -15 64.667 -15 104c0 18 1 35.333 3 52s5.33301 32.667 10 48
c-10 21.333 -24.167 38.166 -42.5 50.499s-41.166 18.5 -68.499 18.5c-44.667 0 -77.834 -15.667 -99.501 -47s-32.5 -72 -32.5 -122zM603.999 415.003c-40 0 -70.168 -13.333 -90.501 -40s-32.166 -62 -35.499 -106h226v18c0 40.667 -7.83301 72.167 -23.5 94.5
s-41.167 33.5 -76.5 33.5z" />
    <glyph glyph-name="Scaron" unicode="&#x160;" horiz-adv-x="534" 
d="M241 -11c-44 0 -81.999 4.00488 -113.999 12.0049s-60.333 18.667 -85 32l27 87c21.333 -11.333 46.5 -20.5 75.5 -27.5s59.5 -10.5 91.5 -10.5c42.667 0 78.167 8.16699 106.5 24.5s42.5 42.166 42.5 77.499c0 17.333 -4.16699 32.166 -12.5 44.499
s-19.166 22.833 -32.499 31.5s-29 16.334 -47 23.001s-36.333 13 -55 19c-20.667 6.66699 -42.334 14.667 -65.001 24s-43.5 21.5 -62.5 36.5s-34.833 33.667 -47.5 56s-19 50.166 -19 83.499c0 26 4.5 50 13.5 72s22.833 41.333 41.5 58s42.667 29.667 72 39
s64.666 14 105.999 14c36 0 68.667 -3.33301 98 -10s56.666 -16.667 81.999 -30l-27 -84c-22.667 10.667 -46.834 18.5 -72.501 23.5s-51.167 7.5 -76.5 7.5c-46 0 -79.5 -8.33301 -100.5 -25s-31.5 -37.667 -31.5 -63c0 -17.333 3.83301 -31.833 11.5 -43.5
s17.834 -21.834 30.501 -30.501s27.334 -16.167 44.001 -22.5s34 -12.5 52 -18.5c23.333 -8 47 -17.167 71 -27.5s45.833 -23.333 65.5 -39s35.667 -34.834 48 -57.501s18.5 -50.334 18.5 -83.001c0 -33.333 -6.16699 -62 -18.5 -86s-29.5 -44 -51.5 -60
s-48.333 -27.833 -79 -35.5s-64 -11.5 -100 -11.5zM300.001 737.005h-66l-125 144h105l53 -81l54 81h104z" />
    <glyph glyph-name="scaron" unicode="&#x161;" horiz-adv-x="439" 
d="M200 71c34 0 58.168 5.66797 72.501 17.001s21.5 25.666 21.5 42.999c0 22 -9.83301 38.667 -29.5 50s-44.167 21.333 -73.5 30c-21.333 6 -41.166 13 -59.499 21s-34 17.833 -47 29.5s-23.167 25.334 -30.5 41.001s-11 34.5 -11 56.5c0 42 16.333 75 49 99
s77.334 36 134.001 36c28 0 55.167 -2.66699 81.5 -8s50.833 -13.666 73.5 -24.999l-24 -79c-37.333 19.333 -78.666 29 -123.999 29c-30.667 0 -52.834 -4.66699 -66.501 -14s-20.5 -22 -20.5 -38c0 -18 7.33301 -31.667 22 -41s34.667 -18 60 -26
c27.333 -9.33301 51.5 -18.833 72.5 -28.5s38.667 -20.834 53 -33.501s25.166 -27.334 32.499 -44.001s11 -36 11 -58c0 -40.667 -15.833 -74 -47.5 -100s-79.834 -39 -144.501 -39c-32 0 -62.333 2.83301 -91 8.5s-53.334 14.167 -74.001 25.5l24 79
c18 -9.33301 38.833 -16.833 62.5 -22.5s48.167 -8.5 73.5 -8.5zM252.001 541.001h-66l-125 144h105l53 -81l54 81h104z" />
    <glyph glyph-name="Ydieresis" unicode="&#x178;" horiz-adv-x="582" 
d="M291 379l163 295h116l-225 -387v-287h-108v287l-225 387h116l163 -295v0zM190 865c19.333 0 34 -5.66699 44 -17s15 -24.666 15 -39.999s-5 -28.5 -15 -39.5s-24.667 -16.5 -44 -16.5s-34 5.5 -44 16.5s-15 24.167 -15 39.5s5 28.666 15 39.999s24.667 17 44 17zM392 865
c19.333 0 34 -5.66699 44 -17s15 -24.666 15 -39.999s-5 -28.5 -15 -39.5s-24.667 -16.5 -44 -16.5s-34 5.5 -44 16.5s-15 24.167 -15 39.5s5 28.666 15 39.999s24.667 17 44 17z" />
    <glyph glyph-name="Zcaron" unicode="&#x17d;" horiz-adv-x="553" 
d="M37 70l334 510l-309 -1v95h443v-70l-333 -510l338 1v-95h-473v70zM309 737h-66l-125 144h105l53 -81l54 81h104z" />
    <glyph glyph-name="zcaron" unicode="&#x17e;" horiz-adv-x="455" 
d="M38 57l242 347h-224v79h349v-57l-242 -347h251v-79h-376v57zM260 541h-66l-125 144h105l53 -81l54 81h104z" />
    <glyph glyph-name="florin" unicode="&#x192;" horiz-adv-x="580" 
d="M223 327l-83.001 -0.000976562v70h93l13 95c7.33301 55.333 25 99.333 53 132s71 49 129 49c19.333 0 36.666 -2.33301 51.999 -7s28.666 -10 39.999 -16l-33 -72c-15.333 8 -33.333 12 -54 12c-27.333 0 -46.666 -8.5 -57.999 -25.5s-19.333 -41.167 -24 -72.5l-14 -95
h119v-70h-129l-30 -225c-4 -27.333 -10.167 -52.166 -18.5 -74.499s-19.666 -41.333 -33.999 -57s-32.166 -27.667 -53.499 -36s-46.333 -12.5 -75 -12.5c-20 0 -37.5 2.16699 -52.5 6.5s-28.167 9.83301 -39.5 16.5l33 71c14 -7.33301 31.667 -11 53 -11
c26.667 0 46.167 8.33301 58.5 25s20.5 40.667 24.5 72z" />
    <glyph glyph-name="circumflex" unicode="&#x2c6;" horiz-adv-x="316" 
d="M316 542h-104l-54 81l-53 -81h-105l125 144h66z" />
    <glyph glyph-name="caron" unicode="&#x2c7;" horiz-adv-x="316" 
d="M191 541h-66l-125 144h105l53 -81l54 81h104z" />
    <glyph glyph-name="breve" unicode="&#x2d8;" horiz-adv-x="316" 
d="M159 561c-48 0 -84.998 12.667 -110.998 38s-41 59 -45 101h80c7.33301 -40 32.666 -60 75.999 -60s68.666 20 75.999 60h78c-4 -42 -18.667 -75.667 -44 -101s-62 -38 -110 -38z" />
    <glyph glyph-name="dotaccent" unicode="&#x2d9;" horiz-adv-x="316" 
d="M158 553c-20.667 0 -36.334 6 -47.001 18s-16 26.333 -16 43c0 16 5.33301 30.167 16 42.5s26.334 18.5 47.001 18.5s36.334 -6.16699 47.001 -18.5s16 -26.5 16 -42.5c0 -16.667 -5.33301 -31 -16 -43s-26.334 -18 -47.001 -18z" />
    <glyph glyph-name="ring" unicode="&#x2da;" horiz-adv-x="316" 
d="M158 730c28 0 51.502 -9.33301 70.502 -28s28.5 -41.667 28.5 -69c0 -26.667 -9.33301 -49.334 -28 -68.001s-42.334 -28 -71.001 -28s-52.334 9.33301 -71.001 28s-28 41.334 -28 68.001c0 27.333 9.5 50.333 28.5 69s42.5 28 70.5 28zM158.002 591
c11.333 0 20.5 3.83301 27.5 11.5s10.5 18.167 10.5 31.5c0 12.667 -3.5 22.834 -10.5 30.501s-16.167 11.5 -27.5 11.5s-20.5 -3.83301 -27.5 -11.5s-10.5 -17.834 -10.5 -30.501c0 -13.333 3.5 -23.833 10.5 -31.5s16.167 -11.5 27.5 -11.5z" />
    <glyph glyph-name="ogonek" unicode="&#x2db;" horiz-adv-x="316" 
d="M117 2h67l94 -140h-112z" />
    <glyph glyph-name="tilde" unicode="&#x2dc;" horiz-adv-x="316" 
d="M316 667c0 -36 -7.83301 -63.834 -23.5 -83.501s-37.5 -29.5 -65.5 -29.5c-16 0 -29.833 2.5 -41.5 7.5s-22.334 10.667 -32.001 17l-27 17c-8.33301 5 -17.166 7.5 -26.499 7.5c-13.333 0 -22.166 -4.66699 -26.499 -14s-6.5 -19.666 -6.5 -30.999h-67
c0 34.667 7.5 62.167 22.5 82.5s37.5 30.5 67.5 30.5c15.333 0 29 -2.66699 41 -8s23 -11 33 -17s19 -11.667 27 -17s16 -8 24 -8c13.333 0 22.166 4.33301 26.499 13s6.5 19.667 6.5 33h68z" />
    <glyph glyph-name="hungarumlaut" unicode="&#x2dd;" horiz-adv-x="316" 
d="M285 691h105l-117 -142h-69zM117 691h105l-118 -142h-69z" />
    <glyph glyph-name="uni03A9" unicode="&#x3a9;" horiz-adv-x="755" 
d="M379 590c-32 0 -61.1631 -5.16699 -87.4961 -15.5s-49.166 -25 -68.499 -44s-34.333 -42.5 -45 -70.5s-16 -59.333 -16 -94c0 -35.333 5.66699 -68.666 17 -99.999s25.5 -60.166 42.5 -86.499s35.5 -49.5 55.5 -69.5s38.667 -36.333 56 -49v-61h-232v83h118
c-14.667 12.667 -30.834 28.834 -48.501 48.501s-34.334 42.167 -50.001 67.5s-28.834 53.333 -39.501 84s-16 63.334 -16 98.001c0 46 7.66699 87.5 23 124.5s36.833 68.833 64.5 95.5s60.5 47.167 98.5 61.5s80 21.5 126 21.5s88.167 -7.16699 126.5 -21.5
s71.333 -34.833 99 -61.5s49.167 -58.5 64.5 -95.5s23 -78.5 23 -124.5c0 -34.667 -5.33301 -67.334 -16 -98.001s-23.834 -58.667 -39.501 -84s-32.5 -47.833 -50.5 -67.5s-34.333 -35.834 -49 -48.501h119v-83h-233v61c17.333 12.667 36.166 29 56.499 49
s39 43.167 56 69.5s31.167 55.166 42.5 86.499s17 64.666 17 99.999c0 34.667 -5.33301 66 -16 94s-25.5 51.5 -44.5 70.5s-41.667 33.667 -68 44s-54.833 15.5 -85.5 15.5z" />
    <glyph glyph-name="pi" unicode="&#x3c0;" horiz-adv-x="620" 
d="M580 11c-11.333 -7.33301 -24.665 -12.6641 -39.998 -15.9971s-31.333 -5 -48 -5c-26 0 -47.333 3.83301 -64 11.5s-29.834 18 -39.501 31s-16.334 28.167 -20.001 45.5s-5.5 35.666 -5.5 54.999v268h-112v-199c0 -16 -0.833008 -33.833 -2.5 -53.5s-4 -39 -7 -58
s-6.66699 -36.667 -11 -53s-9.5 -28.833 -15.5 -37.5h-105c7.33301 11.333 13.5 26 18.5 44s9.16699 36.667 12.5 56s5.83301 38.166 7.5 56.499s2.5 33.5 2.5 45.5v198c-19.333 -1.33301 -37.333 -4.33301 -54 -9s-32.667 -10.667 -48 -18l-16 78
c6.66699 4 15.167 8 25.5 12s21.333 7.5 33 10.5s23.834 5.5 36.501 7.5s24.667 3 36 3h412v-83h-113v-274c0 -16.667 3.5 -30.334 10.5 -41.001s18.833 -16 35.5 -16c17.333 0 33.666 3.66699 48.999 11z" />
    <glyph glyph-name="uni0E00" unicode="&#xe00;" horiz-adv-x="195" 
 />
    <glyph glyph-name="uni0E01" unicode="&#xe01;" horiz-adv-x="613" 
d="M435 0v350.001c0 44 -11.5 77 -34.5 99s-55.5 33 -97.5 33c-16.667 0 -32.667 -2 -48 -6s-29.5 -9.66699 -42.5 -17s-24.333 -15.833 -34 -25.5s-16.834 -19.834 -21.501 -30.501l80 -70c-19.333 -8 -33.833 -19.333 -43.5 -34s-14.5 -33.667 -14.5 -57v-242h-108v236
c0 20 4.83301 38.5 14.5 55.5s22.5 30.167 38.5 39.5l-81 68c6 22 16.833 43.333 32.5 64s34.834 39 57.501 55s48.5 28.833 77.5 38.5s60.167 14.5 93.5 14.5c38.667 0 73 -5.5 103 -16.5s55 -26.167 75 -45.5s35.167 -42.5 45.5 -69.5s15.5 -56.833 15.5 -89.5v-350h-108z
" />
    <glyph glyph-name="uni0E02" unicode="&#xe02;" horiz-adv-x="561" 
d="M164 183c0 -34.667 8.83105 -61.1641 26.498 -79.4971s45.834 -27.5 84.501 -27.5c36.667 0 63.834 8.66699 81.501 26s26.5 47.666 26.5 90.999v367h108v-366c0 -65.333 -17.167 -115.833 -51.5 -151.5s-89.166 -53.5 -164.499 -53.5c-76 0 -131.333 17.667 -166 53
s-52 82.666 -52 141.999v64c0 20.667 5 39.167 15 55.5s20.833 31.666 32.5 45.999l32.5 40.5c10 12.667 15 25.667 15 39v19c0 16 -8 24 -24 24h-65v88h78c43.333 0 73.166 -9 89.499 -27s24.5 -43.333 24.5 -76v-27c0 -18.667 -4.66699 -35.667 -14 -51
s-19.833 -30 -31.5 -44s-22.167 -28 -31.5 -42s-14 -29 -14 -45v-65z" />
    <glyph glyph-name="uni0E03" unicode="&#xe03;" horiz-adv-x="568" 
d="M171 183c0 -34.667 8.8291 -61.1631 26.4961 -79.4961s45.5 -27.5 83.5 -27.5c36.667 0 64 8.66699 82 26s27 47.666 27 90.999v367h108v-366c0 -66 -17.167 -116.667 -51.5 -152s-89.5 -53 -165.5 -53c-75.333 0 -130.333 17.667 -165 53s-52 82.666 -52 141.999v71
c0 20 5.33301 38.333 16 55s22.334 32.5 35.001 47.5s24.334 29.5 35.001 43.5s16 28.667 16 44v16c0 6 -1.5 11 -4.5 15s-8.16699 6 -15.5 6c-8 0 -15 -3.33301 -21 -10s-10.667 -15.667 -14 -27l-83 39v87l77 -39c7.33301 10 17.5 18.333 30.5 25s28.5 10 46.5 10
c29.333 0 51.333 -8.83301 66 -26.5s22 -42.167 22 -73.5v-19c0 -20.667 -5.16699 -39.334 -15.5 -56.001s-21.666 -32.334 -33.999 -47.001s-23.666 -29.167 -33.999 -43.5s-15.5 -29.833 -15.5 -46.5v-72z" />
    <glyph glyph-name="uni0E04" unicode="&#xe04;" horiz-adv-x="629" 
d="M178 241c8 17.333 21 32 39 44s41 18 69 18h64v-92h-65c-57.333 0 -93 -26.333 -107 -79v-132h-108v351c0 30.667 5.5 59.5 16.5 86.5s26.833 50.333 47.5 70s46.167 35.167 76.5 46.5s64.833 17 103.5 17s73.167 -5.66699 103.5 -17s56 -26.833 77 -46.5s37 -43 48 -70
s16.5 -55.833 16.5 -86.5v-351h-108v351c0 38 -11.5 69.333 -34.5 94s-57.167 37 -102.5 37c-44.667 0 -78.5 -12.333 -101.5 -37s-34.5 -56 -34.5 -94v-110z" />
    <glyph glyph-name="uni0E05" unicode="&#xe05;" horiz-adv-x="639" 
d="M178 241c8.66699 17.333 22.166 31.998 40.499 43.998s41.833 18 70.5 18h64v-92h-66c-57.333 0 -93.666 -26.333 -108.999 -79v-132h-108v387c0 48.667 12.333 88.667 37 120s61 52.666 109 63.999l103 -66l104 66c48 -11.333 84.167 -32.666 108.5 -63.999
s36.5 -71.333 36.5 -120v-387h-108v390c0 45.333 -17 73 -51 83l-90 -53l-90 53c-16 -5.33301 -28.5 -14.666 -37.5 -27.999s-13.5 -31.666 -13.5 -54.999v-149z" />
    <glyph glyph-name="uni0E06" unicode="&#xe06;" horiz-adv-x="613" 
d="M183 180c13.333 -28 33.3291 -52 59.9961 -72s55.667 -30 87 -30c36.667 0 63.334 11 80.001 33s25 54.333 25 97v352h108v-355c0 -69.333 -16.167 -122.666 -48.5 -159.999s-80.166 -56 -143.499 -56c-39.333 0 -72.833 8.5 -100.5 25.5s-50.167 37.167 -67.5 60.5
l-10 -75h-98v250c0 20 4.83301 38.5 14.5 55.5s20.5 33.167 32.5 48.5s22.833 30.333 32.5 45s14.5 30 14.5 46v16c0 6 -1.5 11 -4.5 15s-8.16699 6 -15.5 6c-8 0 -15 -3.33301 -21 -10s-10.667 -15.667 -14 -27l-83 39v87l77 -39c7.33301 10 17.5 18.333 30.5 25
s28.5 10 46.5 10c29.333 0 51.333 -8.83301 66 -26.5s22 -42.167 22 -73.5v-16c0 -22 -4.66699 -41.833 -14 -59.5s-19.666 -34.167 -30.999 -49.5s-21.666 -30.333 -30.999 -45s-14 -30.334 -14 -47.001v-70z" />
    <glyph glyph-name="uni0E07" unicode="&#xe07;" horiz-adv-x="564" 
d="M175 0l-168.999 560.002h108l142 -471h12c18.667 0 36.667 4.66699 54 14s32.666 23 45.999 41s24 39.833 32 65.5s12 54.5 12 86.5c0 67.333 -10.833 115.166 -32.5 143.499s-48.834 42.5 -81.501 42.5c-22 0 -43.333 -4 -64 -12l-16 82c12 6 26.5 10.667 43.5 14
s33.5 5 49.5 5c30 0 57.833 -6.16699 83.5 -18.5s47.834 -30.333 66.501 -54s33.167 -52.5 43.5 -86.5s15.5 -72.667 15.5 -116c0 -46 -6.5 -87.167 -19.5 -123.5s-30.833 -67.333 -53.5 -93s-49.5 -45.334 -80.5 -59.001s-64.833 -20.5 -101.5 -20.5h-90z" />
    <glyph glyph-name="uni0E08" unicode="&#xe08;" horiz-adv-x="545" 
d="M167 0l-51.998 210.999c-3.33301 15.333 -12.333 23 -27 23h-38v89h59c27.333 0 49 -5.16699 65 -15.5s27.667 -30.5 35 -60.5l38 -158h12c17.333 0.666992 34 6 50 16s30.333 23.833 43 41.5s22.667 39.167 30 64.5s11 54.333 11 87c0 64.667 -13.667 111.5 -41 140.5
s-66 43.5 -116 43.5c-34.667 0 -68.834 -6.33301 -102.501 -19s-63.834 -30.667 -90.501 -54l-33 80c28 22.667 61.667 42 101 58s82 24 128 24c86 0 151.167 -24.167 195.5 -72.5s66.5 -115.5 66.5 -201.5c0 -42.667 -6.33301 -82.167 -19 -118.5s-30 -67.666 -52 -93.999
s-48 -47 -78 -62s-62.333 -22.5 -97 -22.5h-88z" />
    <glyph glyph-name="uni0E09" unicode="&#xe09;" horiz-adv-x="594" 
d="M37 234v89h69c26.667 0 48 -6.83301 64 -20.5s24 -36.5 24 -68.5v-68c0 -33.333 7.16699 -56.333 21.5 -69s35.5 -19 63.5 -19c34 0 62.333 10 85 30s40 44 52 72v155c0 47.333 -11.5 83.666 -34.5 108.999s-58.167 38 -105.5 38c-39.333 0 -77 -7.16699 -113 -21.5
s-67.333 -31.5 -94 -51.5l-39 82c34 23.333 71.5 42.5 112.5 57.5s86.167 22.5 135.5 22.5c82.667 0 144.334 -21 185.001 -63s61 -99.667 61 -173v-335h-99l-9 75c-8 -11.333 -17 -22.166 -27 -32.499s-21.5 -19.5 -34.5 -27.5s-28.167 -14.333 -45.5 -19
s-37.333 -7 -60 -7c-52.667 0 -92.834 14 -120.501 42s-41.5 71.333 -41.5 130v51c0 14.667 -6.33301 22 -19 22h-31z" />
    <glyph glyph-name="uni0E0A" unicode="&#xe0a;" horiz-adv-x="561" 
d="M164 183c0 -34.667 8.99902 -61.166 26.999 -79.499s46 -27.5 84 -27.5c36.667 0 64 8.66699 82 26s27 47.666 27 90.999v102c0 24.667 -4.66699 42.334 -14 53.001s-22.666 16 -39.999 16h-17l-16 42l106 154h115l-113 -146
c26.667 -7.33301 47.834 -21.666 63.501 -42.999s23.5 -47 23.5 -77v-100c0 -66 -17.167 -116.667 -51.5 -152s-89.5 -53 -165.5 -53c-75.333 0 -130.5 17.667 -165.5 53s-52.5 82.666 -52.5 141.999v64c0 20.667 5 39.167 15 55.5s20.833 31.666 32.5 45.999l32.5 40.5
c10 12.667 15 25.667 15 39v19c0 16 -8 24 -24 24h-65v88h78c43.333 0 73.166 -9 89.499 -27s24.5 -43.333 24.5 -76v-27c0 -18.667 -4.66699 -35.667 -14 -51s-19.833 -30 -31.5 -44s-22.167 -28 -31.5 -42s-14 -29 -14 -45v-65z" />
    <glyph glyph-name="uni0E0B" unicode="&#xe0b;" horiz-adv-x="567" 
d="M498 194c0 -66 -17.1709 -116.665 -51.5039 -151.998s-89.5 -53 -165.5 -53c-75.333 0 -130.333 17.667 -165 53s-52 82.666 -52 141.999l-1 71c0 20 5.33301 38.333 16 55s22.5 32.5 35.5 47.5s24.833 29.5 35.5 43.5s16 28.667 16 44v16c0 6 -1.5 11 -4.5 15
s-8.16699 6 -15.5 6c-8 0 -15 -3.33301 -21 -10s-10.667 -15.667 -14 -27l-83 39v87l77 -39c7.33301 10 17.5 18.333 30.5 25s28.5 10 46.5 10c29.333 0 51.333 -8.83301 66 -26.5s22 -42.167 22 -73.5v-19c0 -20.667 -5.16699 -39.334 -15.5 -56.001
s-21.666 -32.334 -33.999 -47.001s-23.666 -29.167 -33.999 -43.5s-15.5 -29.833 -15.5 -46.5v-72c0 -34.667 8.83301 -61.167 26.5 -79.5s45.5 -27.5 83.5 -27.5c36.667 0 64 8.66699 82 26s27 47.666 27 90.999v102c0 24.667 -4.66699 42.334 -14 53.001
s-22.666 16 -39.999 16h-17l-16 42l106 154h115l-113 -146c26.667 -7.33301 47.834 -21.666 63.501 -42.999s23.5 -47 23.5 -77v-100z" />
    <glyph glyph-name="uni0E0C" unicode="&#xe0c;" horiz-adv-x="929" 
d="M751 560l108.004 0.000976562v-355c0 -69.333 -15.5 -122.666 -46.5 -159.999s-75.833 -56 -134.5 -56c-34.667 0 -65.334 8.5 -92.001 25.5s-48.667 37.167 -66 60.5l-9 -75h-99v350c0 44 -10.667 77 -32 99s-51 33 -89 33c-14.667 0 -28.834 -2 -42.501 -6
s-26.5 -9.66699 -38.5 -17s-22.667 -15.833 -32 -25.5s-16.333 -19.834 -21 -30.501l80 -70c-19.333 -8 -33.833 -19.333 -43.5 -34s-14.5 -33.667 -14.5 -57v-134c0 -6.66699 1.33301 -11.834 4 -15.501s7.66699 -5.5 15 -5.5h56v-87h-83
c-32.667 0 -57.5 9.16699 -74.5 27.5s-25.5 42.5 -25.5 72.5v136c0 20 4.83301 38.5 14.5 55.5s22.5 30.167 38.5 39.5l-81 68c6 22 16.5 43.333 31.5 64s33.333 39 55 55s46.334 28.833 74.001 38.5s57.5 14.5 89.5 14.5c37.333 0 70.166 -5.5 98.499 -16.5
s52 -26.167 71 -45.5s33.333 -42.5 43 -69.5s14.5 -56.833 14.5 -89.5v-170c13.333 -28 32.666 -52 57.999 -72s51.666 -30 78.999 -30c62.667 0 94 43.333 94 130v352z" />
    <glyph glyph-name="uni0E0D" unicode="&#xe0d;" horiz-adv-x="929" 
d="M750 86c-6.66699 -10 -14.9961 -20.002 -24.9961 -30.002s-21.667 -19.167 -35 -27.5s-28.333 -15.166 -45 -20.499s-35 -8 -55 -8c-25.333 0 -49 3.66699 -71 11s-41 18.833 -57 34.5s-28.5 35.667 -37.5 60s-13.5 53.5 -13.5 87.5v157c0 44 -10.5 77 -31.5 99
s-50.5 33 -88.5 33c-14.667 0 -28.834 -2 -42.501 -6s-26.5 -9.66699 -38.5 -17s-22.667 -15.833 -32 -25.5s-16.333 -19.834 -21 -30.501l80 -70c-19.333 -8 -33.833 -19.333 -43.5 -34s-14.5 -33.667 -14.5 -57v-134c0 -6.66699 1.33301 -11.834 4 -15.501
s7.66699 -5.5 15 -5.5h56v-87h-83c-32.667 0 -57.5 9.16699 -74.5 27.5s-25.5 42.5 -25.5 72.5v136c0 20 4.83301 38.5 14.5 55.5s22.5 30.167 38.5 39.5l-81 68c6 22 16.5 43.333 31.5 64s33.333 39 55 55s46.334 28.833 74.001 38.5s57.5 14.5 89.5 14.5
c37.333 0 70 -5.5 98 -16.5s51.5 -26.167 70.5 -45.5s33.333 -42.5 43 -69.5s14.5 -56.833 14.5 -89.5v-154c0 -36 7.66699 -62.833 23 -80.5s37.666 -26.5 66.999 -26.5c33.333 0 61.666 9 84.999 27s41.666 39.667 54.999 65v379h108v-510
c0 -37.333 -5.83301 -69.666 -17.5 -96.999s-28 -50 -49 -68s-45.833 -31.333 -74.5 -40s-60 -13 -94 -13c-40 0 -75.5 4.33301 -106.5 13s-58.833 19.667 -83.5 33l27 78c22 -12 46.5 -21.333 73.5 -28s52.833 -10 77.5 -10c20.667 0 39.667 1.66699 57 5
s32.166 9.83301 44.499 19.5s21.833 22.834 28.5 39.501s10 38.334 10 65.001v39z" />
    <glyph glyph-name="uni0E0E" unicode="&#xe0e;" horiz-adv-x="622" 
d="M552 -200l-122.001 -0.000976562c-15.333 14.667 -34 27.334 -56 38.001s-45.333 16 -70 16c-30 0 -56.5 -4.33301 -79.5 -13s-47.167 -23.334 -72.5 -44.001l-29 84c20 18.667 43.333 33.834 70 45.501s58.667 17.5 96 17.5c14.667 0 29.667 -1.66699 45 -5
s29.833 -8 43.5 -14s26.167 -12.833 37.5 -20.5s21 -15.834 29 -24.501v470c0 44 -11.667 77 -35 99s-56 33 -98 33c-34 0 -64.333 -7.66699 -91 -23s-45 -34 -55 -56l90 -76c-19.333 -8 -33.5 -18.833 -42.5 -32.5s-13.5 -32.167 -13.5 -55.5v-139
c0 -29.333 -8.83301 -53.333 -26.5 -72s-42.5 -28 -74.5 -28h-71v87h45c12.667 0 19 7 19 21v124c0 20 4.5 38.333 13.5 55s21.5 29.334 37.5 38.001l-91 74c6 22 16.833 43.333 32.5 64s34.834 39 57.501 55s48.5 28.833 77.5 38.5s60.5 14.5 94.5 14.5
c39.333 0 73.833 -5.5 103.5 -16.5s54.5 -26.167 74.5 -45.5s35.167 -42.5 45.5 -69.5s15.5 -56.833 15.5 -89.5v-550z" />
    <glyph glyph-name="uni0E0F" unicode="&#xe0f;" horiz-adv-x="622" 
d="M552 -200h-108.001l-108 66c-12 -21.333 -28.833 -38.833 -50.5 -52.5s-46.834 -20.5 -75.501 -20.5c-22.667 0 -44.667 2.66699 -66 8s-39.666 12.666 -54.999 21.999l27 87c13.333 -9.33301 28.333 -17 45 -23s32.667 -9 48 -9c28.667 0 52.5 8 71.5 24
s31.5 37.667 37.5 65l126 -78v461c0 44 -11.667 77 -35 99s-56 33 -98 33c-34 0 -64.333 -7.66699 -91 -23s-45 -34 -55 -56l90 -76c-19.333 -8 -33.5 -18.833 -42.5 -32.5s-13.5 -32.167 -13.5 -55.5v-139c0 -30 -8.5 -54.167 -25.5 -72.5s-42.167 -27.5 -75.5 -27.5h-71
v87h45c12.667 0 19 7 19 21v124c0 20 4.5 38.333 13.5 55s21.5 29.334 37.5 38.001l-91 74c6 22 16.833 43.333 32.5 64s34.834 39 57.501 55s48.5 28.833 77.5 38.5s60.5 14.5 94.5 14.5c39.333 0 73.833 -5.5 103.5 -16.5s54.5 -26.167 74.5 -45.5
s35.167 -42.5 45.5 -69.5s15.5 -56.833 15.5 -89.5v-550z" />
    <glyph glyph-name="uni0E10" unicode="&#xe10;" horiz-adv-x="545" 
d="M167 0l-51.998 211c-3.33301 15.333 -12.333 23 -27 23h-38v89h59c27.333 0 49 -5.16699 65 -15.5s27.667 -30.5 35 -60.5l38 -158h12c17.333 0.666992 34 6 50 16s30.333 23.833 43 41.5s22.667 39.167 30 64.5s11 54.333 11 87c0 62 -13.667 108.167 -41 138.5
s-66 45.5 -116 45.5c-34.667 0 -68.834 -6.33301 -102.501 -19s-63.834 -30.667 -90.501 -54l-33 80c28 24 61.667 43.667 101 59s82 23 128 23c42 0 81.333 -8.33301 118 -25l45 53h121l-91 -108c22 -24.667 39 -53.334 51 -86.001s18 -68.667 18 -108
c0 -42.667 -6.33301 -82.167 -19 -118.5s-30 -67.666 -52 -93.999s-48 -47 -78 -62s-62.333 -22.5 -97 -22.5h-88zM331.002 -200c-22 0 -41.832 4.66699 -59.499 14s-31.167 21.333 -40.5 36c-8.66699 -15.333 -22.334 -27.5 -41.001 -36.5s-38.667 -13.5 -60 -13.5h-72v88
h74c41.333 0 74.333 16.333 99 49c13.333 -16 26.833 -28.167 40.5 -36.5s31.167 -12.5 52.5 -12.5h43v57h99v-145h-135z" />
    <glyph glyph-name="uni0E11" unicode="&#xe11;" horiz-adv-x="620" 
d="M180 0l-108.003 -0.00390625v226c0 21.333 3 42 9 62s13.5 38.833 22.5 56.5s19 33.834 30 48.501s21.833 27.334 32.5 38.001v30c0 6 -1.5 11 -4.5 15s-8.16699 6 -15.5 6c-8 0 -15 -3.33301 -21 -10s-10.667 -15.667 -14 -27l-78 39v87l72 -39
c7.33301 10 17.5 18.333 30.5 25s28.5 10 46.5 10c22.667 0 40.334 -6.33301 53.001 -19s19.667 -28.667 21 -48c13.333 19.333 32.333 36 57 50s53 21 85 21c20.667 0 40.334 -3.66699 59.001 -11s34.667 -18.666 48 -33.999s24 -34.666 32 -57.999s12 -51 12 -83v-385
h-108v382c0 36.667 -5.16699 62.5 -15.5 77.5s-26.166 22.5 -47.499 22.5c-25.333 0 -50 -8.16699 -74 -24.5s-45.167 -37 -63.5 -62s-33 -52.333 -44 -82s-16.5 -58.167 -16.5 -85.5v-228z" />
    <glyph glyph-name="uni0E12" unicode="&#xe12;" horiz-adv-x="991" 
d="M813 560l108.004 -0.00488281v-355c0 -69.333 -15.667 -122.666 -47 -159.999s-78.333 -56 -141 -56c-38.667 0 -71.667 8.5 -99 25.5s-49.666 37.167 -66.999 60.5l-9 -75h-99v390c0 45.333 -17 73 -51 83l-78 -49l-76 48c-30.667 -10 -55.167 -31.667 -73.5 -65
s-27.5 -76.333 -27.5 -129c0 -37.333 3.83301 -68.5 11.5 -93.5s17.834 -45 30.501 -60s26.667 -25.833 42 -32.5s30.666 -10 45.999 -10c13.333 0 25.666 0.833008 36.999 2.5s22.666 5.16699 33.999 10.5l20 -81c-12.667 -6.66699 -27.167 -11.834 -43.5 -15.501
s-34.833 -5.5 -55.5 -5.5c-31.333 0 -61 5.5 -89 16.5s-52.5 28 -73.5 51s-37.5 52.5 -49.5 88.5s-18 79 -18 129c0 36.667 4.66699 71.334 14 104.001s22.666 61.834 39.999 87.501s38.166 47.334 62.499 65.001s51.833 29.834 82.5 36.501l86 -63l92 63
c48 -11.333 84.167 -32.666 108.5 -63.999s36.5 -71.333 36.5 -120v-207c13.333 -28 33.166 -52 59.499 -72s54.833 -30 85.5 -30c36 0 61.833 11.333 77.5 34s23.5 54.667 23.5 96v352z" />
    <glyph glyph-name="uni0E13" unicode="&#xe13;" horiz-adv-x="929" 
d="M520 184c0 -70.667 27.332 -105.999 81.999 -105.999c33.333 0 62.833 10 88.5 30s45.167 44 58.5 72v380h108v-560h-99l-9 75c-17.333 -23.333 -39.166 -43.5 -65.499 -60.5s-58.166 -25.5 -95.499 -25.5c-56.667 0 -100.167 16.333 -130.5 49
s-45.5 80.334 -45.5 143.001v169c0 44 -10.667 77 -32 99s-51 33 -89 33c-14.667 0 -28.834 -2 -42.501 -6s-26.5 -9.66699 -38.5 -17s-22.667 -15.833 -32 -25.5s-16.333 -19.834 -21 -30.501l80 -70c-19.333 -8 -33.833 -19.333 -43.5 -34s-14.5 -33.667 -14.5 -57v-134
c0 -6.66699 1.33301 -11.834 4 -15.501s7.66699 -5.5 15 -5.5h56v-87h-83c-32.667 0 -57.5 9.16699 -74.5 27.5s-25.5 42.5 -25.5 72.5v136c0 20 4.83301 38.5 14.5 55.5s22.5 30.167 38.5 39.5l-81 68c6 22 16.5 43.333 31.5 64s33.333 39 55 55s46.334 28.833 74.001 38.5
s57.5 14.5 89.5 14.5c37.333 0 70.166 -5.5 98.499 -16.5s52 -26.167 71 -45.5s33.333 -42.5 43 -69.5s14.5 -56.833 14.5 -89.5v-166z" />
    <glyph glyph-name="uni0E14" unicode="&#xe14;" horiz-adv-x="635" 
d="M461 0l0.00292969 336.001c0 42.667 -11.833 77.667 -35.5 105s-58.167 41 -103.5 41c-54 0 -95.667 -18.667 -125 -56s-44 -88.333 -44 -153c0 -36 4 -66.167 12 -90.5s18.333 -44 31 -59s26.834 -25.667 42.501 -32s31.167 -9.5 46.5 -9.5
c13.333 0 25.666 0.833008 36.999 2.5s22.666 5.16699 33.999 10.5l20 -81c-12.667 -6.66699 -27.167 -11.834 -43.5 -15.501s-34.833 -5.5 -55.5 -5.5c-30 0 -59 5.5 -87 16.5s-52.833 28 -74.5 51s-38.834 52.167 -51.501 87.5s-19 77 -19 125
c0 42 5.83301 81.167 17.5 117.5s29 67.833 52 94.5s51.667 47.667 86 63s73.833 23 118.5 23c41.333 0 77.666 -6.16699 108.999 -18.5s57.5 -29.166 78.5 -50.499s36.667 -46.333 47 -75s15.5 -59.334 15.5 -92.001v-335h-108z" />
    <glyph glyph-name="uni0E15" unicode="&#xe15;" horiz-adv-x="648" 
d="M336 508l95.998 62.999c48 -11.333 84.167 -32.666 108.5 -63.999s36.5 -71.333 36.5 -120v-387h-108v390c0 46.667 -17 75 -51 85l-82 -51l-80 50c-30.667 -10 -55.5 -32 -74.5 -66s-28.5 -78 -28.5 -132c0 -36.667 4 -67.334 12 -92.001s18.333 -44.5 31 -59.5
s26.834 -25.833 42.501 -32.5s31.167 -10 46.5 -10c13.333 0 25.666 0.833008 36.999 2.5s22.666 5.16699 33.999 10.5l20 -81c-12.667 -6.66699 -27.167 -11.834 -43.5 -15.501s-34.833 -5.5 -55.5 -5.5c-31.333 0 -61.166 5.33301 -89.499 16s-53 27.5 -74 50.5
s-37.667 52.333 -50 88s-18.5 78.5 -18.5 128.5c0 37.333 4.66699 72.5 14 105.5s22.833 62.333 40.5 88s38.834 47.334 63.501 65.001s52.334 29.834 83.001 36.501z" />
    <glyph glyph-name="uni0E16" unicode="&#xe16;" horiz-adv-x="614" 
d="M179 108c0 -6.66699 1.33398 -11.832 4.00098 -15.499s7.66699 -5.5 15 -5.5h56v-87h-83c-32.667 0 -57.5 9.16699 -74.5 27.5s-25.5 42.5 -25.5 72.5v136c0 20 4.83301 38.5 14.5 55.5s22.5 30.167 38.5 39.5l-81 68c6 22 16.833 43.333 32.5 64s34.834 39 57.501 55
s48.667 28.833 78 38.5s60.666 14.5 93.999 14.5c38.667 0 73 -5.5 103 -16.5s55 -26.167 75 -45.5s35.167 -42.5 45.5 -69.5s15.5 -56.833 15.5 -89.5v-350h-108v350c0 44 -11.667 77 -35 99s-56 33 -98 33c-16.667 0 -32.667 -2 -48 -6s-29.5 -9.66699 -42.5 -17
s-24.333 -15.833 -34 -25.5s-16.834 -19.834 -21.501 -30.501l80 -70c-19.333 -8 -33.833 -19.333 -43.5 -34s-14.5 -33.667 -14.5 -57v-134z" />
    <glyph glyph-name="uni0E17" unicode="&#xe17;" horiz-adv-x="622" 
d="M444 360c0 42 -7.5 72.834 -22.5 92.501s-36.5 29.5 -64.5 29.5c-36 0 -69.5 -9.5 -100.5 -28.5s-56.5 -42.5 -76.5 -70.5v-383h-108v560h98l10 -76c10.667 10.667 23 21.167 37 31.5s29 19.666 45 27.999s33.333 15 52 20s38.667 7.5 60 7.5
c56 0 99.667 -18.5 131 -55.5s47 -87.833 47 -152.5v-363h-108v360z" />
    <glyph glyph-name="uni0E18" unicode="&#xe18;" horiz-adv-x="561" 
d="M513 161c0 -59.333 -18.333 -102.499 -55 -129.499s-96.334 -40.5 -179.001 -40.5c-83.333 0 -143.166 14 -179.499 42s-54.5 73.667 -54.5 137v58h104v-58c0 -36.667 10 -61.667 30 -75s53.333 -20 100 -20c24 0 44.333 1.16699 61 3.5s30.167 6.83301 40.5 13.5
s17.833 15.5 22.5 26.5s7 25.167 7 42.5v47c0 15.333 -4 26.833 -12 34.5s-19.667 12.5 -35 14.5l-183 25c-42 6 -75.5 19.5 -100.5 40.5s-37.5 52.167 -37.5 93.5c0 47.333 20.333 85 61 113s98.334 42 173.001 42c82.667 0 153.667 -15.333 213 -46l-20 -82
c-29.333 15.333 -60 26.5 -92 33.5s-65 10.5 -99 10.5c-44 0 -77.167 -6.33301 -99.5 -19s-33.5 -28.334 -33.5 -47.001c0 -15.333 4.66699 -27 14 -35s22 -13.333 38 -16l181 -26c43.333 -6.66699 76.666 -20.5 99.999 -41.5s35 -53.167 35 -96.5v-45z" />
    <glyph glyph-name="uni0E19" unicode="&#xe19;" horiz-adv-x="613" 
d="M178 198c0 -42.667 8.66797 -73.334 26.001 -92.001s43.666 -28 78.999 -28c31.333 0 60.833 9.83301 88.5 29.5s48.167 43.834 61.5 72.501v380h108v-560h-98l-10 75c-17.333 -23.333 -40.5 -43.5 -69.5 -60.5s-64.5 -25.5 -106.5 -25.5c-60.667 0 -107 17 -139 51
s-48 85.667 -48 155v365h108v-362z" />
    <glyph glyph-name="uni0E1A" unicode="&#xe1a;" horiz-adv-x="614" 
d="M307 -11c-76 0 -134.5 18.5 -175.5 55.5s-61.5 91.833 -61.5 164.5v351h108v-351c0 -41.333 11 -73.5 33 -96.5s54 -34.5 96 -34.5s74 11.5 96 34.5s33 55.167 33 96.5v351h108v-351c0 -72.667 -20.5 -127.5 -61.5 -164.5s-99.5 -55.5 -175.5 -55.5z" />
    <glyph glyph-name="uni0E1B" unicode="&#xe1b;" horiz-adv-x="614" 
d="M307 -11c-76 0 -134.5 18.5 -175.5 55.5s-61.5 91.833 -61.5 164.5v351h108v-351c0 -41.333 11 -73.5 33 -96.5s54 -34.5 96 -34.5s74 11.5 96 34.5s33 55.167 33 96.5v541h108v-541c0 -72.667 -20.5 -127.5 -61.5 -164.5s-99.5 -55.5 -175.5 -55.5z" />
    <glyph glyph-name="uni0E1C" unicode="&#xe1c;" horiz-adv-x="673" 
d="M368 240c-6.66699 14.667 -12.501 29.6709 -17.501 45.0039s-8.83301 28 -11.5 38h-2c-2 -10 -5.5 -22.667 -10.5 -38s-10.833 -30.333 -17.5 -45l-120 -240h-117v434c0 18 1.5 34.667 4.5 50s8.16699 28.666 15.5 39.999s17.5 20.166 30.5 26.499s29.5 9.5 49.5 9.5h74
v-88h-50c-13.333 0 -20 -7 -20 -21v-187c0 -28 -1 -54.5 -3 -79.5s-5.33301 -51.167 -10 -78.5h3c13.333 49.333 29.333 91.666 48 126.999l87 170h74l92 -181c8.66699 -16.667 15.834 -34.334 21.501 -53.001l18.5 -63h2c-4 27.333 -7 53.5 -9 78.5s-3 51.167 -3 78.5v297
h104v-560h-117z" />
    <glyph glyph-name="uni0E1D" unicode="&#xe1d;" horiz-adv-x="673" 
d="M368 240c-6.66699 14.667 -12.501 29.6709 -17.501 45.0039s-8.83301 28 -11.5 38h-2c-2 -10 -5.5 -22.667 -10.5 -38s-10.833 -30.333 -17.5 -45l-120 -240h-117v434c0 18 1.5 34.667 4.5 50s8.16699 28.666 15.5 39.999s17.5 20.166 30.5 26.499s29.5 9.5 49.5 9.5h74
v-88h-50c-13.333 0 -20 -7 -20 -21v-187c0 -28 -1 -54.5 -3 -79.5s-5.33301 -51.167 -10 -78.5h3c13.333 49.333 29.333 91.666 48 126.999l87 170h74l92 -181c8.66699 -16.667 15.834 -34.334 21.501 -53.001l18.5 -63h2c-4 27.333 -7 53.5 -9 78.5s-3 51.167 -3 78.5v487
h104v-750h-117z" />
    <glyph glyph-name="uni0E1E" unicode="&#xe1e;" horiz-adv-x="727" 
d="M412 532l86.998 -289c6 -21.333 10.667 -43.5 14 -66.5l12 -81.5h3c0.666992 16 1.16699 30.5 1.5 43.5s1 25.333 2 37s2.16699 23 3.5 34s3 23.167 5 36.5l50 314h107l-94 -560h-119l-85 271c-8 25.333 -14.833 53.166 -20.5 83.499s-10.167 61.5 -13.5 93.5h-3
c-3.33301 -32 -7.83301 -63.167 -13.5 -93.5s-12.5 -58.166 -20.5 -83.499l-85 -271h-119l-94 560h107l50 -313c2 -13.333 3.66699 -25.666 5 -36.999s2.33301 -22.833 3 -34.5s1.33398 -24 2.00098 -37s1.33398 -27.5 2.00098 -43.5h3l12.5 82
c3.66699 23.333 8.5 45.666 14.5 66.999l86 288h97z" />
    <glyph glyph-name="uni0E1F" unicode="&#xe1f;" horiz-adv-x="727" 
d="M414 532l83.999 -266.999c8 -25.333 14.833 -50.833 20.5 -76.5s11.167 -56.834 16.5 -93.501h3c0 18 0.333008 34.333 1 49s1.33398 28.5 2.00098 41.5s1.5 25.667 2.5 38s2.16699 25.5 3.5 39.5l50 487h100l-85 -750h-117l-90 271
c-8.66699 25.333 -16.334 51.833 -23.001 79.5s-12 57.5 -16 89.5h-2c-3.33301 -32 -7.66602 -61.833 -12.999 -89.5s-12 -54.167 -20 -79.5l-88 -271h-119l-46.5 280l-47.5 280h107c4 -22 7.66699 -44.333 11 -67l11 -72.5l13 -82.5l16 -98c2 -11.333 3.5 -22.333 4.5 -33
l3 -32.5c1 -11 1.83301 -23 2.5 -36s1.33398 -27.5 2.00098 -43.5h3c3.33301 32 7.16602 59.5 11.499 82.5s9.83301 45.167 16.5 66.5l85 288h98z" />
    <glyph glyph-name="uni0E20" unicode="&#xe20;" horiz-adv-x="622" 
d="M199 100c0 -30 -8.50098 -54.334 -25.501 -73.001s-42.167 -27.667 -75.5 -27h-71v87h45c12.667 0 19 7 19 21v124c0 20 4.5 38.333 13.5 55s21.5 29.334 37.5 38.001l-91 74c6 22 16.833 43.333 32.5 64s34.834 39 57.501 55s48.5 28.833 77.5 38.5s60.5 14.5 94.5 14.5
c39.333 0 73.833 -5.5 103.5 -16.5s54.5 -26.167 74.5 -45.5s35.167 -42.5 45.5 -69.5s15.5 -56.833 15.5 -89.5v-350h-108v350c0 44 -11.667 77 -35 99s-56 33 -98 33c-34 0 -64.333 -7.66699 -91 -23s-45 -34 -55 -56l90 -76c-19.333 -8 -33.5 -18.833 -42.5 -32.5
s-13.5 -32.167 -13.5 -55.5v-139z" />
    <glyph glyph-name="uni0E21" unicode="&#xe21;" horiz-adv-x="613" 
d="M435 560l108 -0.000976562v-355c0 -69.333 -16.5 -122.666 -49.5 -159.999s-80.833 -56 -143.5 -56c-39.333 0 -73.166 8.5 -101.499 25.5s-51.166 37.167 -68.499 60.5l-10 -75h-98v560h108v-380c13.333 -28 33.666 -52 60.999 -72s56.666 -30 87.999 -30
c70.667 0 106 43.333 106 130v352z" />
    <glyph glyph-name="uni0E22" unicode="&#xe22;" horiz-adv-x="590" 
d="M412 560l107.999 -0.00195312v-348c0 -33.333 -4.66699 -63.666 -14 -90.999s-24 -50.833 -44 -70.5s-46 -34.834 -78 -45.501s-70.667 -16 -116 -16c-68.667 0 -123.5 15.667 -164.5 47s-61.5 77 -61.5 137c0 32.667 8.83301 60.667 26.5 84s41.167 38.666 70.5 45.999
c-12.667 3.33301 -24.834 8.83301 -36.501 16.5s-22 17.167 -31 28.5s-16.167 24.333 -21.5 39s-8 30.667 -8 48c0 18.667 3.33301 36 10 52s16.334 30 29.001 42s28.167 21.333 46.5 28s39.166 10 62.499 10c22 0 41.333 -1.83301 58 -5.5s31.334 -8.16699 44.001 -13.5
l-12 -85c-9.33301 4 -19.5 7.33301 -30.5 10s-21.833 4 -32.5 4c-23.333 0 -41 -5.33301 -53 -16s-18 -24.667 -18 -42c0 -11.333 2.33301 -21.333 7 -30s10.834 -16 18.501 -22s16.334 -10.5 26.001 -13.5s19.167 -4.5 28.5 -4.5h81l9 -87h-74
c-28 0 -50.667 -7.66699 -68 -23s-26 -36 -26 -62c0 -16 3.33301 -30.167 10 -42.5s15.5 -22.666 26.5 -30.999s24 -14.666 39 -18.999s30.833 -6.5 47.5 -6.5c47.333 0 82.666 11.833 105.999 35.5s35 56.834 35 99.501v347z" />
    <glyph glyph-name="uni0E23" unicode="&#xe23;" horiz-adv-x="500" 
d="M229 77c40 0 70.5029 6.49707 91.5029 19.4971s31.5 31.167 31.5 54.5c0 12.667 -3.83301 23.834 -11.5 33.501s-17.834 18.334 -30.501 26.001s-26.667 14.167 -42 19.5l-47 16c-25.333 8 -49 16.667 -71 26s-41 20.666 -57 33.999s-28.667 29.333 -38 48
s-14 41.334 -14 68.001c0 22 5 42.167 15 60.5s24.167 34 42.5 47s40.5 23.167 66.5 30.5s54.667 11 86 11c36.667 0 70.667 -4 102 -12s59.666 -18.667 84.999 -32l-28 -80c-23.333 12.667 -47.333 21.667 -72 27s-51.334 8 -80.001 8c-34 0 -61.167 -5.33301 -81.5 -16
s-30.5 -25.667 -30.5 -45c0 -11.333 3.16699 -21.166 9.5 -29.499s14.833 -15.833 25.5 -22.5s23.334 -12.834 38.001 -18.501s30.667 -11.167 48 -16.5c30 -10 56.667 -20.333 80 -31s43.166 -23.167 59.499 -37.5s28.833 -31.166 37.5 -50.499s13 -42 13 -68
c0 -46.667 -18.167 -84.667 -54.5 -114s-91.833 -44 -166.5 -44c-78.667 0 -142.667 14.333 -192 43l26 83c22.667 -11.333 47.5 -20.5 74.5 -27.5s55.167 -10.5 84.5 -10.5z" />
    <glyph glyph-name="uni0E24" unicode="&#xe24;" horiz-adv-x="614" 
d="M179 108c0 -6.66699 1.33398 -11.832 4.00098 -15.499s7.66699 -5.5 15 -5.5h56v-87h-83c-32.667 0 -57.5 9.16699 -74.5 27.5s-25.5 42.5 -25.5 72.5v136c0 20 4.83301 38.5 14.5 55.5s22.5 30.167 38.5 39.5l-81 68c6 22 16.833 43.333 32.5 64s34.834 39 57.501 55
s48.667 28.833 78 38.5s60.666 14.5 93.999 14.5c38.667 0 73 -5.5 103 -16.5s55 -26.167 75 -45.5s35.167 -42.5 45.5 -69.5s15.5 -56.833 15.5 -89.5v-550h-108v550c0 44 -11.667 77 -35 99s-56 33 -98 33c-16.667 0 -32.667 -2 -48 -6s-29.5 -9.66699 -42.5 -17
s-24.333 -15.833 -34 -25.5s-16.834 -19.834 -21.501 -30.501l80 -70c-19.333 -8 -33.833 -19.333 -43.5 -34s-14.5 -33.667 -14.5 -57v-134z" />
    <glyph glyph-name="uni0E25" unicode="&#xe25;" horiz-adv-x="586" 
d="M409 0l0.00195312 257h-131c-42 0 -75.5 -7.16699 -100.5 -21.5s-37.5 -38.5 -37.5 -72.5c0 -28.667 8.83301 -50.334 26.5 -65.001s39.167 -22 64.5 -22c13.333 0 27.166 1.5 41.499 4.5s27.833 7.16699 40.5 12.5l17 -83c-32 -13.333 -68.667 -20 -110 -20
c-26 0 -50.333 3.5 -73 10.5s-42.334 17.667 -59.001 32s-29.834 32.333 -39.501 54s-14.5 46.834 -14.5 75.501c0 121.333 84.667 182 254 182h121v16c0 38 -9.66699 68.333 -29 91s-52 34 -98 34c-40 0 -75.833 -6 -107.5 -18s-60.167 -26.667 -85.5 -44l-35 75
c12 8.66699 26.167 17.5 42.5 26.5s34.5 16.833 54.5 23.5s41.5 12.167 64.5 16.5s47.167 6.5 72.5 6.5c72.667 0 128.834 -19 168.501 -57s59.5 -89 59.5 -153v-361h-107z" />
    <glyph glyph-name="uni0E26" unicode="&#xe26;" horiz-adv-x="622" 
d="M199 100c0 -30 -8.50098 -54.334 -25.501 -73.001s-42.167 -27.667 -75.5 -27h-71v87h45c12.667 0 19 7 19 21v124c0 20 4.5 38.333 13.5 55s21.5 29.334 37.5 38.001l-91 74c6 22 16.833 43.333 32.5 64s34.834 39 57.501 55s48.5 28.833 77.5 38.5s60.5 14.5 94.5 14.5
c39.333 0 73.833 -5.5 103.5 -16.5s54.5 -26.167 74.5 -45.5s35.167 -42.5 45.5 -69.5s15.5 -56.833 15.5 -89.5v-550h-108v550c0 44 -11.667 77 -35 99s-56 33 -98 33c-34 0 -64.333 -7.66699 -91 -23s-45 -34 -55 -56l90 -76c-19.333 -8 -33.5 -18.833 -42.5 -32.5
s-13.5 -32.167 -13.5 -55.5v-139z" />
    <glyph glyph-name="uni0E27" unicode="&#xe27;" horiz-adv-x="527" 
d="M56 127c23.333 -14 48.499 -25.668 75.499 -35.001s55.5 -14 85.5 -14c49.333 0 87.833 16.667 115.5 50s41.5 83.333 41.5 150c0 70.667 -13.833 122.334 -41.5 155.001s-66.167 49 -115.5 49c-32 0 -60.667 -4.66699 -86 -14s-50.666 -22.333 -75.999 -39l-25 83
c27.333 17.333 58 31.5 92 42.5s69 16.5 105 16.5c82 0 145 -25 189 -75s66 -120.333 66 -211c0 -98 -22.667 -171.833 -68 -221.5s-109.333 -74.5 -192 -74.5c-77.333 0 -141 17.333 -191 52z" />
    <glyph glyph-name="uni0E28" unicode="&#xe28;" horiz-adv-x="629" 
d="M178 241c8 17.333 21 32 39 44s41 18 69 18h62v-92h-63c-57.333 0 -93 -26.333 -107 -79v-132h-108v351c0 30.667 5.5 59.5 16.5 86.5s27 50.333 48 70s46.667 35.167 77 46.5s64.833 17 103.5 17c20 0 38.833 -2 56.5 -6s34.167 -9.66699 49.5 -17l43 51h121l-87 -104
c21.333 -19.333 36.833 -42 46.5 -68s14.5 -53 14.5 -81v-346h-108v346c0 38 -11.333 70.167 -34 96.5s-56.667 39.5 -102 39.5c-44.667 0 -78.667 -12.333 -102 -37s-35 -56 -35 -94v-110z" />
    <glyph glyph-name="uni0E29" unicode="&#xe29;" horiz-adv-x="627" 
d="M307 -11c-76 0 -134.5 18.5 -175.5 55.5s-61.5 91.833 -61.5 164.5v351h108v-351c0 -41.333 11 -73.5 33 -96.5s54 -34.5 96 -34.5s74 11.5 96 34.5s33 55.167 33 96.5v75h-125v87h125v189h108v-189h87l-22 -87h-65v-75c0 -72.667 -20.5 -127.5 -61.5 -164.5
s-99.5 -55.5 -175.5 -55.5z" />
    <glyph glyph-name="uni0E2A" unicode="&#xe2a;" horiz-adv-x="586" 
d="M409 0l0.00390625 257.001h-131c-42 0 -75.5 -7.16699 -100.5 -21.5s-37.5 -38.5 -37.5 -72.5c0 -28.667 8.83301 -50.334 26.5 -65.001s39.167 -22 64.5 -22c13.333 0 27.166 1.5 41.499 4.5s27.833 7.16699 40.5 12.5l17 -83c-32 -13.333 -68.667 -20 -110 -20
c-26 0 -50.333 3.5 -73 10.5s-42.334 17.667 -59.001 32s-29.834 32.333 -39.501 54s-14.5 46.834 -14.5 75.501c0 121.333 84.667 182 254 182h121v16c0 18 -2.33301 34.5 -7 49.5s-12 28.167 -22 39.5s-23 20.166 -39 26.499s-35.333 9.5 -58 9.5
c-40.667 0 -76.834 -6 -108.501 -18s-60.167 -26.667 -85.5 -44l-35 75c12 9.33301 26.5 18.333 43.5 27s35.5 16.5 55.5 23.5s41.333 12.5 64 16.5s45.667 6 69 6c38.667 0 71.667 -6.33301 99 -19l39 47h120l-80 -97c17.333 -18 30.333 -39 39 -63s13 -50 13 -78v-361
h-107z" />
    <glyph glyph-name="uni0E2B" unicode="&#xe2b;" horiz-adv-x="597" 
d="M462 0l-76 246c-18 56.667 -49.667 85.667 -95 87l-111 -94v-239h-108v560h108v-205l246 205h140l-200 -165c34.667 -7.33301 61.5 -22.333 80.5 -45s33.833 -50.667 44.5 -84l84 -266h-113z" />
    <glyph glyph-name="uni0E2C" unicode="&#xe2c;" horiz-adv-x="673" 
d="M601 0l-117.002 -0.00292969l-51 100.5l-50 100.5l-19 39c-7.33301 14 -13.166 28.833 -17.499 44.5s-8.16602 28.5 -11.499 38.5h-2l-10.5 -38.5c-4.33301 -15.667 -10.166 -30.5 -17.499 -44.5l-116 -240h-117v560h104v-273c0 -24 -0.833008 -51.5 -2.5 -82.5
s-5.16699 -63.833 -10.5 -98.5h3c6 23.333 12.167 44.333 18.5 63s13.5 36.334 21.5 53.001l91 181h74l74 -139c11.333 -21.333 22.5 -45.166 33.5 -71.499s20.5 -55.166 28.5 -86.499h2c-4.66699 32 -7.83398 62.167 -9.50098 90.5s-2.5 58.166 -2.5 89.499v144
c0 26 -5.33301 47.167 -16 63.5s-28.667 24.5 -54 24.5h-12l-16 42l135 190h109l-142 -183c33.333 -5.33301 58.333 -21.166 75 -47.499s25 -57.833 25 -94.5v-425z" />
    <glyph glyph-name="uni0E2D" unicode="&#xe2d;" horiz-adv-x="598" 
d="M172 234c-14.667 0 -22.002 -7.99805 -22.002 -23.998v-15c0 -78 44.667 -117 134 -117c50 0 89.5 16.333 118.5 49s43.5 85 43.5 157c0 64 -15 113 -45 147s-70.333 51 -121 51c-42 0 -79.667 -6.66699 -113 -20s-62.666 -29.666 -87.999 -48.999l-35 80
c12.667 10 27.334 19.667 44.001 29s35.167 17.666 55.5 24.999s42.333 13.166 66 17.499s48.5 6.5 74.5 6.5c42 0 79.667 -6.5 113 -19.5s61.666 -32 84.999 -57s41.166 -55.5 53.499 -91.5s18.5 -77 18.5 -123c0 -96.667 -23.167 -169.334 -69.5 -218.001
s-111.166 -73 -194.499 -73s-145.166 18.167 -185.499 54.5s-60.5 86.833 -60.5 151.5v23c0 70 34 105 102 105h109v-89h-83z" />
    <glyph glyph-name="uni0E2E" unicode="&#xe2e;" horiz-adv-x="598" 
d="M172 234c-14.667 0 -22.0029 -7.99902 -22.0029 -23.999v-15c0 -78 44.667 -117 134 -117c50 0 89.5 16.333 118.5 49s43.5 85 43.5 157c0 30.667 -4.16699 58.334 -12.5 83.001s-19.833 45.5 -34.5 62.5s-32.167 30 -52.5 39s-42.5 13.5 -66.5 13.5
c-42 0 -79.667 -6.66699 -113 -20s-62.666 -29.666 -87.999 -48.999l-35 80c12.667 10 27.334 19.667 44.001 29s35.167 17.666 55.5 24.999s42.333 13.166 66 17.499s48.5 6.5 74.5 6.5c39.333 0 76.333 -7.33301 111 -22l43 50h120l-85 -101
c25.333 -25.333 45.166 -56.5 59.499 -93.5s21.5 -78.5 21.5 -124.5c0 -96.667 -23.167 -169.334 -69.5 -218.001s-111.166 -73 -194.499 -73s-145.166 18.167 -185.499 54.5s-60.5 86.833 -60.5 151.5v23c0 70 34 105 102 105h109v-89h-83z" />
    <glyph glyph-name="uni0E2F" unicode="&#xe2f;" horiz-adv-x="553" 
d="M373 0v400c-13.333 -26 -35 -47.333 -65 -64s-63 -25 -99 -25c-30 0 -55.833 5 -77.5 15s-39.667 24 -54 42s-25 39.167 -32 63.5s-10.5 50.833 -10.5 79.5v49h106v-49c0 -76.667 29 -115 87 -115c18 0 35.833 3.66699 53.5 11s33.5 17.333 47.5 30s25.333 27.5 34 44.5
s13 35.167 13 54.5v24h105v-560h-108z" />
    <glyph glyph-name="uni0E30" unicode="&#xe30;" horiz-adv-x="312" 
d="M143 453c0 -14 7 -21 21 -21h102v-84h-123c-29.333 0 -53.5 7.33301 -72.5 22s-28.5 39.667 -28.5 75v48h101v-40zM143 180c0 -14 7 -21 21 -21h102v-84h-123c-29.333 0 -53.5 7.33301 -72.5 22s-28.5 39.667 -28.5 75v48h101v-40z" />
    <glyph glyph-name="uni0E31" unicode="&#xe31;" 
d="M-201 744c0 -17.333 8.33301 -26 25 -26h246v-84h-265c-33.333 0 -59.5 8 -78.5 24s-28.5 42 -28.5 78v45h101v-37z" />
    <glyph glyph-name="uni0E32" unicode="&#xe32;" horiz-adv-x="481" 
d="M303 0l-0.000976562 359.999c0 81.333 -35 122 -105 122c-30.667 0 -60.167 -5.66699 -88.5 -17s-53.166 -24.666 -74.499 -39.999l-28 79c23.333 17.333 53 32.833 89 46.5s73.333 20.5 112 20.5c66.667 0 117.167 -19 151.5 -57s51.5 -90.667 51.5 -158v-356h-108z" />
    <glyph glyph-name="uni0E33" unicode="&#xe33;" horiz-adv-x="481" 
d="M-126 619c-14.667 0 -28.5 2.66699 -41.5 8s-24.167 12.833 -33.5 22.5s-16.833 20.834 -22.5 33.501s-8.5 26.667 -8.5 42c0 30 10.167 55 30.5 75s45.5 30 75.5 30s55.167 -10 75.5 -30s30.5 -45 30.5 -75c0 -15.333 -2.83301 -29.333 -8.5 -42
s-13.167 -23.834 -22.5 -33.501s-20.5 -17.167 -33.5 -22.5s-26.833 -8 -41.5 -8zM-126 684c11.333 0 21 4.16699 29 12.5s12 18.166 12 29.499s-4 21 -12 29s-17.667 12 -29 12s-20.833 -4 -28.5 -12s-11.5 -17.667 -11.5 -29s3.83301 -21.166 11.5 -29.499
s17.167 -12.5 28.5 -12.5zM303 0l-0.000976562 359.999c0 81.333 -35 122 -105 122c-30.667 0 -60.167 -5.66699 -88.5 -17s-53.166 -24.666 -74.499 -39.999l-28 79c23.333 17.333 53 32.833 89 46.5s73.333 20.5 112 20.5c66.667 0 117.167 -19 151.5 -57
s51.5 -90.667 51.5 -158v-356h-108z" />
    <glyph glyph-name="uni0E34" unicode="&#xe34;" 
d="M-512 634v84h442v-84h-442z" />
    <glyph glyph-name="uni0E35" unicode="&#xe35;" 
d="M-512 634v84h343v93h99v-177h-442z" />
    <glyph glyph-name="uni0E36" unicode="&#xe36;" 
d="M-174 634l-338.001 0.00195312v84h276c0 29.333 8.33301 54.333 25 75s40 31 70 31c26.667 0 49.334 -9 68.001 -27s28 -40.667 28 -68c0 -13.333 -2.66699 -25.833 -8 -37.5s-12.5 -21.834 -21.5 -30.501s-19.333 -15.334 -31 -20.001s-23.5 -7 -35.5 -7h-33z
M-141.001 694.002c10 0 18.333 3.5 25 10.5s10 15.5 10 25.5s-3.33301 18.333 -10 25s-15 10 -25 10c-9.33301 0 -17.5 -3.33301 -24.5 -10s-10.5 -15 -10.5 -25s3.5 -18.5 10.5 -25.5s15.167 -10.5 24.5 -10.5z" />
    <glyph glyph-name="uni0E37" unicode="&#xe37;" 
d="M-512 634v84h232v93h81v-97h48v97h81v-177h-442z" />
    <glyph glyph-name="uni0E38" unicode="&#xe38;" 
d="M-171 -174c0 14.667 -7.33301 22 -22 22h-39v84h75c30 0 52 -6.66699 66 -20s21 -36 21 -68v-116h-101v98z" />
    <glyph glyph-name="uni0E39" unicode="&#xe39;" 
d="M-210 -282c-46 0 -80.498 9.66699 -103.498 29s-34.5 46 -34.5 80v24h-57v81h153v-105c0 -13.333 4.16699 -23 12.5 -29s18.166 -9 29.499 -9s21.166 3 29.499 9s12.5 15.667 12.5 29v105h98v-105c0 -34 -12 -60.667 -36 -80s-58.667 -29 -104 -29z" />
    <glyph glyph-name="uni0E3A" unicode="&#xe3a;" 
d="M-53 -132c0 -19.333 -7 -36.002 -21 -50.002s-31.333 -21 -52 -21c-10 0 -19.333 1.83301 -28 5.5s-16.334 8.83398 -23.001 15.501s-12 14.334 -16 23.001s-6 17.667 -6 27s2 18.333 6 27s9.33301 16.167 16 22.5s14.334 11.5 23.001 15.5s18 6 28 6
c20.667 0 38 -7 52 -21s21 -30.667 21 -50z" />
    <glyph glyph-name="uni0E3F" unicode="&#xe3f;" horiz-adv-x="580" 
d="M270 0h-197.998v651h198v99h60v-100c62.667 -4.66699 109.167 -22.5 139.5 -53.5s45.5 -71.167 45.5 -120.5c0 -18 -3 -34.167 -9 -48.5s-13.5 -27 -22.5 -38s-19 -20.333 -30 -28s-21.833 -13.834 -32.5 -18.501c16 -3.33301 31.167 -9 45.5 -17
s27.166 -18.167 38.499 -30.5s20.333 -27.333 27 -45s10 -37.834 10 -60.501c0 -26 -4.16699 -50.167 -12.5 -72.5s-21.333 -41.666 -39 -57.999s-39.834 -29.666 -66.501 -39.999s-58 -16.5 -94 -18.5v-101h-60v100zM270.002 89v203h-95v-203h95zM270.002 380v181h-95v-181
h95zM439.002 193c0 31.333 -9.66699 54.501 -29 69.501s-46 24.167 -80 27.5v-199c34 4 60.667 14.667 80 32s29 40.666 29 69.999zM413.002 475.001c0 24 -7.5 43 -22.5 57s-35.167 23 -60.5 27v-177c24 4 43.833 13.5 59.5 28.5s23.5 36.5 23.5 64.5z" />
    <glyph glyph-name="uni0E40" unicode="&#xe40;" horiz-adv-x="254" 
d="M181 560v-560h-108v560h108z" />
    <glyph glyph-name="uni0E41" unicode="&#xe41;" horiz-adv-x="465" 
d="M180 560v-560h-107v560h107zM392 560v-560h-107v560h107z" />
    <glyph glyph-name="uni0E42" unicode="&#xe42;" horiz-adv-x="288" 
d="M103 0l-0.000976562 606.998c0 28.667 -4.16699 53.667 -12.5 75s-18.333 39.5 -30 54.5s-23.667 27 -36 36s-22.833 15.167 -31.5 18.5l-2 26c21.333 36.667 53.333 65.834 96 87.501s91.667 32.5 147 32.5c41.333 0 75.333 -3 102 -9s51 -13.333 73 -22l-17 -90
c-23.333 12 -47.666 20.5 -72.999 25.5s-51.333 7.5 -78 7.5c-32 0 -59.667 -4.16699 -83 -12.5s-41 -19.166 -53 -32.499c34 -19.333 60.333 -46.5 79 -81.5s28 -76.167 28 -123.5v-599h-109z" />
    <glyph glyph-name="uni0E43" unicode="&#xe43;" horiz-adv-x="288" 
d="M103 0l0.00195312 527.001c0 28 6.33301 53.333 19 76s26.5 44 41.5 64l41.5 57c12.667 18 19 36.333 19 55c0 19.333 -5.83301 35.666 -17.5 48.999s-30.834 20 -57.501 20c-26 0 -50.333 -6.33301 -73 -19s-45.334 -30 -68.001 -52l-38 69
c22.667 26.667 50.5 48.5 83.5 65.5s70.5 25.5 112.5 25.5c26.667 0 50.334 -4 71.001 -12s38.167 -19 52.5 -33s25.166 -30.333 32.499 -49s11 -38.334 11 -59.001c0 -27.333 -6.33301 -51.833 -19 -73.5s-26.5 -42.5 -41.5 -62.5s-28.833 -40.667 -41.5 -62
s-19 -45.666 -19 -72.999v-513h-109z" />
    <glyph glyph-name="uni0E44" unicode="&#xe44;" horiz-adv-x="288" 
d="M103 0l0.000976562 653c0 42 7.16699 78.167 21.5 108.5s35.166 54.5 62.499 72.5h-220v87h343v-77c-32.667 -14.667 -57.167 -37 -73.5 -67s-24.5 -66.667 -24.5 -110v-667h-109z" />
    <glyph glyph-name="uni0E45" unicode="&#xe45;" horiz-adv-x="481" 
d="M303 -200l-0.000976562 559.999c0 81.333 -35 122 -105 122c-30.667 0 -60.167 -5.66699 -88.5 -17s-53.166 -24.666 -74.499 -39.999l-28 79c23.333 17.333 53 32.833 89 46.5s73.333 20.5 112 20.5c66.667 0 117.167 -19 151.5 -57s51.5 -90.667 51.5 -158v-556h-108z
" />
    <glyph glyph-name="uni0E46" unicode="&#xe46;" horiz-adv-x="569" 
d="M391 -200v619c0 43.333 -13.333 67.333 -40 72l-81 -56l-87 56c-15.333 -3.33301 -26.833 -10.5 -34.5 -21.5s-11.5 -24.167 -11.5 -39.5c0 -18 5.33301 -32.167 16 -42.5s23.334 -15.5 38.001 -15.5c3.33301 0 8 0.333008 14 1s13.667 2.66699 23 6l13 -77
c-18 -8.66699 -39.333 -13 -64 -13c-16.667 0 -33 2.83301 -49 8.5s-30.333 14.167 -43 25.5s-22.834 26 -30.501 44s-11.5 39.333 -11.5 64c0 21.333 4 40.333 12 57s18.667 30.834 32 42.501s28.5 21 45.5 28s34.833 11.5 53.5 13.5l84 -61l84 61
c48 -3.33301 84.167 -20.333 108.5 -51s36.5 -68.334 36.5 -113.001v-608h-108z" />
    <glyph glyph-name="uni0E47" unicode="&#xe47;" 
d="M-174 633c-17.333 0 -32.6709 4.50098 -46.0039 13.501s-23.666 20.833 -30.999 35.5c-6 -15.333 -16.5 -28.166 -31.5 -38.499s-34.167 -15.5 -57.5 -15.5c-36.667 0 -66 10.667 -88 32s-33 49 -33 83c0 15.333 2.83301 30.166 8.5 44.499s14.167 27.166 25.5 38.499
s25.5 20.333 42.5 27s37.167 10 60.5 10h218v-77h-215c-17.333 0 -30 -4.33301 -38 -13s-12 -19 -12 -31s3.83301 -22.333 11.5 -31s17.834 -13 30.501 -13s23.334 4.16699 32.001 12.5s14 18.166 16 29.499h56c2.66699 -9.33301 7.83398 -16.666 15.501 -21.999
s18.167 -8 31.5 -8h73v-77h-69z" />
    <glyph glyph-name="uni0E48" unicode="&#xe48;" 
d="M-169 862v149h99v-149h-99z" />
    <glyph glyph-name="uni0E49" unicode="&#xe49;" 
d="M-145 957c0 -10 4.66602 -15.001 13.999 -15.001h134v-80h-180c-13.333 0 -24.5 4 -33.5 12s-13.5 18.667 -13.5 32v25c0 5.33301 -0.833008 9.33301 -2.5 12s-5.16699 4 -10.5 4h-55v81h87c18.667 0 33.334 -4.16699 44.001 -12.5s16 -21.166 16 -38.499v-20z" />
    <glyph glyph-name="uni0E4A" unicode="&#xe4a;" 
d="M-157 862l-6.99902 15.9971c6 6 9 15.333 9 28c0 9.33301 -2.66699 16.666 -8 21.999s-12 8.66602 -20 9.99902l-45 -33l-46 30c-6.66699 -1.33301 -12 -4.66602 -16 -9.99902s-6 -11.666 -6 -18.999c0 -9.33301 1 -17.166 3 -23.499s5 -13.833 9 -22.5h-78
c-5.33301 9.33301 -9 19.333 -11 30s-3 21 -3 31s2 20.167 6 30.5s9.83301 19.833 17.5 28.5s17.334 15.834 29.001 21.501s25.167 9.16699 40.5 10.5l56 -46l51 47c26.667 -1.33301 47 -9.5 61 -24.5s21.667 -33.5 23 -55.5c0 -8 -1 -16 -3 -24
c11.333 8 19.166 19.167 23.499 33.5s6.5 30.166 6.5 47.499c0 16 -4.33301 32.333 -13 49h89c3.33301 -7.33301 5.83301 -14.666 7.5 -21.999s2.5 -16 2.5 -26c0 -17.333 -3 -33.666 -9 -48.999s-14.5 -29 -25.5 -41s-24.333 -21.5 -40 -28.5s-32.834 -10.5 -51.501 -10.5
h-52z" />
    <glyph glyph-name="uni0E4B" unicode="&#xe4b;" 
d="M-242 999l80 -2l-3 67h90l-2 -67l79 2v-73l-79 3l2 -67h-90l3 67l-80 -3v73z" />
    <glyph glyph-name="uni0E4C" unicode="&#xe4c;" 
d="M-94 829c-20.667 0 -31 -10.334 -31 -31.001v-28h-105v43c0 30.667 9.33301 54.834 28 72.501s46.667 26.5 84 26.5h100v-83h-76z" />
    <glyph glyph-name="uni0E4D" unicode="&#xe4d;" 
d="M-126 619c-14.667 0 -28.5 2.66699 -41.5 8s-24.167 12.833 -33.5 22.5s-16.833 20.834 -22.5 33.501s-8.5 26.667 -8.5 42c0 30 10.167 55 30.5 75s45.5 30 75.5 30s55.167 -10 75.5 -30s30.5 -45 30.5 -75c0 -15.333 -2.83301 -29.333 -8.5 -42
s-13.167 -23.834 -22.5 -33.501s-20.5 -17.167 -33.5 -22.5s-26.833 -8 -41.5 -8zM-126 684c11.333 0 21 4.16699 29 12.5s12 18.166 12 29.499s-4 21 -12 29s-17.667 12 -29 12s-20.833 -4 -28.5 -12s-11.5 -17.667 -11.5 -29s3.83301 -21.166 11.5 -29.499
s17.167 -12.5 28.5 -12.5z" />
    <glyph glyph-name="uni0E4E" unicode="&#xe4e;" 
d="M-142 646c-9.33301 -5.33301 -19.5 -9.50098 -30.5 -12.501s-23.5 -4.5 -37.5 -4.5c-16 0 -30.833 1.66699 -44.5 5s-25.834 8.66602 -36.501 15.999s-19 16.833 -25 28.5s-9 25.834 -9 42.501c0 26.667 9.5 49 28.5 67s49.167 24.667 90.5 20
c-4.66699 4.66699 -8.5 10.334 -11.5 17.001s-4.5 13.667 -4.5 21c0 12.667 5.5 24 16.5 34s29.5 15 55.5 15h71l16 -63h-71c-4 0 -7.33301 -1.66699 -10 -5s-4 -7.33301 -4 -12c0 -5.33301 2.83301 -10.333 8.5 -15s12.834 -9.33398 21.501 -14.001l-18 -44
c-22 6.66699 -43.333 10 -64 10c-12.667 0 -23 -2.33301 -31 -7s-12 -11.667 -12 -21s4 -16.666 12 -21.999s18.667 -8 32 -8c7.33301 0 15.833 0.5 25.5 1.5s20.167 3.83301 31.5 8.5v-58z" />
    <glyph glyph-name="uni0E4F" unicode="&#xe4f;" horiz-adv-x="546" 
d="M273 26c-29.333 0 -57 5.66699 -83 17s-48.667 26.666 -68 45.999s-34.5 42 -45.5 68s-16.5 53.667 -16.5 83s5.5 57 16.5 83s26.167 48.667 45.5 68s42 34.5 68 45.5s53.667 16.5 83 16.5s57 -5.5 83 -16.5s48.667 -26.167 68 -45.5s34.5 -42 45.5 -68
s16.5 -53.667 16.5 -83s-5.5 -57 -16.5 -83s-26.167 -48.667 -45.5 -68s-42 -34.666 -68 -45.999s-53.667 -17 -83 -17zM273 65c24 0 46.667 4.5 68 13.5s39.833 21.5 55.5 37.5s28 34.667 37 56s13.5 44 13.5 68s-4.5 46.5 -13.5 67.5s-21.333 39.5 -37 55.5
s-34.167 28.5 -55.5 37.5s-44 13.5 -68 13.5s-46.667 -4.5 -68 -13.5s-39.833 -21.5 -55.5 -37.5s-28.167 -34.5 -37.5 -55.5s-14 -43.5 -14 -67.5s4.66699 -46.667 14 -68s21.833 -40 37.5 -56s34.167 -28.5 55.5 -37.5s44 -13.5 68 -13.5zM273 117
c-17.333 0 -33.5 3.16699 -48.5 9.5s-28.167 15 -39.5 26s-20.166 24 -26.499 39s-9.5 30.833 -9.5 47.5c0 17.333 3.33301 33.666 10 48.999s15.5 28.5 26.5 39.5s24 19.667 39 26s30.833 9.5 47.5 9.5c17.333 0 33.5 -3.16699 48.5 -9.5s28.167 -15.166 39.5 -26.499
s20.166 -24.5 26.499 -39.5s9.5 -30.833 9.5 -47.5c0 -17.333 -3.33301 -33.5 -10 -48.5s-15.5 -28 -26.5 -39s-24 -19.667 -39 -26s-30.833 -9.5 -47.5 -9.5zM273 179c16 0 29.834 5.83398 41.501 17.501s17.5 26.167 17.5 43.5c0 16 -5.83301 29.833 -17.5 41.5
s-25.834 17.5 -42.501 17.5c-16 0 -30 -5.83301 -42 -17.5s-18 -25.834 -18 -42.501c0 -16 5.83301 -30 17.5 -42s26.167 -18 43.5 -18z" />
    <glyph glyph-name="uni0E50" unicode="&#xe50;" horiz-adv-x="644" 
d="M149 242c0 -26 4.5 -49.333 13.5 -70s21.167 -38.334 36.5 -53.001s33.5 -25.834 54.5 -33.501s43.5 -11.5 67.5 -11.5s46.667 3.83301 68 11.5s39.666 18.834 54.999 33.501s27.5 32.334 36.5 53.001s13.5 44 13.5 70s-4.5 49.333 -13.5 70s-21.167 38.167 -36.5 52.5
s-33.666 25.333 -54.999 33s-44 11.5 -68 11.5s-46.5 -3.83301 -67.5 -11.5s-39.167 -18.667 -54.5 -33s-27.5 -31.833 -36.5 -52.5s-13.5 -44 -13.5 -70zM44 242c0 40 7.33301 75.5 22 106.5s34.5 57.333 59.5 79s54.5 38.167 88.5 49.5s70 17 108 17
s73.833 -5.66699 107.5 -17s63.167 -27.833 88.5 -49.5s45.333 -48 60 -79s22 -66.5 22 -106.5s-7.33301 -75.5 -22 -106.5s-34.667 -57.333 -60 -79s-55 -38.167 -89 -49.5s-70 -17 -108 -17s-73.833 5.66699 -107.5 17s-63 27.833 -88 49.5s-44.833 48 -59.5 79
s-22 66.5 -22 106.5z" />
    <glyph glyph-name="uni0E51" unicode="&#xe51;" horiz-adv-x="653" 
d="M261 -30l30.0059 0.00390625c26 0 51.667 4.66699 77 14s48 23.5 68 42.5s36.167 42.833 48.5 71.5s18.5 62.667 18.5 102c0 32.667 -4.5 62 -13.5 88s-21.833 48 -38.5 66s-36.334 31.667 -59.001 41s-48 14 -76 14c-25.333 0 -48.5 -3.83301 -69.5 -11.5
s-39 -18.334 -54 -32.001s-26.667 -29.834 -35 -48.501s-12.5 -39.334 -12.5 -62.001c0 -42 10.667 -74.333 32 -97s48.333 -34 81 -34c15.333 0 31.166 1.5 47.499 4.5s31.166 7.5 44.499 13.5l10 -77c-32 -16.667 -66 -25 -102 -25c-29.333 0 -57 4.5 -83 13.5
s-48.833 22.333 -68.5 40s-35.334 40 -47.001 67s-17.5 58.5 -17.5 94.5s6.66699 68.667 20 98s32.166 54.5 56.499 75.5s53.333 37.167 87 48.5s70.5 17 110.5 17c44.667 0 85 -6.83301 121 -20.5s66.667 -33.334 92 -59.001s45 -56.5 59 -92.5s21 -76 21 -120
c0 -49.333 -8.5 -93.5 -25.5 -132.5s-40.167 -72 -69.5 -99s-63.833 -47.667 -103.5 -62s-81.834 -21.5 -126.501 -21.5h-33z" />
    <glyph glyph-name="uni0E52" unicode="&#xe52;" horiz-adv-x="756" 
d="M691 198c0 -29.333 -4.33105 -56.165 -12.998 -80.498s-21.334 -45.166 -38.001 -62.499s-37.334 -30.833 -62.001 -40.5s-53 -14.5 -85 -14.5h-228c-32 0 -60.333 4.83301 -85 14.5s-45.334 23.167 -62.001 40.5s-29.334 38.166 -38.001 62.499s-13 51.166 -13 80.499
v362h106v-362c0 -37.333 8.83301 -65.5 26.5 -84.5s41.167 -28.5 70.5 -28.5h219c28.667 0 51.834 9.5 69.501 28.5s26.5 47.167 26.5 84.5v116c0 27.333 -4 48.166 -12 62.499s-21.667 23.5 -41 27.5l-77 -57l-81 58c-13.333 -3.33301 -23.833 -11.666 -31.5 -24.999
s-11.5 -28 -11.5 -44c0 -20 6.5 -37.5 19.5 -52.5s29.5 -25.833 49.5 -32.5l-24 -68c-43.333 6.66699 -78.166 23.5 -104.499 50.5s-39.5 62.833 -39.5 107.5c0 38.667 11.333 72 34 100s55 45.667 97 53l92 -73l83 73c54 -6.66699 93 -24.834 117 -54.501
s36 -72.167 36 -127.5v-114z" />
    <glyph glyph-name="uni0E53" unicode="&#xe53;" horiz-adv-x="670" 
d="M290 180l0.00292969 145.002c0 26 -3.83301 46.5 -11.5 61.5s-21.834 22.5 -42.501 22.5c-30 0 -51.333 -15.5 -64 -46.5s-19 -70.5 -19 -118.5c0 -52.667 7.66699 -94.167 23 -124.5s37 -45.5 65 -45.5c14.667 0 31 3.66699 49 11l20 -68c-22 -16 -47 -24 -75 -24
c-29.333 0 -55.5 5.83301 -78.5 17.5s-42.5 28.334 -58.5 50.001s-28.333 48 -37 79s-13 65.5 -13 103.5c0 37.333 4 71.333 12 102s19.667 57 35 79s34 39.167 56 51.5s47 18.5 75 18.5c30 0 53.833 -6.66699 71.5 -20s31.167 -30.666 40.5 -51.999
c10.667 21.333 25.167 38.666 43.5 51.999s44.166 20 77.499 20c46 0 81.833 -15 107.5 -45s38.5 -69.333 38.5 -118v-331h-106v332c0 9.33301 -0.666992 18.666 -2 27.999s-3.83301 17.666 -7.5 24.999s-9 13.166 -16 17.499s-15.833 6.5 -26.5 6.5
c-22.667 0 -38.834 -7.5 -48.501 -22.5s-14.5 -35.5 -14.5 -61.5v-145h-94z" />
    <glyph glyph-name="uni0E54" unicode="&#xe54;" horiz-adv-x="617" 
d="M512 0c-31.333 0 -56.4961 2.83105 -75.4961 8.49805s-36.167 16.167 -51.5 31.5c-11.333 -13.333 -27 -25.166 -47 -35.499s-47.667 -15.5 -83 -15.5c-30.667 0 -58.834 5.66699 -84.501 17s-47.834 27.833 -66.501 49.5s-33.334 47.834 -44.001 78.501s-16 65 -16 103
c0 40.667 6.83301 76.5 20.5 107.5s32.5 56.667 56.5 77s52.5 35.666 85.5 45.999s68.833 15.5 107.5 15.5h105c15.333 0 27.833 1.33301 37.5 4s17.167 6.33398 22.5 11.001s8.83301 10.167 10.5 16.5s2.5 13.5 2.5 21.5v24h105v-24c0 -46 -14.167 -80.5 -42.5 -103.5
s-68.833 -34.5 -121.5 -34.5h-118c-51.333 0 -91.833 -12.5 -121.5 -37.5s-44.5 -65.5 -44.5 -121.5c0 -25.333 3.33301 -48.166 10 -68.499s15.5 -37.833 26.5 -52.5s24 -25.834 39 -33.501s31.167 -11.5 48.5 -11.5c18 0 33 2.33301 45 7s22.333 10.667 31 18
c-7.33301 11.333 -13 23.833 -17 37.5s-6 27.5 -6 41.5c0 21.333 3.5 39.833 10.5 55.5s16.5 28.5 28.5 38.5s26 17.5 42 22.5s33 7.5 51 7.5h79l-18 -83h-38c-15.333 0 -28.333 -5 -39 -15s-16 -24.333 -16 -43c0 -23.333 8.16699 -42 24.5 -56s42.166 -21 77.499 -21h64
l-18 -83h-62z" />
    <glyph glyph-name="uni0E55" unicode="&#xe55;" horiz-adv-x="617" 
d="M512 0c-31.333 0 -56.4971 2.83008 -75.4971 8.49707s-36.167 16.167 -51.5 31.5c-11.333 -13.333 -27 -25.166 -47 -35.499s-47.667 -15.5 -83 -15.5c-30.667 0 -58.834 5.66699 -84.501 17s-47.834 27.833 -66.501 49.5s-33.334 47.834 -44.001 78.501s-16 65 -16 103
c0 58.667 13.333 106.5 40 143.5s62.334 64.167 107.001 81.5c-5.33301 12.667 -8 25.667 -8 39c0 14 2.66699 27.167 8 39.5s12.5 23 21.5 32s19.667 16.167 32 21.5s25.5 8 39.5 8s27.167 -2.66699 39.5 -8s23 -12.5 32 -21.5s16.167 -19.667 21.5 -32s8 -25.5 8 -39.5
c0 -5.33301 -0.666992 -11.333 -2 -18h36c15.333 0 27.833 1.33301 37.5 4s17.167 6.33398 22.5 11.001s8.83301 10.167 10.5 16.5s2.5 13.5 2.5 21.5v24h105v-24c0 -46 -14 -80.5 -42 -103.5s-68.667 -34.5 -122 -34.5h-118c-51.333 0 -91.833 -12.5 -121.5 -37.5
s-44.5 -65.5 -44.5 -121.5c0 -25.333 3.33301 -48.166 10 -68.499s15.5 -37.833 26.5 -52.5s24 -25.834 39 -33.501s31.167 -11.5 48.5 -11.5c18 0 33 2.33301 45 7s22.333 10.667 31 18c-7.33301 11.333 -13 23.833 -17 37.5s-6 27.5 -6 41.5
c0 21.333 3.5 39.833 10.5 55.5s16.5 28.5 28.5 38.5s26 17.5 42 22.5s33 7.5 51 7.5h79l-18 -83h-38c-15.333 0 -28.333 -5 -39 -15s-16 -24.333 -16 -43c0 -23.333 8.16699 -42 24.5 -56s42.166 -21 77.499 -21h64l-18 -83h-62zM284.003 464.997
c10 0 18.5 3.66699 25.5 11s10.5 16 10.5 26c0 10.667 -3.5 19.334 -10.5 26.001s-15.5 10 -25.5 10c-9.33301 0 -17.5 -3.33301 -24.5 -10s-10.5 -15.334 -10.5 -26.001c0 -10 3.5 -18.667 10.5 -26s15.167 -11 24.5 -11z" />
    <glyph glyph-name="uni0E56" unicode="&#xe56;" horiz-adv-x="620" 
d="M189 226c-7.33301 -8 -13.002 -17.4971 -17.002 -28.4971s-6 -21.833 -6 -32.5c0 -12 3 -23.333 9 -34s14.833 -20.334 26.5 -29.001s26 -15.5 43 -20.5s36.5 -7.5 58.5 -7.5c28 0 52.5 4.5 73.5 13.5s38.333 21.167 52 36.5s24 33.666 31 54.999
s10.5 44.666 10.5 69.999c0 24 -3.66699 45.833 -11 65.5s-17.833 36.5 -31.5 50.5s-30.167 25 -49.5 33s-41 12 -65 12c-34.667 0 -64 -6.33301 -88 -19s-44 -29.667 -60 -51h-81l-79 230h106l44 -151c17.333 21.333 41.333 39.166 72 53.499s65 21.5 103 21.5
c33.333 0 65 -6 95 -18s56.167 -28.833 78.5 -50.5s40 -47.667 53 -78s19.5 -64.166 19.5 -101.499c0 -33.333 -5.16699 -65.5 -15.5 -96.5s-26.666 -58.333 -48.999 -82s-50.666 -42.667 -84.999 -57s-75.5 -21.5 -123.5 -21.5c-37.333 0 -70.833 4.33301 -100.5 13
s-54.667 21 -75 37s-36 35 -47 57s-16.5 46.333 -16.5 73c0 24 4.83301 45.5 14.5 64.5s21.5 34.833 35.5 47.5z" />
    <glyph glyph-name="uni0E57" unicode="&#xe57;" horiz-adv-x="818" 
d="M273 300l-0.00390625 43.998c0 20 -2.66699 35.833 -8 47.5s-16.666 17.5 -33.999 17.5c-14 0 -26 -4.16699 -36 -12.5s-18.167 -19.666 -24.5 -33.999s-10.833 -31.666 -13.5 -51.999s-4 -42.5 -4 -66.5c0 -52.667 8.16699 -94.167 24.5 -124.5s37.5 -45.5 63.5 -45.5
c16 0 32.333 3.66699 49 11l20 -68c-11.333 -8.66699 -23.333 -14.834 -36 -18.501s-25.667 -5.5 -39 -5.5c-29.333 0 -55.5 5.83301 -78.5 17.5s-42.5 28.334 -58.5 50.001s-28.333 48 -37 79s-13 65.5 -13 103.5c0 37.333 4 71.333 12 102s19.5 57 34.5 79
s33.167 39.167 54.5 51.5s45.333 18.5 72 18.5s47.334 -5.83301 62.001 -17.5s25.334 -27.834 32.001 -48.501c9.33301 20.667 23.333 36.834 42 48.501s42.334 17.5 71.001 17.5c38 0 67.833 -15 89.5 -45s32.5 -69.333 32.5 -118v-257h22c23.333 0 41.833 8 55.5 24
s20.5 39 20.5 69v393h103v-384c0 -52.667 -14.667 -95.167 -44 -127.5s-74 -48.5 -134 -48.5h-125v335c0 19.333 -3 36.5 -9 51.5s-19 22.5 -39 22.5c-15.333 0 -26.5 -5.66699 -33.5 -17s-10.5 -27.333 -10.5 -48v-44h-83z" />
    <glyph glyph-name="uni0E58" unicode="&#xe58;" horiz-adv-x="656" 
d="M295 398c-42 0 -73.668 -11.3311 -95.001 -33.998s-32 -52 -32 -88v-107c0 -25.333 6 -45 18 -59s27 -21.667 45 -23l112 94l119 -93c17.333 5.33301 30.666 15.166 39.999 29.499s14 31.166 14 50.499c0 23.333 -7.33301 42 -22 56s-32.334 22.333 -53.001 25l32 79
c21.333 -2.66699 40.833 -8.66699 58.5 -18s32.667 -21.166 45 -35.499s22 -30.833 29 -49.5s10.5 -38.667 10.5 -60c0 -22.667 -4.66699 -44.167 -14 -64.5s-21.5 -38.166 -36.5 -53.499s-32.167 -27.833 -51.5 -37.5s-39 -14.834 -59 -15.501l-112 91l-99 -90
c-56.667 1.33301 -101 16.166 -133 44.499s-48 69.166 -48 122.499v119c0 28.667 5.33301 55.334 16 80.001s25.834 46 45.501 64s43.334 32.167 71.001 42.5s58.834 15.5 93.501 15.5h130c30.667 0 50.5 5 59.5 15s13.5 22.667 13.5 38v24h104v-24
c0 -46 -14 -80.5 -42 -103.5s-68.667 -34.5 -122 -34.5h-137z" />
    <glyph glyph-name="uni0E59" unicode="&#xe59;" horiz-adv-x="634" 
d="M430 0l-117.999 334.997c-8.66699 23.333 -18 41.333 -28 54s-25.667 19 -47 19c-14 0 -26.667 -4 -38 -12s-20.833 -19.167 -28.5 -33.5s-13.667 -31.333 -18 -51s-6.5 -41.5 -6.5 -65.5c0 -28 2.5 -52.667 7.5 -74s11.667 -39.333 20 -54s18 -25.834 29 -33.501
s22.167 -11.5 33.5 -11.5c21.333 0 43.333 6.33301 66 19l21 -72c-27.333 -20 -58 -30 -92 -30c-26 0 -50.5 5.66699 -73.5 17s-43.167 27.833 -60.5 49.5s-31 48.334 -41 80.001s-15 67.834 -15 108.501c0 37.333 5 71.333 15 102s23.5 56.834 40.5 78.501
s37.167 38.5 60.5 50.5s48.333 18 75 18c35.333 0 63.166 -6.5 83.499 -19.5s36.5 -30.5 48.5 -52.5c-1.33301 22.667 5.16699 40.334 19.5 53.001s32.166 19 53.499 19c37.333 0 63.666 -17.667 78.999 -53l20 119h93l-40 -205h-77
c-5.33301 18.667 -12.666 33.167 -21.999 43.5s-21.666 15.5 -36.999 15.5c-14.667 0 -26 -5.66699 -34 -17s-12 -24 -12 -38l124 -359h-101z" />
    <glyph glyph-name="uni0E5B" unicode="&#xe5b;" horiz-adv-x="1148" 
d="M1133 186c-18 -6 -34.998 -10.333 -50.998 -13s-30 -4 -42 -4c-28.667 0 -53.667 7.16699 -75 21.5s-39 34.5 -53 60.5l-40 -132h-45l-62 168l-58 -186h-46l-58 165c-10 -31.333 -24.167 -60.5 -42.5 -87.5s-40 -50.333 -65 -70s-53 -35.167 -84 -46.5
s-64.167 -17 -99.5 -17c-38 0 -72.5 6.16699 -103.5 18.5s-57.5 29.5 -79.5 51.5s-39 47.833 -51 77.5s-18 61.834 -18 96.501c0 32.667 5.33301 63 16 91s25.834 52.167 45.501 72.5s43 36.166 70 47.499s57.167 17 90.5 17c28.667 0 54.667 -5.5 78 -16.5
s43 -25.833 59 -44.5s28.5 -39.834 37.5 -63.501s13.833 -48.167 14.5 -73.5h-79c-2.66699 36 -13.834 65.667 -33.501 89s-45.5 35 -77.5 35c-22 0 -41.333 -4.33301 -58 -13s-30.834 -20.334 -42.501 -35.001s-20.334 -31.167 -26.001 -49.5s-8.5 -37.166 -8.5 -56.499
c0 -25.333 4.33301 -48.166 13 -68.499s20.667 -37.666 36 -51.999s33.333 -25.5 54 -33.5s43 -12 67 -12c41.333 0 77 10.333 107 31s55 46.667 75 78s35.167 65.666 45.5 102.999s16.5 73 18.5 107h53l69 -198l51 177h52l59 -168l45 145h46
c4 -52.667 16 -93.167 36 -121.5s45.333 -42.5 76 -42.5c18.667 0 39 4 61 12z" />
    <glyph glyph-name="endash" unicode="&#x2013;" horiz-adv-x="525" 
d="M500 289v-76h-475v76h475z" />
    <glyph glyph-name="emdash" unicode="&#x2014;" horiz-adv-x="985" 
d="M925 289v-76h-865v76h865z" />
    <glyph glyph-name="quoteleft" unicode="&#x2018;" horiz-adv-x="219" 
d="M164 674c-10.667 -16.667 -19.667 -35.5049 -27 -56.5049s-11 -36.833 -11 -47.5c0 -8.66699 3.66699 -13 11 -13c14 0 24.5 -5.16699 31.5 -15.5s10.5 -23.166 10.5 -38.499c0 -16.667 -5 -30.167 -15 -40.5s-24.667 -15.5 -44 -15.5c-42.667 0 -64 22.333 -64 67
c0 12.667 2 26.834 6 42.501s9.16699 31.334 15.5 47.001s13.5 30.834 21.5 45.501s16 27.334 24 38.001z" />
    <glyph glyph-name="quoteright" unicode="&#x2019;" horiz-adv-x="219" 
d="M55 460c5.33301 8 10.333 17.0029 15 27.0029s8.66699 19.833 12 29.5s5.83301 18.667 7.5 27s2.5 15.166 2.5 20.499c0 8.66699 -3.66699 13 -11 13c-13.333 0 -23.5 5.16699 -30.5 15.5s-10.5 23.166 -10.5 38.499c0 16.667 4.83301 30.167 14.5 40.5
s24.167 15.5 43.5 15.5c43.333 0 65 -22.333 65 -67c0 -13.333 -2 -27.666 -6 -42.999s-9.16699 -30.833 -15.5 -46.5s-13.5 -30.834 -21.5 -45.501s-16 -27.334 -24 -38.001l-41 13v0z" />
    <glyph glyph-name="quotesinglbase" unicode="&#x201a;" horiz-adv-x="219" 
d="M55 -99c4.66699 8 9.33301 16.835 14 26.502s8.66699 19.167 12 28.5s6 18.166 8 26.499s3 15.166 3 20.499c0 4 -0.666992 7.5 -2 10.5s-4.33301 4.5 -9 4.5c-13.333 0 -23.5 5.16699 -30.5 15.5s-10.5 23.166 -10.5 38.499c0 16.667 5 30.167 15 40.5
s24.333 15.5 43 15.5c43.333 0 65 -22.333 65 -67c0 -13.333 -2 -27.666 -6 -42.999s-9.16699 -30.833 -15.5 -46.5s-13.5 -30.667 -21.5 -45s-16 -26.833 -24 -37.5z" />
    <glyph glyph-name="quotedblleft" unicode="&#x201c;" horiz-adv-x="387" 
d="M332 674c-10.667 -16.667 -19.667 -35.5049 -27 -56.5049s-11 -36.833 -11 -47.5c0 -8.66699 3.66699 -13 11 -13c14 0 24.5 -5.16699 31.5 -15.5s10.5 -23.166 10.5 -38.499c0 -16.667 -5 -30.167 -15 -40.5s-24.667 -15.5 -44 -15.5c-42.667 0 -64 22.333 -64 67
c0 12.667 2 26.834 6 42.501s9.16699 31.334 15.5 47.001s13.5 30.834 21.5 45.501s16 27.334 24 38.001zM164 673.995c-10.667 -16.667 -19.667 -35.5049 -27 -56.5049s-11 -36.833 -11 -47.5c0 -8.66699 3.66699 -13 11 -13c14 0 24.5 -5.16699 31.5 -15.5
s10.5 -23.166 10.5 -38.499c0 -16.667 -5 -30.167 -15 -40.5s-24.667 -15.5 -44 -15.5c-42.667 0 -64 22.333 -64 67c0 12.667 2 26.834 6 42.501s9.16699 31.334 15.5 47.001s13.5 30.834 21.5 45.501s16 27.334 24 38.001z" />
    <glyph glyph-name="quotedblright" unicode="&#x201d;" horiz-adv-x="387" 
d="M55 460c10.667 16.667 19.667 35.502 27 56.502s11 36.833 11 47.5c0 8.66699 -3.66699 13 -11 13c-14 0 -24.5 5.16699 -31.5 15.5s-10.5 23.166 -10.5 38.499c0 16.667 5 30.167 15 40.5s24.667 15.5 44 15.5c42.667 0 64 -22.333 64 -67
c0 -13.333 -2 -27.666 -6 -42.999s-9.16699 -30.833 -15.5 -46.5s-13.5 -30.834 -21.5 -45.501s-16 -27.334 -24 -38.001zM223 460.002c10.667 16.667 19.667 35.502 27 56.502s11 36.833 11 47.5c0 8.66699 -3.66699 13 -11 13c-14 0 -24.5 5.16699 -31.5 15.5
s-10.5 23.166 -10.5 38.499c0 16.667 5 30.167 15 40.5s24.667 15.5 44 15.5c42.667 0 64 -22.333 64 -67c0 -13.333 -2 -27.666 -6 -42.999s-9.16699 -30.833 -15.5 -46.5s-13.5 -30.834 -21.5 -45.501s-16 -27.334 -24 -38.001z" />
    <glyph glyph-name="quotedblbase" unicode="&#x201e;" horiz-adv-x="387" 
d="M223 -99c4.66699 8 9.33301 16.835 14 26.502s8.66699 19.167 12 28.5s6 18.166 8 26.499s3 15.166 3 20.499c0 4 -0.666992 7.5 -2 10.5s-4.33301 4.5 -9 4.5c-13.333 0 -23.5 5.16699 -30.5 15.5s-10.5 23.166 -10.5 38.499c0 16.667 5 30.167 15 40.5
s24.333 15.5 43 15.5c43.333 0 65 -22.333 65 -67c0 -13.333 -2 -27.666 -6 -42.999s-9.16699 -30.833 -15.5 -46.5s-13.5 -30.667 -21.5 -45s-16 -26.833 -24 -37.5zM54.999 -98.998c4.66699 8 9.33301 16.835 14 26.502s8.66699 19.167 12 28.5s6 18.166 8 26.499
s3 15.166 3 20.499c0 4 -0.666992 7.5 -2 10.5s-4.33301 4.5 -9 4.5c-13.333 0 -23.5 5.16699 -30.5 15.5s-10.5 23.166 -10.5 38.499c0 16.667 5 30.167 15 40.5s24.333 15.5 43 15.5c43.333 0 65 -22.333 65 -67c0 -13.333 -2 -27.666 -6 -42.999
s-9.16699 -30.833 -15.5 -46.5s-13.5 -30.667 -21.5 -45s-16 -26.833 -24 -37.5z" />
    <glyph glyph-name="dagger" unicode="&#x2020;" horiz-adv-x="544" 
d="M324 0h-104v404h-168v79h168v191h104v-191h168v-79h-168v-404z" />
    <glyph glyph-name="daggerdbl" unicode="&#x2021;" horiz-adv-x="544" 
d="M324 220h168v-79h-168v-191h-104v191h-168v79h168v184h-168v79h168v191h104v-191h168v-79h-168v-184z" />
    <glyph glyph-name="bullet" unicode="&#x2022;" horiz-adv-x="317" 
d="M158 227c-19.333 0 -36.001 2.83203 -50.001 8.49902s-25.667 13.5 -35 23.5s-16.333 21.667 -21 35s-7 27.333 -7 42c0 30.667 9.33301 56.834 28 78.501s47 32.5 85 32.5s66.5 -10.833 85.5 -32.5s28.5 -47.5 28.5 -77.5c0 -14.667 -2.5 -28.667 -7.5 -42
s-12.167 -25 -21.5 -35s-21.166 -18 -35.499 -24s-30.833 -9 -49.5 -9z" />
    <glyph glyph-name="ellipsis" unicode="&#x2026;" horiz-adv-x="756" 
d="M55 57c0 18.667 6 34.834 18 48.501s29.667 20.5 53 20.5c22.667 0 40.167 -6.83301 52.5 -20.5s18.5 -29.834 18.5 -48.501s-6.16699 -34.834 -18.5 -48.501s-29.833 -20.5 -52.5 -20.5c-23.333 0 -41 6.83301 -53 20.5s-18 29.834 -18 48.501zM307 57
c0 18.667 6 34.834 18 48.501s29.667 20.5 53 20.5c22.667 0 40.167 -6.83301 52.5 -20.5s18.5 -29.834 18.5 -48.501s-6.16699 -34.834 -18.5 -48.501s-29.833 -20.5 -52.5 -20.5c-23.333 0 -41 6.83301 -53 20.5s-18 29.834 -18 48.501zM559 57
c0 18.667 6 34.834 18 48.501s29.667 20.5 53 20.5c22.667 0 40.167 -6.83301 52.5 -20.5s18.5 -29.834 18.5 -48.501s-6.16699 -34.834 -18.5 -48.501s-29.833 -20.5 -52.5 -20.5c-23.333 0 -41 6.83301 -53 20.5s-18 29.834 -18 48.501z" />
    <glyph glyph-name="perthousand" unicode="&#x2030;" horiz-adv-x="1135" 
d="M528 660h94l-366 -660h-95zM121 484c0 -14.667 1.16699 -28.667 3.5 -42s6 -25 11 -35s11.333 -18 19 -24s16.834 -9 27.501 -9s19.834 3 27.501 9s14 14 19 24s8.66699 21.667 11 35s3.5 27.333 3.5 42s-1.16699 28.667 -3.5 42s-6 25 -11 35s-11.333 18 -19 24
s-16.834 9 -27.501 9s-19.834 -3 -27.501 -9s-14 -14 -19 -24s-8.66699 -21.667 -11 -35s-3.5 -27.333 -3.5 -42zM36 484c0 24 3.16699 46.667 9.5 68s15.833 40.166 28.5 56.499s28 29.166 46 38.499s38.667 14 62 14c22.667 0 43.167 -4.66699 61.5 -14
s33.666 -22.166 45.999 -38.499s21.833 -35.166 28.5 -56.499s10 -44 10 -68s-3.33301 -46.667 -10 -68s-16.167 -40 -28.5 -56s-27.666 -28.667 -45.999 -38s-38.833 -14 -61.5 -14c-23.333 0 -44 4.66699 -62 14s-33.333 22 -46 38s-22.167 34.667 -28.5 56
s-9.5 44 -9.5 68zM541 165c0 -14.667 1.16699 -28.667 3.5 -42s6 -25 11 -35s11.333 -18 19 -24s16.834 -9 27.501 -9s19.834 3 27.501 9s14 14 19 24s8.66699 21.667 11 35s3.5 27.333 3.5 42s-1.16699 28.667 -3.5 42s-6 25 -11 35s-11.333 18 -19 24s-16.834 9 -27.501 9
s-19.834 -3 -27.501 -9s-14 -14 -19 -24s-8.66699 -21.667 -11 -35s-3.5 -27.333 -3.5 -42zM456 165c0 24 3.16699 46.667 9.5 68s15.833 40.166 28.5 56.499s28 29.166 46 38.499s38.667 14 62 14c22.667 0 43.167 -4.66699 61.5 -14s33.666 -22.166 45.999 -38.499
s21.833 -35.166 28.5 -56.499s10 -44 10 -68s-3.33301 -46.667 -10 -68s-16.167 -40 -28.5 -56s-27.666 -28.667 -45.999 -38s-38.833 -14 -61.5 -14c-23.333 0 -44 4.66699 -62 14s-33.333 22 -46 38s-22.167 34.667 -28.5 56s-9.5 44 -9.5 68zM892 165
c0 -14.667 1.16699 -28.667 3.5 -42s6 -25 11 -35s11.333 -18 19 -24s16.834 -9 27.501 -9s19.834 3 27.501 9s14 14 19 24s8.66699 21.667 11 35s3.5 27.333 3.5 42s-1.16699 28.667 -3.5 42s-6 25 -11 35s-11.333 18 -19 24s-16.834 9 -27.501 9s-19.834 -3 -27.501 -9
s-14 -14 -19 -24s-8.66699 -21.667 -11 -35s-3.5 -27.333 -3.5 -42zM807 165c0 24 3.16699 46.667 9.5 68s15.833 40.166 28.5 56.499s28 29.166 46 38.499s38.667 14 62 14c22.667 0 43.167 -4.66699 61.5 -14s33.666 -22.166 45.999 -38.499s21.833 -35.166 28.5 -56.499
s10 -44 10 -68s-3.33301 -46.667 -10 -68s-16.167 -40 -28.5 -56s-27.666 -28.667 -45.999 -38s-38.833 -14 -61.5 -14c-23.333 0 -44 4.66699 -62 14s-33.333 22 -46 38s-22.167 34.667 -28.5 56s-9.5 44 -9.5 68z" />
    <glyph glyph-name="guilsinglleft" unicode="&#x2039;" horiz-adv-x="288" 
d="M125 242l128 -180h-95l-128 180l128 180h95z" />
    <glyph glyph-name="guilsinglright" unicode="&#x203a;" horiz-adv-x="288" 
d="M35 422h95l128 -180l-128 -180h-95l128 180z" />
    <glyph glyph-name="fraction" unicode="&#x2044;" horiz-adv-x="461" 
d="M361 660h95l-367 -660h-94z" />
    <glyph glyph-name="Euro" unicode="&#x20ac;" horiz-adv-x="580" 
d="M63 296l56.002 -0.000976562c-1.33301 6.66699 -2 13.334 -2 20.001v21v18c0 6 0.333008 12 1 18h-72l17 56h62c6 36 16.167 69.667 30.5 101s32.333 58.5 54 81.5s47.167 41 76.5 54s62.666 19.5 99.999 19.5c34 0 62.833 -4.66699 86.5 -14s44.5 -22.666 62.5 -39.999
l-28 -87c-15.333 17.333 -32.833 30.166 -52.5 38.499s-40.167 12.5 -61.5 12.5c-37.333 0 -70.833 -13.333 -100.5 -40s-50.167 -68.667 -61.5 -126h214l-17 -56h-204c-0.666992 -6 -1 -12 -1 -18v-18v-21c0 -6.66699 0.666992 -13.334 2 -20.001h220l-17 -56h-195
c12 -56 32.833 -96.833 62.5 -122.5s62.834 -38.5 99.501 -38.5c21.333 0 42.166 4.16699 62.499 12.5s38.166 21.166 53.499 38.499l28 -87c-18 -17.333 -39.167 -30.666 -63.5 -39.999s-53.5 -14 -87.5 -14c-36.667 0 -69.667 6.33301 -99 19s-55 30.334 -77 53.001
s-40.167 49.167 -54.5 79.5s-24.833 63.5 -31.5 99.5h-80z" />
    <glyph glyph-name="afii61289" unicode="&#x2113;" horiz-adv-x="407" 
d="M211 322c23.333 26 41.667 56.5 55 91.5s20 76.167 20 123.5c0 60 -11.333 90 -34 90c-13.333 0 -23.5 -11 -30.5 -33s-10.5 -60 -10.5 -114v-158zM108.001 166c-10.667 -8.66699 -21.334 -16.168 -32.001 -22.501l-32 -18.5l-39 56c18.667 11.333 36.667 22.833 54 34.5
s33.666 24.5 48.999 38.5v226c0 72 12.833 126.167 38.5 162.5s61.5 54.5 107.5 54.5c17.333 0 33.833 -3.33301 49.5 -10s29.334 -16.5 41.001 -29.5s20.834 -29.667 27.501 -50s10 -43.833 10 -70.5c0 -60 -14.833 -116.167 -44.5 -168.5s-71.167 -99.5 -124.5 -141.5v-71
c0 -30 4.33301 -50.333 13 -61s21.667 -16 39 -16c20.667 0 39.667 4.33301 57 13l24 -78c-11.333 -7.33301 -24.833 -13.166 -40.5 -17.499s-34.167 -6.5 -55.5 -6.5c-52.667 0 -89.5 14.667 -110.5 44s-31.5 73.333 -31.5 132z" />
    <glyph glyph-name="trademark" unicode="&#x2122;" horiz-adv-x="795" 
d="M197 619v-325h-65v325l-112 -1v56h292v-56zM558 408l13.001 41.5c4.66699 14.333 9.66699 27.166 15 38.499l83 186h76v-379h-65v209c0 13.333 0.5 26.833 1.5 40.5s2.16699 25.167 3.5 34.5h-3c-1.33301 -6 -3.83301 -15.667 -7.5 -29s-8.5 -27 -14.5 -41l-69 -153h-67
l-68 153c-6.66699 14 -11.834 27.667 -15.501 41s-6.16699 23 -7.5 29h-2l2.5 -34.5c1 -13.667 1.5 -27.167 1.5 -40.5v-209h-64v379h76l82 -186c5.33301 -11.333 10.333 -24.166 15 -38.499l13 -41.5h1z" />
    <glyph glyph-name="Omega" unicode="&#x2126;" horiz-adv-x="755" 
d="M379 590c-32 0 -61.1631 -5.16699 -87.4961 -15.5s-49.166 -25 -68.499 -44s-34.333 -42.5 -45 -70.5s-16 -59.333 -16 -94c0 -35.333 5.66699 -68.666 17 -99.999s25.5 -60.166 42.5 -86.499s35.5 -49.5 55.5 -69.5s38.667 -36.333 56 -49v-61h-232v83h118
c-14.667 12.667 -30.834 28.834 -48.501 48.501s-34.334 42.167 -50.001 67.5s-28.834 53.333 -39.501 84s-16 63.334 -16 98.001c0 46 7.66699 87.5 23 124.5s36.833 68.833 64.5 95.5s60.5 47.167 98.5 61.5s80 21.5 126 21.5s88.167 -7.16699 126.5 -21.5
s71.333 -34.833 99 -61.5s49.167 -58.5 64.5 -95.5s23 -78.5 23 -124.5c0 -34.667 -5.33301 -67.334 -16 -98.001s-23.834 -58.667 -39.501 -84s-32.5 -47.833 -50.5 -67.5s-34.333 -35.834 -49 -48.501h119v-83h-233v61c17.333 12.667 36.166 29 56.499 49
s39 43.167 56 69.5s31.167 55.166 42.5 86.499s17 64.666 17 99.999c0 34.667 -5.33301 66 -16 94s-25.5 51.5 -44.5 70.5s-41.667 33.667 -68 44s-54.833 15.5 -85.5 15.5z" />
    <glyph glyph-name="estimated" unicode="&#x212e;" horiz-adv-x="818" 
d="M782 309l-610.001 -0.000976562v-183c6 -7.33301 16.5 -17.333 31.5 -30s33 -25 54 -37s44.5 -22.5 70.5 -31.5s52.667 -13.5 80 -13.5c28.667 0 55.834 4 81.501 12s48.834 17.667 69.501 29s38.5 23.5 53.5 36.5s26.167 24.5 33.5 34.5h72
c-38 -46 -84.333 -80.667 -139 -104s-111.334 -35 -170.001 -35c-51.333 0 -99.666 8.16699 -144.999 24.5s-84.833 39.333 -118.5 69s-60.334 65.167 -80.001 106.5s-29.5 86.666 -29.5 135.999c0 48.667 9.83301 93.667 29.5 135s46.334 76.833 80.001 106.5
s73.167 52.834 118.5 69.501s93.666 25 144.999 25s99.666 -8.16699 144.999 -24.5s84.833 -39.166 118.5 -68.499s60.334 -64 80.001 -104s29.5 -83.667 29.5 -131v-22zM645.999 518.999c-7.33301 10 -18.5 21.499 -33.5 34.499s-33 25.333 -54 37
s-44.167 21.334 -69.5 29.001s-52.333 11.5 -81 11.5c-27.333 0 -54 -4.5 -80 -13.5s-49.5 -19.5 -70.5 -31.5s-39 -24.333 -54 -37s-25.5 -22.667 -31.5 -30v-182h474v182z" />
    <glyph glyph-name="partialdiff" unicode="&#x2202;" horiz-adv-x="604" 
d="M303 348c-24.667 0 -46.668 -5 -66.001 -15s-35.666 -23.333 -48.999 -40s-23.5 -35.5 -30.5 -56.5s-10.5 -42.5 -10.5 -64.5c0 -30 7.5 -53 22.5 -69s35.833 -24 62.5 -24c20 0 39.667 4.66699 59 14s37.833 23 55.5 41s33.5 40 47.5 66s25.333 55.667 34 89
c-12 16 -28.833 29.833 -50.5 41.5s-46.5 17.5 -74.5 17.5zM340.999 571c-23.333 0 -46 -2.83105 -68 -8.49805s-42.667 -14.167 -62 -25.5l-14 81c20 12 44.667 22 74 30s58.333 12 87 12c66.667 0 117.667 -19.333 153 -58s53 -92.334 53 -161.001
c0 -29.333 -3.16699 -60.833 -9.5 -94.5s-15.833 -67.167 -28.5 -100.5s-28.334 -65.333 -47.001 -96s-40.5 -57.834 -65.5 -81.501s-53 -42.667 -84 -57s-65.167 -21.5 -102.5 -21.5c-62.667 0 -109.834 15.833 -141.501 47.5s-47.5 74.5 -47.5 128.5
c0 34 6.5 67.333 19.5 100s31.333 61.667 55 87s51.667 45.833 84 61.5s67.833 23.5 106.5 23.5c20 0 37.667 -2 53 -6s28.833 -9.16699 40.5 -15.5s21.834 -13.333 30.501 -21s16.334 -15.167 23.001 -22.5c7.33301 24 11 48.333 11 73c0 40 -10.5 70.833 -31.5 92.5
s-50.5 32.5 -88.5 32.5z" />
    <glyph glyph-name="Delta" unicode="&#x2206;" horiz-adv-x="632" 
d="M315 505l-157 -421h311zM607 0h-582l266 674h49z" />
    <glyph glyph-name="product" unicode="&#x220f;" horiz-adv-x="616" 
d="M85 674h446v-722h-104v631h-238v-631h-104v722z" />
    <glyph glyph-name="summation" unicode="&#x2211;" horiz-adv-x="550" 
d="M38 -48v48l243 316l-225 306v52h441v-74h-313l209 -283l-223 -291h345v-74h-477z" />
    <glyph glyph-name="minus" unicode="&#x2212;" horiz-adv-x="580" 
d="M501 241h-422v85h422v-85z" />
    <glyph glyph-name="radical" unicode="&#x221a;" horiz-adv-x="526" 
d="M16 325v78h147l87 -300l160 571h91l-203 -686h-92l-107 337h-83z" />
    <glyph glyph-name="infinity" unicode="&#x221e;" horiz-adv-x="773" 
d="M218 221c25.333 0 49.666 8.66699 72.999 26s43.333 38 60 62c-18 25.333 -38.667 45 -62 59s-47.666 21 -72.999 21c-28 0 -49.333 -7.33301 -64 -22s-22 -33.667 -22 -57c0 -26 8.16699 -47.333 24.5 -64s37.5 -25 63.5 -25zM642 310c0 23.333 -7 43.334 -21 60.001
s-36 25 -66 25c-27.333 0 -51.5 -7.83301 -72.5 -23.5s-41.167 -36.5 -60.5 -62.5c17.333 -27.333 37.5 -48 60.5 -62s47.5 -21 73.5 -21c30 0 51.833 8.16699 65.5 24.5s20.5 36.166 20.5 59.499zM721 311.001c0 -21.333 -3.66602 -41.333 -10.999 -60
s-18 -34.834 -32 -48.501s-30.833 -24.5 -50.5 -32.5s-41.834 -12 -66.501 -12c-37.333 0 -71 9 -101 27s-54.667 40.333 -74 67c-20.667 -24 -45.667 -45.667 -75 -65s-62.666 -29 -99.999 -29c-23.333 0 -44.666 3.66699 -63.999 11s-36 17.5 -50 30.5
s-25 28.833 -33 47.5s-12 39.334 -12 62.001c0 22 4 42.333 12 61s19 34.5 33 47.5s30.833 23.167 50.5 30.5s41.167 11 64.5 11c20 0 38.333 -2.5 55 -7.5s32.167 -11.833 46.5 -20.5s27.666 -18.667 39.999 -30s23.5 -23.333 33.5 -36c8 10.667 17.5 21.5 28.5 32.5
s23.667 21 38 30s30.166 16.5 47.499 22.5s36.666 9 57.999 9c23.333 0 44.833 -3.66699 64.5 -11s36.834 -17.5 51.501 -30.5s26 -28.5 34 -46.5s12 -38 12 -60z" />
    <glyph glyph-name="integral" unicode="&#x222b;" horiz-adv-x="438" 
d="M272 121c0 -57.333 -10.833 -101 -32.5 -131s-58.5 -45 -110.5 -45c-21.333 0 -39.833 2.33301 -55.5 7s-29.167 10.334 -40.5 17.001l24 78c17.333 -8.66699 36.333 -13 57 -13c19.333 0 32.833 6.16699 40.5 18.5s11.5 33.5 11.5 63.5v392
c0 57.333 10.833 101.166 32.5 131.499s58.5 45.5 110.5 45.5c20.667 0 39 -2.33301 55 -7s29.667 -10.667 41 -18l-24 -78c-18 8.66699 -37 13 -57 13s-33.667 -6.16699 -41 -18.5s-11 -33.5 -11 -63.5v-392z" />
    <glyph glyph-name="approxequal" unicode="&#x2248;" horiz-adv-x="580" 
d="M377 292c-21.333 0 -40.334 3.99805 -57.001 11.998s-32.167 16.667 -46.5 26s-28.333 18 -42 26s-28.5 12 -44.5 12c-21.333 0 -39.333 -6.66699 -54 -20s-28 -30 -40 -50l-50 53c6 12.667 13.333 25.334 22 38.001s19 24.167 31 34.5s25.833 18.833 41.5 25.5
s33.167 10 52.5 10c22 0 41.167 -4 57.5 -12s31.5 -16.667 45.5 -26s27.833 -18 41.5 -26s28.834 -12 45.501 -12c20.667 0 38.5 6.83301 53.5 20.5s28.5 30.167 40.5 49.5l50 -52c-6 -13.333 -13.667 -26.5 -23 -39.5s-20 -24.667 -32 -35s-25.667 -18.666 -41 -24.999
s-32.333 -9.5 -51 -9.5zM376.999 106.998c-21.333 0 -40.334 3.99707 -57.001 11.9971s-32.167 16.833 -46.5 26.5s-28.333 18.5 -42 26.5s-28.5 12 -44.5 12c-21.333 0 -39.333 -6.83301 -54 -20.5s-28 -30.167 -40 -49.5l-50 52c6 12.667 13.333 25.334 22 38.001
s19 24.334 31 35.001s25.833 19.334 41.5 26.001s33.167 10 52.5 10c22 0 41.167 -4 57.5 -12s31.5 -16.667 45.5 -26s27.833 -18 41.5 -26s28.834 -12 45.501 -12c20.667 0 38.5 6.66699 53.5 20s28.5 29.666 40.5 48.999l50 -52c-6 -13.333 -13.667 -26.5 -23 -39.5
s-20 -24.667 -32 -35s-25.667 -18.666 -41 -24.999s-32.333 -9.5 -51 -9.5z" />
    <glyph glyph-name="notequal" unicode="&#x2260;" horiz-adv-x="580" 
d="M379 411h119v-80h-151l-41 -102h192v-80h-224l-59 -149h-72l59 149h-120v80h152l41 102h-193v80h225l66 167h72z" />
    <glyph glyph-name="lessequal" unicode="&#x2264;" horiz-adv-x="580" 
d="M62 377l438 234v-102l-326 -164l326 -164v-101l-438 233v64zM500 0h-438v65h438v-65z" />
    <glyph glyph-name="greaterequal" unicode="&#x2265;" horiz-adv-x="580" 
d="M520 0h-440v65h440v-65zM520 313l-440 -233v101l328 164l-328 164v102l440 -234v-64z" />
    <glyph glyph-name="lozenge" unicode="&#x25ca;" horiz-adv-x="593" 
d="M449 342l-153 236l-154 -236l154 -237zM557 342l-229 -342h-64l-228 341l228 343h64z" />
    <glyph glyph-name="uni0E10.alt1" unicode="&#xf700;" horiz-adv-x="545" 
d="M167 0l-51.998 211c-3.33301 15.333 -12.333 23 -27 23h-38v89h59c27.333 0 49 -5.16699 65 -15.5s27.667 -30.5 35 -60.5l38 -158h12c17.333 0.666992 34 6 50 16s30.333 23.833 43 41.5s22.667 39.167 30 64.5s11 54.333 11 87c0 62 -13.667 108.167 -41 138.5
s-66 45.5 -116 45.5c-34.667 0 -68.834 -6.33301 -102.501 -19s-63.834 -30.667 -90.501 -54l-33 80c28 24 61.667 43.667 101 59s82 23 128 23c42 0 81.333 -8.33301 118 -25l45 53h121l-91 -108c22 -24.667 39 -53.334 51 -86.001s18 -68.667 18 -108
c0 -42.667 -6.33301 -82.167 -19 -118.5s-30 -67.666 -52 -93.999s-48 -47 -78 -62s-62.333 -22.5 -97 -22.5h-88z" />
    <glyph glyph-name="uni0E34.alt1" unicode="&#xf701;" 
d="M-609 634v84h379v-84h-379z" />
    <glyph glyph-name="uni0E35.alt1" unicode="&#xf702;" 
d="M-609 634v84h281v93h98v-177h-379z" />
    <glyph glyph-name="uni0E36.alt1" unicode="&#xf703;" 
d="M-332 634l-276.997 0.000976562v84h209v6c0 13.333 2.33301 26.166 7 38.499s11.334 23 20.001 32s18.667 16.167 30 21.5s23.666 8 36.999 8c27.333 0 50.166 -9 68.499 -27s27.5 -40.667 27.5 -68c0 -13.333 -2.66699 -25.833 -8 -37.5s-12.333 -21.667 -21 -30
s-18.834 -15 -30.501 -20s-23.834 -7.5 -36.501 -7.5h-26zM-305.997 694.001c10 0 18.333 3.5 25 10.5s10 15.5 10 25.5s-3.33301 18.333 -10 25s-15 10 -25 10c-9.33301 0 -17.333 -3.33301 -24 -10s-10 -15 -10 -25s3.33301 -18.5 10 -25.5s14.667 -10.5 24 -10.5z" />
    <glyph glyph-name="uni0E37.alt1" unicode="&#xf704;" 
d="M-609 634v84h170v93h80v-97h49v97h80v-177h-379z" />
    <glyph glyph-name="uni0E48.alt1" unicode="&#xf705;" 
d="M-375 634v180h102v-180h-102z" />
    <glyph glyph-name="uni0E49.alt1" unicode="&#xf706;" 
d="M-356 734c0 -10.667 5.33398 -16 16.001 -16h136v-84h-176c-15.333 0 -29.5 2.83301 -42.5 8.5s-19.5 18.167 -19.5 37.5v27c0 6 -1 10.333 -3 13s-6.33301 4 -13 4h-56v87h95c19.333 0 34.666 -4.33301 45.999 -13s17 -22 17 -40v-24z" />
    <glyph glyph-name="uni0E4A.alt1" unicode="&#xf707;" 
d="M-389 634l-7.00488 17.001c6 6.66699 9 17.667 9 33c0 10 -2.5 18.167 -7.5 24.5s-12.167 10.166 -21.5 11.499l-42 -33l-46 30c-8 -1.33301 -14 -5.16602 -18 -11.499s-6 -13.5 -6 -21.5c0 -10.667 0.833008 -19.667 2.5 -27s4.83398 -15.666 9.50098 -24.999h-84
c-5.33301 9.33301 -9.33301 20.166 -12 32.499s-4 23.833 -4 34.5s2.16699 21.667 6.5 33s10.833 21.666 19.5 30.999s19.334 17.166 32.001 23.499s27.334 10.166 44.001 11.499l27 -24c8.66699 -8 17.667 -15.667 27 -23l50 48
c28.667 -1.33301 50.834 -10.166 66.501 -26.499s24.167 -37.166 25.5 -62.499v-13c0 -4 -0.666992 -8.33301 -2 -13c12.667 9.33301 20.834 22.333 24.501 39s5.5 32.667 5.5 48c0 11.333 -1.16699 21.5 -3.5 30.5s-5.83301 18.167 -10.5 27.5h92
c3.33301 -8 6 -16.333 8 -25s3 -20 3 -34c0 -17.333 -3 -34.166 -9 -50.499s-14.5 -30.833 -25.5 -43.5s-24.5 -22.834 -40.5 -30.501s-34.333 -11.5 -55 -11.5h-58z" />
    <glyph glyph-name="uni0E4B.alt1" unicode="&#xf708;" 
d="M-492 788l90 -2l-3 81h95l-3 -81l91 2v-75l-91 2l3 -81h-95l3 81l-90 -2v75z" />
    <glyph glyph-name="uni0E4C.alt1" unicode="&#xf709;" 
d="M-307 698c-11.333 0 -20.167 -2.66699 -26.5 -8s-9.5 -14.333 -9.5 -27v-31h-111v46c0 34 10.333 60.5 31 79.5s51 28.5 91 28.5h105v-88h-80z" />
    <glyph glyph-name="uni0E48.alt2" unicode="&#xf70a;" 
d="M-172 634v180h102v-180h-102z" />
    <glyph glyph-name="uni0E49.alt2" unicode="&#xf70b;" 
d="M-175 734c0 -10.667 5.33496 -16 16.002 -16h134v-84h-188c-12.667 0 -23.834 3.83301 -33.501 11.5s-14.5 19.167 -14.5 34.5v27c0 6 -1 10.333 -3 13s-6.33301 4 -13 4h-56v87h95c19.333 0 34.666 -4.33301 45.999 -13s17 -22 17 -40v-24z" />
    <glyph glyph-name="uni0E4A.alt2" unicode="&#xf70c;" 
d="M-178 634l-7.00195 17.0029c6 6.66699 9 17 9 31c0 10 -2.5 18.167 -7.5 24.5s-12.167 10.166 -21.5 11.499l-47 -33l-50 30c-8 -1.33301 -14.5 -5.16602 -19.5 -11.499s-7.5 -13.5 -7.5 -21.5c0 -10.667 1 -19.334 3 -26.001s5 -14.667 9 -24h-83
c-5.33301 9.33301 -9.33301 20.166 -12 32.499s-4 23.833 -4 34.5s2.33301 21.667 7 33s11.334 21.666 20.001 30.999s19.5 17.166 32.5 23.499s27.833 10.166 44.5 11.499l58 -47l55 48c28.667 -1.33301 50.834 -10.166 66.501 -26.499s24.167 -37.166 25.5 -62.499v-13
c0 -4 -0.666992 -8.33301 -2 -13c12.667 9.33301 21.667 22.333 27 39s8 32.667 8 48c0 11.333 -1.16699 21.5 -3.5 30.5s-5.83301 18.167 -10.5 27.5h92c3.33301 -8 5.83301 -16.333 7.5 -25s2.5 -20 2.5 -34c0 -17.333 -3.16699 -34.166 -9.5 -50.499
s-15.333 -30.833 -27 -43.5s-25.667 -22.834 -42 -30.501s-34.833 -11.5 -55.5 -11.5h-58z" />
    <glyph glyph-name="uni0E4B.alt2" unicode="&#xf70d;" 
d="M-256 788l90 -2l-3 81h95l-2 -81l90 2v-75l-90 2l2 -81h-95l3 81l-90 -2v75z" />
    <glyph glyph-name="uni0E4C.alt2" unicode="&#xf70e;" 
d="M-114 700c-11.333 0 -20.167 -2.66699 -26.5 -8s-9.5 -14.333 -9.5 -27v-31h-111v46c0 34 10.333 60.5 31 79.5s51 28.5 91 28.5h113v-88h-88z" />
    <glyph glyph-name="uni0E0D.alt1" unicode="&#xf70f;" horiz-adv-x="929" 
d="M520 199c0 -40 8.66797 -70.165 26.001 -90.498s47 -30.5 89 -30.5s71.833 10.167 89.5 30.5s26.5 50.5 26.5 90.5v361h108v-364c0 -70.667 -19.667 -122.834 -59 -156.501s-94.333 -50.5 -165 -50.5s-125.5 16.833 -164.5 50.5s-58.5 85.834 -58.5 156.501v154
c0 44 -10.667 77 -32 99s-51 33 -89 33c-14.667 0 -28.834 -2 -42.501 -6s-26.5 -9.66699 -38.5 -17s-22.667 -15.833 -32 -25.5s-16.333 -19.834 -21 -30.501l80 -70c-19.333 -8 -33.833 -19.333 -43.5 -34s-14.5 -33.667 -14.5 -57v-134
c0 -6.66699 1.33301 -11.834 4 -15.501s7.66699 -5.5 15 -5.5h56v-87h-83c-32.667 0 -57.5 9.16699 -74.5 27.5s-25.5 42.5 -25.5 72.5v136c0 20 4.83301 38.5 14.5 55.5s22.5 30.167 38.5 39.5l-81 68c6 22 16.5 43.333 31.5 64s33.333 39 55 55s46.334 28.833 74.001 38.5
s57.5 14.5 89.5 14.5c37.333 0 70.166 -5.5 98.499 -16.5s52 -26.167 71 -45.5s33.333 -42.5 43 -69.5s14.5 -56.833 14.5 -89.5v-151z" />
    <glyph glyph-name="uni0E31.alt1" unicode="&#xf710;" 
d="M-356 744c0 -17.333 8.33301 -26 25 -26h216v-84h-235c-33.333 0 -59.5 8 -78.5 24s-28.5 42 -28.5 78v45h101v-37z" />
    <glyph glyph-name="uni0E4D.alt1" unicode="&#xf711;" 
d="M-344 619c-14.667 0 -28.5 2.66699 -41.5 8s-24.167 12.833 -33.5 22.5s-16.833 20.834 -22.5 33.501s-8.5 26.667 -8.5 42c0 30 10.167 55 30.5 75s45.5 30 75.5 30s55.167 -10 75.5 -30s30.5 -45 30.5 -75c0 -15.333 -2.83301 -29.333 -8.5 -42
s-13.167 -23.834 -22.5 -33.501s-20.5 -17.167 -33.5 -22.5s-26.833 -8 -41.5 -8zM-344 684c11.333 0 21 4.16699 29 12.5s12 18.166 12 29.499s-4 21 -12 29s-17.667 12 -29 12s-20.833 -4 -28.5 -12s-11.5 -17.667 -11.5 -29s3.83301 -21.166 11.5 -29.499
s17.167 -12.5 28.5 -12.5z" />
    <glyph glyph-name="uni0E47.alt1" unicode="&#xf712;" 
d="M-293 633c-17.333 0 -32.6689 4.50098 -46.002 13.501s-23.666 20.833 -30.999 35.5c-6 -15.333 -16.333 -28.166 -31 -38.499s-33.667 -15.5 -57 -15.5c-36.667 0 -66 10.667 -88 32s-33 49 -33 83c0 15.333 2.83301 30.166 8.5 44.499s14.167 27.166 25.5 38.499
s25.5 20.333 42.5 27s37.167 10 60.5 10h213v-77h-210c-18 0 -31 -4.33301 -39 -13s-12 -19 -12 -31s3.83301 -22.333 11.5 -31s18.167 -13 31.5 -13c12.667 0 23.167 4.16699 31.5 12.5s13.833 18.166 16.5 29.499h55c2.66699 -9.33301 7.83398 -16.666 15.501 -21.999
s18.167 -8 31.5 -8h69v-77h-65z" />
    <glyph glyph-name="uni0E48.alt3" unicode="&#xf713;" 
d="M-328 862v149h99v-149h-99z" />
    <glyph glyph-name="uni0E49.alt3" unicode="&#xf714;" 
d="M-304 957c0 -10 4.66602 -15.001 13.999 -15.001h134v-80h-180c-13.333 0 -24.5 4 -33.5 12s-13.5 18.667 -13.5 32v25c0 5.33301 -0.833008 9.33301 -2.5 12s-5.16699 4 -10.5 4h-55v81h87c18.667 0 33.334 -4.16699 44.001 -12.5s16 -21.166 16 -38.499v-20z" />
    <glyph glyph-name="uni0E4A.alt3" unicode="&#xf715;" 
d="M-316 862l-6.99902 15.9971c6 6 9 15.333 9 28c0 9.33301 -2.66699 16.666 -8 21.999s-12 8.66602 -20 9.99902l-45 -33l-46 30c-6.66699 -1.33301 -12 -4.66602 -16 -9.99902s-6 -11.666 -6 -18.999c0 -9.33301 1 -17.166 3 -23.499s5 -13.833 9 -22.5h-78
c-5.33301 9.33301 -9 19.333 -11 30s-3 21 -3 31s2 20.167 6 30.5s9.83301 19.833 17.5 28.5s17.334 15.834 29.001 21.501s25.167 9.16699 40.5 10.5l56 -46l51 47c26.667 -1.33301 47 -9.5 61 -24.5s21.667 -33.5 23 -55.5c0 -8 -1 -16 -3 -24
c11.333 8 19.166 19.167 23.499 33.5s6.5 30.166 6.5 47.499c0 16 -4.33301 32.333 -13 49h89c3.33301 -7.33301 5.83301 -14.666 7.5 -21.999s2.5 -16 2.5 -26c0 -17.333 -3 -33.666 -9 -48.999s-14.5 -29 -25.5 -41s-24.333 -21.5 -40 -28.5s-32.834 -10.5 -51.501 -10.5
h-52z" />
    <glyph glyph-name="uni0E4B.alt3" unicode="&#xf716;" 
d="M-401 999l80 -2l-3 67h90l-2 -67l79 2v-73l-79 3l2 -67h-90l3 67l-80 -3v73z" />
    <glyph glyph-name="uni0E4C.alt3" unicode="&#xf717;" 
d="M-253 829c-20.667 0 -31 -10.334 -31 -31.001v-28h-105v43c0 30.667 9.33301 54.834 28 72.501s46.667 26.5 84 26.5h100v-83h-76z" />
    <glyph glyph-name="uni0E38.alt1" unicode="&#xf718;" 
d="M-171 -349c0 15.333 -7.33301 23 -22 23h-39v84h75c30 0 52 -6.83301 66 -20.5s21 -36.167 21 -67.5v-111h-101v92z" />
    <glyph glyph-name="uni0E39.alt1" unicode="&#xf719;" 
d="M-210 -452c-46 0 -80.498 9.83301 -103.498 29.5s-34.5 46.167 -34.5 79.5v20h-57v80h153v-100c0 -13.333 4.16699 -22.833 12.5 -28.5s18.166 -8.5 29.499 -8.5s21.166 2.83301 29.499 8.5s12.5 15.167 12.5 28.5v100h98v-100c0 -33.333 -12 -59.833 -36 -79.5
s-58.667 -29.5 -104 -29.5z" />
    <glyph glyph-name="uni0E3A.alt1" unicode="&#xf71a;" 
d="M-53 -308c0 -19.333 -7 -35.835 -21 -49.502s-31.333 -20.5 -52 -20.5c-10 0 -19.333 1.83301 -28 5.5s-16.334 8.66699 -23.001 15s-12 13.833 -16 22.5s-6 17.667 -6 27s2 18.333 6 27s9.33301 16.334 16 23.001s14.334 12 23.001 16s18 6 28 6
c20.667 0 38 -7.16699 52 -21.5s21 -31.166 21 -50.499z" />
    <glyph glyph-name="uni0E0E.alt1" unicode="&#xf71b;" horiz-adv-x="622" 
d="M552 -180l-122.001 -0.000976562c-15.333 14.667 -34 27.334 -56 38.001s-45.333 16 -70 16c-30 0 -56.5 -4.33301 -79.5 -13s-47.167 -23.334 -72.5 -44.001l-29 84c20 18.667 43.333 33.834 70 45.501s58.667 17.5 96 17.5c14.667 0 29.667 -1.66699 45 -5
s29.833 -8 43.5 -14s26.167 -12.833 37.5 -20.5s21 -15.834 29 -24.501v450c0 44 -11.667 77 -35 99s-56 33 -98 33c-34 0 -64.333 -7.66699 -91 -23s-45 -34 -55 -56l90 -76c-19.333 -8 -33.5 -18.833 -42.5 -32.5s-13.5 -32.167 -13.5 -55.5v-139
c0 -29.333 -8.83301 -53.333 -26.5 -72s-42.5 -28 -74.5 -28h-71v87h45c12.667 0 19 7 19 21v124c0 20 4.5 38.333 13.5 55s21.5 29.334 37.5 38.001l-91 74c6 22 16.833 43.333 32.5 64s34.834 39 57.501 55s48.5 28.833 77.5 38.5s60.5 14.5 94.5 14.5
c39.333 0 73.833 -5.5 103.5 -16.5s54.5 -26.167 74.5 -45.5s35.167 -42.5 45.5 -69.5s15.5 -56.833 15.5 -89.5v-530z" />
    <glyph glyph-name="uni0E0F.alt1" unicode="&#xf71c;" horiz-adv-x="622" 
d="M552 -180h-108.001l-108 66c-12 -21.333 -28.833 -38.833 -50.5 -52.5s-46.834 -20.5 -75.501 -20.5c-22.667 0 -44.667 2.66699 -66 8s-39.666 12.666 -54.999 21.999l27 87c13.333 -9.33301 28.333 -17 45 -23s32.667 -9 48 -9c28.667 0 52.5 8 71.5 24
s31.5 37.667 37.5 65l126 -78v441c0 44 -11.667 77 -35 99s-56 33 -98 33c-34 0 -64.333 -7.66699 -91 -23s-45 -34 -55 -56l90 -76c-19.333 -8 -33.5 -18.833 -42.5 -32.5s-13.5 -32.167 -13.5 -55.5v-139c0 -30 -8.5 -54.167 -25.5 -72.5s-42.167 -27.5 -75.5 -27.5h-71
v87h45c12.667 0 19 7 19 21v124c0 20 4.5 38.333 13.5 55s21.5 29.334 37.5 38.001l-91 74c6 22 16.833 43.333 32.5 64s34.834 39 57.501 55s48.5 28.833 77.5 38.5s60.5 14.5 94.5 14.5c39.333 0 73.833 -5.5 103.5 -16.5s54.5 -26.167 74.5 -45.5
s35.167 -42.5 45.5 -69.5s15.5 -56.833 15.5 -89.5v-530z" />
    <glyph glyph-name="uni0E2C.alt1" unicode="&#xf71d;" horiz-adv-x="673" 
d="M601 0h-117l-112 222c-8 15.333 -15.333 32.666 -22 51.999s-11.667 35.666 -15 48.999h-2c-3.33301 -13.333 -8.33301 -29.666 -15 -48.999s-13.667 -36.666 -21 -51.999l-108 -222h-117v560h104v-274c0 -31.333 -0.833008 -61.166 -2.5 -89.499
s-5.16699 -58.5 -10.5 -90.5h3c7.33301 29.333 15 54.833 23 76.5s16.333 41.167 25 58.5l83 162h74l87 -162c18 -34.667 34.333 -79.667 49 -135h2c-4.66699 32 -7.83398 62.167 -9.50098 90.5s-2.5 58.166 -2.5 89.499v58c0 24.667 -4.66699 42.334 -14 53.001
s-22.666 16 -39.999 16h-17l-16 42l106 144h112l-113 -136c28 -6.66699 49.333 -20.834 64 -42.501s22 -47.5 22 -77.5v-343z" />
    <glyph glyph-name="uni0E33.alt1" horiz-adv-x="481" 
d="M-344 619c-14.667 0 -28.5 2.66699 -41.5 8s-24.167 12.833 -33.5 22.5s-16.833 20.834 -22.5 33.501s-8.5 26.667 -8.5 42c0 30 10.167 55 30.5 75s45.5 30 75.5 30s55.167 -10 75.5 -30s30.5 -45 30.5 -75c0 -15.333 -2.83301 -29.333 -8.5 -42
s-13.167 -23.834 -22.5 -33.501s-20.5 -17.167 -33.5 -22.5s-26.833 -8 -41.5 -8zM-344 684c11.333 0 21 4.16699 29 12.5s12 18.166 12 29.499s-4 21 -12 29s-17.667 12 -29 12s-20.833 -4 -28.5 -12s-11.5 -17.667 -11.5 -29s3.83301 -21.166 11.5 -29.499
s17.167 -12.5 28.5 -12.5zM303 0l-0.000976562 359.999c0 81.333 -35 122 -105 122c-30.667 0 -60.167 -5.66699 -88.5 -17s-53.166 -24.666 -74.499 -39.999l-28 79c23.333 17.333 53 32.833 89 46.5s73.333 20.5 112 20.5c66.667 0 117.167 -19 151.5 -57
s51.5 -90.667 51.5 -158v-356h-108z" />
    <glyph glyph-name="uni0E4E.alt1" 
d="M-268 646c-9.33301 -5.33301 -19.5 -9.50098 -30.5 -12.501s-23.5 -4.5 -37.5 -4.5c-16 0 -30.833 1.66699 -44.5 5s-25.834 8.66602 -36.501 15.999s-19 16.833 -25 28.5s-9 25.834 -9 42.501c0 26.667 9.5 49 28.5 67s49.167 24.667 90.5 20
c-4.66699 4.66699 -8.5 10.334 -11.5 17.001s-4.5 13.667 -4.5 21c0 12.667 5.5 24 16.5 34s29.5 15 55.5 15h71l16 -63h-71c-4 0 -7.33301 -1.66699 -10 -5s-4 -7.33301 -4 -12c0 -5.33301 2.83301 -10.333 8.5 -15s12.834 -9.33398 21.501 -14.001l-18 -44
c-22 6.66699 -43.333 10 -64 10c-12.667 0 -23 -2.33301 -31 -7s-12 -11.667 -12 -21s4 -16.666 12 -21.999s18.667 -8 32 -8c7.33301 0 15.833 0.5 25.5 1.5s20.167 3.83301 31.5 8.5v-58z" />
    </font>
</defs>
</svg>
